<svg version="1.1" id="Layer_1" xmlns="http://www.w3.org/2000/svg" xmlns:xlink="http://www.w3.org/1999/xlink" x="0px" y="0px"
	 width="100%" viewBox="0 0 640 640" enable-background="new 0 0 640 640" xml:space="preserve">
<path fill="#F5F5F5" opacity="1.000000" stroke="none" 
	d="
M421.000000,641.000000 
	C280.666687,641.000000 140.833389,641.000000 1.000056,641.000000 
	C1.000038,427.666718 1.000038,214.333466 1.000019,1.000142 
	C214.333237,1.000095 427.666473,1.000095 640.999756,1.000047 
	C640.999878,214.333191 640.999878,427.666382 640.999939,640.999756 
	C567.833313,641.000000 494.666656,641.000000 421.000000,641.000000 
M385.265930,338.471771 
	C385.749847,338.263397 386.233765,338.055023 387.554443,337.927917 
	C391.771576,336.399414 392.364288,333.352295 389.030792,329.331757 
	C389.056000,328.891235 389.081207,328.450745 389.766235,327.861816 
	C389.545410,326.571106 389.324585,325.280396 389.021149,323.249664 
	C389.044556,322.506409 389.067932,321.763184 389.857788,320.977661 
	C390.546753,320.401215 391.475494,319.959503 391.887085,319.227142 
	C395.443787,312.898712 398.840118,306.479706 402.428650,300.169800 
	C404.085419,297.256592 406.090027,294.542877 407.881775,291.703918 
	C408.565643,290.620422 409.141785,289.461426 409.687592,288.299530 
	C412.463013,282.391327 415.720673,276.637421 417.739410,270.478760 
	C418.641296,267.727295 419.516205,266.367615 422.079407,265.343811 
	C425.704468,263.895844 429.838409,262.642212 432.464691,260.015503 
	C436.886566,255.593033 440.179474,250.062744 444.170197,245.180649 
	C446.749908,242.024704 447.953552,238.863586 446.062164,234.366272 
	C446.384552,233.579514 446.706940,232.792755 447.697205,231.878281 
	C447.805847,230.587662 447.914490,229.297058 448.035797,227.160812 
	C448.307831,220.843338 448.579865,214.525864 448.937897,207.447647 
	C447.969849,206.297516 447.001801,205.147385 445.541748,203.459091 
	C442.426483,203.285553 439.311249,203.112000 436.136536,202.147675 
	C436.396088,200.846451 436.667267,199.547440 436.913513,198.243698 
	C443.152161,165.215988 437.193085,133.696625 424.971802,103.001495 
	C420.557037,91.913406 413.589325,82.707573 403.347534,76.311142 
	C374.448853,58.262684 343.349976,48.404915 308.857727,49.565140 
	C282.385315,50.455597 258.330292,57.498096 237.637711,74.281891 
	C229.300201,81.044472 219.488861,87.344269 214.151810,96.157906 
	C204.328842,112.379555 198.209717,130.639206 199.153442,150.184830 
	C199.698135,161.466263 201.328201,172.698563 202.572220,183.941650 
	C203.275818,190.300415 204.186890,196.636200 204.207367,202.995911 
	C196.679871,201.158203 193.966400,202.646591 193.014023,210.349747 
	C192.395020,215.356522 192.321869,220.622711 193.152512,225.580261 
	C195.506073,239.627136 201.212479,252.184723 214.115417,259.451080 
	C220.498978,263.046051 224.005066,267.734528 226.772644,274.216400 
	C233.379105,289.689240 242.709244,303.622864 252.867767,317.931702 
	C252.869324,322.917419 252.620010,327.922729 253.007492,332.878265 
	C253.144470,334.630066 254.423691,336.888031 255.883072,337.846039 
	C266.832520,345.033813 277.957458,351.954193 288.791504,359.403809 
	C288.526428,359.602936 288.261383,359.802063 287.223083,359.999023 
	C281.749542,357.265472 275.510834,356.314117 270.853699,351.591187 
	C267.547974,348.238739 263.218231,345.843475 259.167816,343.304596 
	C257.621063,342.335022 255.559128,341.641296 253.766434,341.710754 
	C247.989120,341.934570 246.848846,343.822479 247.242035,351.958282 
	C240.718628,351.151550 238.552612,354.848602 238.156921,360.129547 
	C236.797791,360.364807 235.070786,360.147797 234.137589,360.906738 
	C226.516373,367.105194 219.123001,373.584534 211.478622,379.753296 
	C209.061050,381.704254 206.270782,383.588348 203.342346,384.434052 
	C195.842499,386.599945 188.129715,388.015015 180.573029,390.000366 
	C161.942596,394.895142 143.164352,399.343109 124.800049,405.101349 
	C107.684593,410.467987 96.639351,422.219208 93.407867,440.450958 
	C92.363564,446.342865 90.663490,452.149597 90.027252,458.077240 
	C87.647186,480.251343 84.618088,502.417206 83.645203,524.665405 
	C82.423851,552.595825 83.021759,580.604492 82.736969,608.578430 
	C82.693062,612.891663 84.362312,614.088867 88.685204,614.077515 
	C155.841904,613.901489 222.999084,613.871094 290.156128,613.885620 
	C374.645782,613.903870 459.135468,613.994019 543.625122,614.052429 
	C548.249268,614.055664 552.873474,614.052856 557.941345,614.052856 
	C558.336853,609.825745 558.873901,606.224243 558.981018,602.609924 
	C560.063110,566.096863 559.179077,529.607910 555.592957,493.272400 
	C553.766724,474.768372 550.307678,456.407043 547.126770,438.060913 
	C544.491272,422.860260 535.001160,413.007599 521.135559,406.899048 
	C503.505981,399.132202 484.863373,395.013397 466.165619,390.886444 
	C456.184753,388.683472 445.692993,386.749817 436.830078,382.054962 
	C426.224915,376.437103 417.138977,367.964539 407.318909,360.833282 
	C406.193237,360.015839 404.579163,359.870941 403.089661,358.630646 
	C402.990906,357.381104 402.892181,356.131561 402.767914,354.559021 
	C401.178131,355.470520 399.966675,356.165100 398.264496,357.141022 
	C395.665009,350.227020 395.238922,341.524445 384.990143,341.219421 
	C384.979004,340.448883 384.967865,339.678345 385.265930,338.471771 
z"/>
<path fill="#101226" opacity="1.000000" stroke="none" 
	d="
M403.191559,359.414215 
	C404.579163,359.870941 406.193237,360.015839 407.318909,360.833282 
	C417.138977,367.964539 426.224915,376.437103 436.830078,382.054962 
	C445.692993,386.749817 456.184753,388.683472 466.165619,390.886444 
	C484.863373,395.013397 503.505981,399.132202 521.135559,406.899048 
	C535.001160,413.007599 544.491272,422.860260 547.126770,438.060913 
	C550.307678,456.407043 553.766724,474.768372 555.592957,493.272400 
	C559.179077,529.607910 560.063110,566.096863 558.981018,602.609924 
	C558.873901,606.224243 558.336853,609.825745 557.941345,614.052856 
	C552.873474,614.052856 548.249268,614.055664 543.625122,614.052429 
	C459.135468,613.994019 374.645782,613.903870 290.156128,613.885620 
	C222.999084,613.871094 155.841904,613.901489 88.685204,614.077515 
	C84.362312,614.088867 82.693062,612.891663 82.736969,608.578430 
	C83.021759,580.604492 82.423851,552.595825 83.645203,524.665405 
	C84.618088,502.417206 87.647186,480.251343 90.027252,458.077240 
	C90.663490,452.149597 92.363564,446.342865 93.407867,440.450958 
	C96.639351,422.219208 107.684593,410.467987 124.800049,405.101349 
	C143.164352,399.343109 161.942596,394.895142 180.573029,390.000366 
	C188.129715,388.015015 195.842499,386.599945 203.342346,384.434052 
	C206.270782,383.588348 209.061050,381.704254 211.478622,379.753296 
	C219.123001,373.584534 226.516373,367.105194 234.137589,360.906738 
	C235.070786,360.147797 236.797791,360.364807 238.449341,360.758667 
	C241.844269,369.592407 244.946777,377.796997 247.981506,386.382935 
	C256.447418,410.548645 264.927856,434.352295 273.532013,458.111176 
	C280.203491,476.533417 287.029602,494.899689 293.803284,513.666016 
	C294.885345,517.178162 295.890350,520.337341 297.026764,523.448486 
	C304.645050,544.304993 312.291321,565.151306 319.934631,586.386597 
	C321.028320,589.700623 322.115906,592.628967 323.676605,596.831238 
	C325.110687,591.958252 326.130859,588.491821 327.389313,584.762207 
	C329.971710,576.613708 332.315826,568.728455 334.764038,560.454712 
	C334.881287,559.530884 334.894409,558.995483 335.255402,558.297180 
	C336.040741,557.639099 336.691650,557.215271 336.884460,556.638306 
	C341.619812,542.467773 346.306580,528.281128 351.243530,513.820190 
	C353.347565,507.704193 355.210083,501.865265 357.171692,495.940735 
	C357.270752,495.855133 357.178802,495.609924 357.457611,495.334717 
	C359.194519,490.388702 360.652588,485.717865 362.364777,480.816956 
	C363.053864,479.045166 363.488831,477.503510 364.133423,475.676025 
	C369.033020,461.303009 373.722992,447.215790 378.619598,432.883606 
	C379.161102,431.414612 379.495941,430.190521 379.950867,428.742981 
	C380.060669,428.350677 380.050354,428.181854 380.195129,427.826721 
	C380.350159,427.640381 380.417603,427.160309 380.635712,426.886658 
	C385.418915,412.689392 389.984009,398.765839 394.721436,384.506561 
	C397.659668,375.918640 400.425598,367.666443 403.191559,359.414215 
z"/>
<path fill="#EECBA9" opacity="1.000000" stroke="none" 
	d="
M447.029358,232.006012 
	C446.706940,232.792755 446.384552,233.579514 445.757751,234.902161 
	C442.824310,243.301117 438.391357,250.060089 432.187225,255.462097 
	C429.176422,258.083588 425.656250,260.592285 421.930573,261.757141 
	C419.381073,262.554260 418.082733,263.361603 417.078339,265.691254 
	C410.010437,282.084473 402.030029,297.972198 391.003296,312.161041 
	C389.944885,313.522980 389.568573,315.415009 388.550049,317.107910 
	C387.138458,318.154907 385.965790,319.076630 384.979797,320.167145 
	C374.566895,331.683716 363.386566,342.284454 349.654633,349.840881 
	C338.178131,356.156128 325.867279,359.829498 312.863434,357.585754 
	C297.769257,354.981293 284.988770,346.987152 273.610931,337.002289 
	C266.398438,330.672852 259.763580,323.685181 252.869659,316.992706 
	C242.709244,303.622864 233.379105,289.689240 226.772644,274.216400 
	C224.005066,267.734528 220.498978,263.046051 214.115417,259.451080 
	C201.212479,252.184723 195.506073,239.627136 193.152512,225.580261 
	C192.321869,220.622711 192.395020,215.356522 193.014023,210.349747 
	C193.966400,202.646591 196.679871,201.158203 204.769592,203.281738 
	C210.639511,210.722916 215.947174,217.878265 220.903748,224.560287 
	C220.012543,200.156235 229.990982,176.965790 233.475220,151.788452 
	C240.964111,156.053223 247.035660,159.477158 253.075378,162.956406 
	C274.145752,175.094223 295.275879,174.518204 316.284271,162.976288 
	C322.834625,159.377563 328.809540,154.714508 335.419739,151.247650 
	C340.017120,148.836456 345.233002,146.199921 350.200897,146.143082 
	C371.574921,145.898468 388.093719,155.118027 398.630157,173.987396 
	C402.597046,181.091599 405.641205,188.709274 409.567596,195.838654 
	C411.359436,199.092209 413.731384,202.753601 416.815582,204.376785 
	C420.356903,206.240524 421.134216,208.308792 420.886749,211.682968 
	C420.608704,215.473969 420.441956,219.273132 420.150085,224.422485 
	C426.130920,216.414658 431.163452,209.676559 436.195984,202.938446 
	C439.311249,203.112000 442.426483,203.285553 445.811523,204.070312 
	C447.004822,205.857147 447.928375,207.032776 448.851898,208.208389 
	C448.579865,214.525864 448.307831,220.843338 447.763428,227.821930 
	C447.337158,229.657364 447.183258,230.831680 447.029358,232.006012 
z"/>
<path fill="#0E0C0D" opacity="1.000000" stroke="none" 
	d="
M436.166260,202.543060 
	C431.163452,209.676559 426.130920,216.414658 420.150085,224.422485 
	C420.441956,219.273132 420.608704,215.473969 420.886749,211.682968 
	C421.134216,208.308792 420.356903,206.240524 416.815582,204.376785 
	C413.731384,202.753601 411.359436,199.092209 409.567596,195.838654 
	C405.641205,188.709274 402.597046,181.091599 398.630157,173.987396 
	C388.093719,155.118027 371.574921,145.898468 350.200897,146.143082 
	C345.233002,146.199921 340.017120,148.836456 335.419739,151.247650 
	C328.809540,154.714508 322.834625,159.377563 316.284271,162.976288 
	C295.275879,174.518204 274.145752,175.094223 253.075378,162.956406 
	C247.035660,159.477158 240.964111,156.053223 233.475220,151.788452 
	C229.990982,176.965790 220.012543,200.156235 220.903748,224.560287 
	C215.947174,217.878265 210.639511,210.722916 205.168182,203.274963 
	C204.186890,196.636200 203.275818,190.300415 202.572220,183.941650 
	C201.328201,172.698563 199.698135,161.466263 199.153442,150.184830 
	C198.209717,130.639206 204.328842,112.379555 214.151810,96.157906 
	C219.488861,87.344269 229.300201,81.044472 237.637711,74.281891 
	C258.330292,57.498096 282.385315,50.455597 308.857727,49.565140 
	C343.349976,48.404915 374.448853,58.262684 403.347534,76.311142 
	C413.589325,82.707573 420.557037,91.913406 424.971802,103.001495 
	C437.193085,133.696625 443.152161,165.215988 436.913513,198.243698 
	C436.667267,199.547440 436.396088,200.846451 436.166260,202.543060 
z"/>
<path fill="#F4F7FB" opacity="1.000000" stroke="none" 
	d="
M248.049301,386.001587 
	C244.946777,377.796997 241.844269,369.592407 238.709991,361.031189 
	C238.552612,354.848602 240.718628,351.151550 247.242035,351.958282 
	C246.848846,343.822479 247.989120,341.934570 253.766434,341.710754 
	C255.559128,341.641296 257.621063,342.335022 259.167816,343.304596 
	C263.218231,345.843475 267.547974,348.238739 270.853699,351.591187 
	C275.510834,356.314117 281.749542,357.265472 287.754944,360.315430 
	C289.182556,361.568970 289.923462,362.772034 290.999939,363.398743 
	C296.703369,366.719727 302.534576,369.821106 308.238647,373.140961 
	C315.411041,377.315338 315.615662,377.889130 314.023438,385.503479 
	C313.990021,385.663391 314.015930,385.835754 313.999451,386.370911 
	C312.995667,389.158051 312.006592,391.576599 310.710571,394.155457 
	C308.262421,399.871429 306.121246,405.427094 303.744385,410.830933 
	C302.878235,410.602142 301.929565,410.220184 301.666199,410.494995 
	C298.751740,413.536224 299.579346,416.414246 302.203552,419.480774 
	C301.759216,421.169617 301.361755,422.505798 300.789001,424.143005 
	C299.309021,426.840607 298.004333,429.237213 296.460480,432.073151 
	C282.248962,418.181366 268.417145,404.611816 254.508942,391.121033 
	C252.546722,389.217651 250.211746,387.698547 248.049301,386.001587 
z"/>
<path fill="#F5F7FB" opacity="1.000000" stroke="none" 
	d="
M403.140625,359.022430 
	C400.425598,367.666443 397.659668,375.918640 394.386292,384.518127 
	C388.632416,390.004517 383.386047,395.143616 377.884705,400.325745 
	C377.189789,400.642517 376.749847,400.916290 375.913605,401.135162 
	C371.181549,401.876678 368.991119,404.477203 368.929443,409.097015 
	C368.906921,409.307068 368.926788,409.729095 368.694031,409.877594 
	C368.279449,410.336273 368.097565,410.646423 367.941101,410.930908 
	C367.966492,410.905243 367.905243,410.867004 367.679077,410.838165 
	C367.452942,410.809326 366.996521,410.773499 366.740356,410.559692 
	C362.223236,409.910461 362.049042,412.849915 361.882141,416.112732 
	C361.772522,416.556122 361.723419,416.732147 361.498535,416.899933 
	C361.322784,416.891663 360.990234,417.006744 360.668762,417.038910 
	C359.256622,418.048370 358.165924,419.025665 356.705292,420.006409 
	C354.832336,420.559967 353.329346,421.110077 351.825256,421.666840 
	C350.507965,420.875458 349.191742,420.077454 348.091248,419.410217 
	C345.224915,421.255402 350.294373,429.603760 341.815735,425.686401 
	C341.147888,423.936127 340.655243,422.471619 340.401794,420.703003 
	C340.641022,418.134644 340.641022,415.870392 340.641022,412.752533 
	C339.185425,414.431946 338.401276,415.336670 337.435242,416.004822 
	C337.137573,415.188751 337.021759,414.609222 337.192932,413.809265 
	C337.577454,408.249359 335.145691,404.196075 330.844604,400.798645 
	C330.503143,400.068695 330.385132,399.519836 330.488403,398.707947 
	C328.785217,391.968292 326.860687,385.491699 325.144531,378.748138 
	C330.696838,375.012024 336.140900,371.684265 341.337036,368.006256 
	C343.508209,366.469391 345.152588,364.188354 347.232819,362.143311 
	C347.429108,362.040894 347.853638,361.915009 348.262268,361.943207 
	C352.828430,360.718811 358.306519,361.429169 359.240417,354.838654 
	C360.329437,354.106445 361.176025,353.559753 362.410645,353.014587 
	C365.492401,352.650757 369.687561,353.227264 370.612640,351.752533 
	C374.100769,346.191864 379.998810,344.896423 384.983307,341.988037 
	C395.238922,341.524445 395.665009,350.227020 398.264496,357.141022 
	C399.966675,356.165100 401.178131,355.470520 402.767914,354.559021 
	C402.892181,356.131561 402.990906,357.381104 403.140625,359.022430 
z"/>
<path fill="#D0AD8C" opacity="1.000000" stroke="none" 
	d="
M362.022583,353.013062 
	C361.176025,353.559753 360.329437,354.106445 358.890320,354.872009 
	C354.816406,357.365570 351.335022,359.640289 347.853638,361.915039 
	C347.853638,361.915009 347.429108,362.040894 346.887024,362.128448 
	C338.194672,367.417908 330.044373,372.619812 321.578918,377.855713 
	C320.842773,377.924896 320.421844,377.960052 319.798462,377.729034 
	C309.406494,371.294647 299.216980,365.126465 289.027496,358.958282 
	C277.957458,351.954193 266.832520,345.033813 255.883072,337.846039 
	C254.423691,336.888031 253.144470,334.630066 253.007492,332.878265 
	C252.620010,327.922729 252.869324,322.917419 252.868713,317.462219 
	C259.763580,323.685181 266.398438,330.672852 273.610931,337.002289 
	C284.988770,346.987152 297.769257,354.981293 312.863434,357.585754 
	C325.867279,359.829498 338.178131,356.156128 349.654633,349.840881 
	C363.386566,342.284454 374.566895,331.683716 384.979797,320.167145 
	C385.965790,319.076630 387.138458,318.154907 388.579895,317.502808 
	C388.987305,318.907196 389.039307,319.963562 389.091309,321.019928 
	C389.067932,321.763184 389.044556,322.506409 389.002258,324.019257 
	C389.024353,325.862640 389.065399,326.936432 389.106415,328.010223 
	C389.081207,328.450745 389.056000,328.891235 389.002960,330.063660 
	C388.222656,333.145935 387.470154,335.496307 386.717682,337.846680 
	C386.233765,338.055023 385.749847,338.263397 384.765137,338.754272 
	C376.850433,343.695557 369.436493,348.354309 362.022583,353.013062 
z"/>
<path fill="#F9ECE3" opacity="1.000000" stroke="none" 
	d="
M389.474548,320.998779 
	C389.039307,319.963562 388.987305,318.907196 388.905457,317.455933 
	C389.568573,315.415009 389.944885,313.522980 391.003296,312.161041 
	C402.030029,297.972198 410.010437,282.084473 417.078339,265.691254 
	C418.082733,263.361603 419.381073,262.554260 421.930573,261.757141 
	C425.656250,260.592285 429.176422,258.083588 432.187225,255.462097 
	C438.391357,250.060089 442.824310,243.301117 445.734406,235.221863 
	C447.953552,238.863586 446.749908,242.024704 444.170197,245.180649 
	C440.179474,250.062744 436.886566,255.593033 432.464691,260.015503 
	C429.838409,262.642212 425.704468,263.895844 422.079407,265.343811 
	C419.516205,266.367615 418.641296,267.727295 417.739410,270.478760 
	C415.720673,276.637421 412.463013,282.391327 409.687592,288.299530 
	C409.141785,289.461426 408.565643,290.620422 407.881775,291.703918 
	C406.090027,294.542877 404.085419,297.256592 402.428650,300.169800 
	C398.840118,306.479706 395.443787,312.898712 391.887085,319.227142 
	C391.475494,319.959503 390.546753,320.401215 389.474548,320.998779 
z"/>
<path fill="#F9ECE3" opacity="1.000000" stroke="none" 
	d="
M288.909485,359.181030 
	C299.216980,365.126465 309.406494,371.294647 319.587219,378.007477 
	C318.711914,379.774384 317.869263,381.014557 316.972229,382.214020 
	C316.012909,383.496796 315.002319,384.741150 314.014160,386.002289 
	C314.015930,385.835754 313.990021,385.663391 314.023438,385.503479 
	C315.615662,377.889130 315.411041,377.315338 308.238647,373.140961 
	C302.534576,369.821106 296.703369,366.719727 290.999939,363.398743 
	C289.923462,362.772034 289.182556,361.568970 288.141571,360.316528 
	C288.261383,359.802063 288.526428,359.602936 288.909485,359.181030 
z"/>
<path fill="#F9ECE3" opacity="1.000000" stroke="none" 
	d="
M362.410645,353.014587 
	C369.436493,348.354309 376.850433,343.695557 384.610535,338.972290 
	C384.967865,339.678345 384.979004,340.448883 384.986725,341.603729 
	C379.998810,344.896423 374.100769,346.191864 370.612640,351.752533 
	C369.687561,353.227264 365.492401,352.650757 362.410645,353.014587 
z"/>
<path fill="#F9ECE3" opacity="1.000000" stroke="none" 
	d="
M387.136047,337.887299 
	C387.470154,335.496307 388.222656,333.145935 389.036713,330.393372 
	C392.364288,333.352295 391.771576,336.399414 387.136047,337.887299 
z"/>
<path fill="#F9ECE3" opacity="1.000000" stroke="none" 
	d="
M448.894897,207.828018 
	C447.928375,207.032776 447.004822,205.857147 446.057495,204.339386 
	C447.001801,205.147385 447.969849,206.297516 448.894897,207.828018 
z"/>
<path fill="#F9ECE3" opacity="1.000000" stroke="none" 
	d="
M389.436340,327.936035 
	C389.065399,326.936432 389.024353,325.862640 389.043549,324.389282 
	C389.324585,325.280396 389.545410,326.571106 389.436340,327.936035 
z"/>
<path fill="#F9ECE3" opacity="1.000000" stroke="none" 
	d="
M447.363281,231.942139 
	C447.183258,230.831680 447.337158,229.657364 447.757111,228.244736 
	C447.914490,229.297058 447.805847,230.587662 447.363281,231.942139 
z"/>
<path fill="#B92230" opacity="1.000000" stroke="none" 
	d="
M334.907562,558.460083 
	C334.894409,558.995483 334.881287,559.530884 334.546570,560.621216 
	C333.351990,562.337463 332.263031,563.394470 331.642731,564.677917 
	C328.688599,570.789795 325.861908,576.963318 322.686096,582.933289 
	C321.253662,580.750305 319.819122,578.860168 319.044006,576.730103 
	C311.876587,557.033569 304.798615,537.304321 297.784851,517.552490 
	C297.253815,516.057129 297.133392,514.287476 297.297546,512.694336 
	C298.490936,501.113220 299.800323,489.544037 301.084686,477.972351 
	C303.046997,460.292908 305.018677,442.614563 307.313354,425.105896 
	C309.365845,426.158875 311.126648,427.859772 312.810852,427.787018 
	C321.446228,427.414154 330.061890,426.584686 338.779846,426.366913 
	C341.476288,453.232666 344.161652,479.638489 346.596954,506.067413 
	C347.011536,510.567017 347.227020,515.411682 346.024902,519.670837 
	C342.738983,531.312622 338.606995,542.714172 334.930725,554.249329 
	C334.523895,555.525757 334.896454,557.050476 334.907562,558.460083 
z"/>
<path fill="#84CDD5" opacity="1.000000" stroke="none" 
	d="
M247.981506,386.382935 
	C250.211746,387.698547 252.546722,389.217651 254.508942,391.121033 
	C268.417145,404.611816 282.248962,418.181366 296.460480,432.073151 
	C298.004333,429.237213 299.309021,426.840607 301.180054,424.241974 
	C302.510101,425.850433 304.044403,427.719025 303.912964,429.461975 
	C303.030640,441.161407 301.855865,452.840485 300.654785,464.513672 
	C299.522217,475.520508 298.395111,486.532257 296.959106,497.501709 
	C296.263885,502.812164 294.866455,508.030701 293.786957,513.290833 
	C287.029602,494.899689 280.203491,476.533417 273.532013,458.111176 
	C264.927856,434.352295 256.447418,410.548645 247.981506,386.382935 
z"/>
<path fill="#82CED6" opacity="1.000000" stroke="none" 
	d="
M376.309937,401.190063 
	C376.749847,400.916290 377.189789,400.642517 378.111298,400.524658 
	C381.397186,398.760284 384.201508,396.839966 387.542633,394.552032 
	C387.542633,396.531281 387.950775,398.339661 387.473633,399.872467 
	C385.115295,407.448151 382.434509,414.923645 380.093201,422.504242 
	C379.664978,423.890625 380.282684,425.600006 380.417603,427.160309 
	C380.417603,427.160309 380.350159,427.640381 380.029297,427.890198 
	C379.631165,428.227844 379.471161,428.350220 379.490906,428.397461 
	C379.575256,428.599243 379.712738,428.778809 379.830811,428.966461 
	C379.495941,430.190521 379.161102,431.414612 378.277100,432.950439 
	C376.740082,435.344635 375.602570,437.370453 374.789520,439.519043 
	C370.603088,450.581970 366.451233,461.658936 362.472137,472.797089 
	C362.192719,473.579315 363.405121,474.894470 363.923798,475.961823 
	C363.488831,477.503510 363.053864,479.045166 361.998505,480.866394 
	C359.978363,485.967255 358.578583,490.788574 357.178802,495.609924 
	C357.178802,495.609924 357.270752,495.855133 356.810608,495.990417 
	C354.788788,498.991089 353.227112,501.856445 351.665405,504.721802 
	C351.240448,504.752747 350.815491,504.783691 350.390503,504.814636 
	C350.258423,501.633545 350.439362,498.395813 349.877594,495.292542 
	C349.537445,493.413330 348.046783,491.742371 347.052979,489.580994 
	C347.013306,488.124695 346.993744,487.065247 347.235413,485.794189 
	C346.582397,482.789917 350.087494,479.251434 346.031403,476.614288 
	C346.002777,475.497223 345.988800,474.752350 346.198425,473.840118 
	C345.983032,473.104034 345.543976,472.535278 345.081055,471.532227 
	C345.031281,469.067108 345.005402,467.036346 345.241394,464.783051 
	C345.021027,463.367157 344.538818,462.173798 344.041565,460.554077 
	C343.706238,457.084564 343.385925,454.041412 343.296997,450.803528 
	C343.360352,449.739014 343.192352,448.869202 343.014343,447.563690 
	C342.991516,445.095123 342.978760,443.062256 342.978516,440.693115 
	C342.684784,439.573090 342.378510,438.789307 342.055786,437.588959 
	C342.019714,435.782898 342.000122,434.393402 342.396698,433.004211 
	C348.826965,432.893494 352.185577,430.493317 352.966675,425.506256 
	C353.377502,424.829651 353.739746,424.429871 354.468567,424.013397 
	C358.755035,423.311798 361.442291,421.541473 360.990234,417.006744 
	C360.990234,417.006744 361.322784,416.891663 361.783264,416.838745 
	C362.488861,416.503448 362.733917,416.221008 362.989227,415.967834 
	C362.999481,415.997101 362.949005,415.961060 363.322296,415.967621 
	C365.098816,414.271790 366.502045,412.569397 367.905243,410.867004 
	C367.905243,410.867004 367.966492,410.905243 368.194153,410.808105 
	C368.590149,410.383667 368.758453,410.056396 368.926788,409.729095 
	C368.926788,409.729095 368.906921,409.307068 369.155060,409.116577 
	C369.403198,408.926056 369.855133,408.944305 370.247498,408.961914 
	C374.096588,408.443420 376.797607,407.251068 375.944275,402.634399 
	C376.099518,401.956726 376.204712,401.573395 376.309937,401.190063 
z"/>
<path fill="#AFA6B0" opacity="1.000000" stroke="none" 
	d="
M293.803284,513.666016 
	C294.866455,508.030701 296.263885,502.812164 296.959106,497.501709 
	C298.395111,486.532257 299.522217,475.520508 300.654785,464.513672 
	C301.855865,452.840485 303.030640,441.161407 303.912964,429.461975 
	C304.044403,427.719025 302.510101,425.850433 301.355347,423.940979 
	C301.361755,422.505798 301.759216,421.169617 302.420166,419.294800 
	C302.864899,418.221741 303.046143,417.687347 303.415466,416.957397 
	C303.951141,416.141388 304.298767,415.520874 304.709564,415.330627 
	C305.510620,418.819183 306.248505,421.877441 306.986359,424.935730 
	C305.018677,442.614563 303.046997,460.292908 301.084686,477.972351 
	C299.800323,489.544037 298.490936,501.113220 297.297546,512.694336 
	C297.133392,514.287476 297.253815,516.057129 297.784851,517.552490 
	C304.798615,537.304321 311.876587,557.033569 319.044006,576.730103 
	C319.819122,578.860168 321.253662,580.750305 322.659729,583.240479 
	C322.621857,584.485352 322.306580,585.241455 321.647644,586.002441 
	C320.845459,586.005188 320.386963,586.003052 319.928497,586.000916 
	C312.291321,565.151306 304.645050,544.304993 297.026764,523.448486 
	C295.890350,520.337341 294.885345,517.178162 293.803284,513.666016 
z"/>
<path fill="#ABACB6" opacity="1.000000" stroke="none" 
	d="
M346.974182,486.005798 
	C346.993744,487.065247 347.013306,488.124695 347.025391,490.012634 
	C348.345947,498.593170 349.673981,506.345215 351.001984,514.097290 
	C346.306580,528.281128 341.619812,542.467773 336.884460,556.638306 
	C336.691650,557.215271 336.040741,557.639099 335.255402,558.297180 
	C334.896454,557.050476 334.523895,555.525757 334.930725,554.249329 
	C338.606995,542.714172 342.738983,531.312622 346.024902,519.670837 
	C347.227020,515.411682 347.011536,510.567017 346.596954,506.067413 
	C344.161652,479.638489 341.476288,453.232666 338.877350,425.956360 
	C339.035919,423.676117 339.192352,422.258545 339.553345,420.877136 
	C339.757935,420.913239 340.162598,421.007111 340.162598,421.007111 
	C340.655243,422.471619 341.147888,423.936127 341.806580,426.012268 
	C341.986786,427.057404 342.001007,427.490936 341.750763,428.169800 
	C341.651062,429.944733 341.815765,431.474335 341.980530,433.003906 
	C342.000122,434.393402 342.019714,435.782898 342.032043,437.924255 
	C342.338470,439.460510 342.652222,440.244965 342.965973,441.029388 
	C342.978760,443.062256 342.991516,445.095123 342.998840,447.938660 
	C343.017456,449.498962 343.041534,450.248596 343.065613,450.998230 
	C343.385925,454.041412 343.706238,457.084564 344.019318,460.920197 
	C344.334564,462.810272 344.657043,463.907928 344.979523,465.005554 
	C345.005402,467.036346 345.031281,469.067108 345.068237,471.830627 
	C345.377808,473.044769 345.676300,473.526123 345.974792,474.007477 
	C345.988800,474.752350 346.002777,475.497223 346.010376,477.054047 
	C346.327393,480.579254 346.650787,483.292542 346.974182,486.005798 
z"/>
<path fill="#8EC5CC" opacity="1.000000" stroke="none" 
	d="
M380.635712,426.886658 
	C380.282684,425.600006 379.664978,423.890625 380.093201,422.504242 
	C382.434509,414.923645 385.115295,407.448151 387.473633,399.872467 
	C387.950775,398.339661 387.542633,396.531281 387.542633,394.552032 
	C384.201508,396.839966 381.397186,398.760284 378.366272,400.481689 
	C383.386047,395.143616 388.632416,390.004517 394.213959,384.853821 
	C389.984009,398.765839 385.418915,412.689392 380.635712,426.886658 
z"/>
<path fill="#8EC5CC" opacity="1.000000" stroke="none" 
	d="
M364.133423,475.676025 
	C363.405121,474.894470 362.192719,473.579315 362.472137,472.797089 
	C366.451233,461.658936 370.603088,450.581970 374.789520,439.519043 
	C375.602570,437.370453 376.740082,435.344635 378.070435,433.195374 
	C373.722992,447.215790 369.033020,461.303009 364.133423,475.676025 
z"/>
<path fill="#AC9EAC" opacity="1.000000" stroke="none" 
	d="
M321.991333,585.997559 
	C322.306580,585.241455 322.621857,584.485352 322.963501,583.421997 
	C325.861908,576.963318 328.688599,570.789795 331.642731,564.677917 
	C332.263031,563.394470 333.351990,562.337463 334.442444,561.009644 
	C332.315826,568.728455 329.971710,576.613708 327.011688,584.789673 
	C324.927612,585.386047 323.459442,585.691772 321.991333,585.997559 
z"/>
<path fill="#8EC5CC" opacity="1.000000" stroke="none" 
	d="
M351.243530,513.820190 
	C349.673981,506.345215 348.345947,498.593170 347.045471,490.409485 
	C348.046783,491.742371 349.537445,493.413330 349.877594,495.292542 
	C350.439362,498.395813 350.258423,501.633545 350.390503,504.814636 
	C350.815491,504.783691 351.240448,504.752747 351.665405,504.721802 
	C353.227112,501.856445 354.788788,498.991089 356.711548,496.076050 
	C355.210083,501.865265 353.347565,507.704193 351.243530,513.820190 
z"/>
<path fill="#8FB1BE" opacity="1.000000" stroke="none" 
	d="
M321.647614,586.002441 
	C323.459442,585.691772 324.927612,585.386047 326.773407,585.052856 
	C326.130859,588.491821 325.110687,591.958252 323.676605,596.831238 
	C322.115906,592.628967 321.028320,589.700623 319.934631,586.386597 
	C320.386963,586.003052 320.845459,586.005188 321.647614,586.002441 
z"/>
<path fill="#8EC5CC" opacity="1.000000" stroke="none" 
	d="
M357.457611,495.334717 
	C358.578583,490.788574 359.978363,485.967255 361.744385,481.096466 
	C360.652588,485.717865 359.194519,490.388702 357.457611,495.334717 
z"/>
<path fill="#8EC5CC" opacity="1.000000" stroke="none" 
	d="
M379.950867,428.742981 
	C379.712738,428.778809 379.575256,428.599243 379.490906,428.397461 
	C379.471161,428.350220 379.631165,428.227844 379.874268,428.076538 
	C380.050354,428.181854 380.060669,428.350677 379.950867,428.742981 
z"/>
<path fill="#FAE3E1" opacity="1.000000" stroke="none" 
	d="
M313.999451,386.370911 
	C315.002319,384.741150 316.012909,383.496796 316.972229,382.214020 
	C317.869263,381.014557 318.711914,379.774384 319.789703,378.273682 
	C320.421844,377.960052 320.842773,377.924896 321.784515,378.139587 
	C323.182281,378.597961 324.059235,378.806519 324.936188,379.015076 
	C326.860687,385.491699 328.785217,391.968292 330.183289,398.517517 
	C326.881897,392.434357 324.106934,386.278564 320.907867,379.181976 
	C318.076935,384.803802 315.732910,389.458710 312.993988,394.084991 
	C312.071899,394.035950 311.544708,394.015533 311.017517,393.995117 
	C312.006592,391.576599 312.995667,389.158051 313.999451,386.370911 
z"/>
<path fill="#F9ECE3" opacity="1.000000" stroke="none" 
	d="
M310.710571,394.155457 
	C311.544708,394.015533 312.071899,394.035950 312.930420,394.430145 
	C313.060760,395.224091 312.859772,395.644226 312.499603,396.203613 
	C312.159027,396.572632 312.060455,396.833710 312.008850,397.488495 
	C309.530701,403.534058 307.088531,409.217194 304.646362,414.900360 
	C304.298767,415.520874 303.951141,416.141388 303.128479,416.741882 
	C303.095642,414.808807 303.537842,412.895752 303.980072,410.982727 
	C306.121246,405.427094 308.262421,399.871429 310.710571,394.155457 
z"/>
<path fill="#F6F3F3" opacity="1.000000" stroke="none" 
	d="
M303.744385,410.830933 
	C303.537842,412.895752 303.095642,414.808807 302.940399,416.937378 
	C303.046143,417.687347 302.864899,418.221741 302.467041,418.942139 
	C299.579346,416.414246 298.751740,413.536224 301.666199,410.494995 
	C301.929565,410.220184 302.878235,410.602142 303.744385,410.830933 
z"/>
<path fill="#E5443D" opacity="1.000000" stroke="none" 
	d="
M304.709564,415.330627 
	C307.088531,409.217194 309.530701,403.534058 312.211853,397.382050 
	C312.695740,396.673248 312.765045,396.390320 312.658752,396.064362 
	C312.859772,395.644226 313.060760,395.224091 313.325317,394.458771 
	C315.732910,389.458710 318.076935,384.803802 320.907867,379.181976 
	C324.106934,386.278564 326.881897,392.434357 329.961975,398.780548 
	C330.385132,399.519836 330.503143,400.068695 330.862671,401.164734 
	C333.038147,405.817810 334.972076,409.923767 336.905975,414.029694 
	C337.021759,414.609222 337.137573,415.188751 337.493042,416.350830 
	C338.271393,418.235931 338.810089,419.538483 339.348816,420.841003 
	C339.192352,422.258545 339.035919,423.676117 338.781921,425.504211 
	C330.061890,426.584686 321.446228,427.414154 312.810852,427.787018 
	C311.126648,427.859772 309.365845,426.158875 307.313354,425.105896 
	C306.248505,421.877441 305.510620,418.819183 304.709564,415.330627 
z"/>
<path fill="#E3FAFA" opacity="1.000000" stroke="none" 
	d="
M342.015198,427.924438 
	C342.001007,427.490936 341.986786,427.057404 341.981750,426.298035 
	C350.294373,429.603760 345.224915,421.255402 348.091248,419.410217 
	C349.191742,420.077454 350.507965,420.875458 351.825256,421.666840 
	C353.329346,421.110077 354.832336,420.559967 356.601562,420.310547 
	C355.945831,421.750854 355.023895,422.890442 354.101959,424.030060 
	C353.739746,424.429871 353.377502,424.829651 352.672485,425.683624 
	C349.924927,428.069366 347.520142,430.000946 344.915283,432.093201 
	C343.841003,430.548920 342.928101,429.236694 342.015198,427.924438 
z"/>
<path fill="#F9ECE3" opacity="1.000000" stroke="none" 
	d="
M325.144531,378.748108 
	C324.059235,378.806519 323.182281,378.597961 322.099731,378.105591 
	C330.044373,372.619812 338.194672,367.417908 346.690735,362.230835 
	C345.152588,364.188354 343.508209,366.469391 341.337036,368.006256 
	C336.140900,371.684265 330.696838,375.012024 325.144531,378.748108 
z"/>
<path fill="#FAE3E1" opacity="1.000000" stroke="none" 
	d="
M337.192932,413.809265 
	C334.972076,409.923767 333.038147,405.817810 331.086121,401.345825 
	C335.145691,404.196075 337.577454,408.249359 337.192932,413.809265 
z"/>
<path fill="#F9ECE3" opacity="1.000000" stroke="none" 
	d="
M348.262268,361.943237 
	C351.335022,359.640289 354.816406,357.365570 358.647858,355.057495 
	C358.306519,361.429169 352.828430,360.718811 348.262268,361.943237 
z"/>
<path fill="#D9F4F8" opacity="1.000000" stroke="none" 
	d="
M369.855133,408.944305 
	C369.855133,408.944305 369.403198,408.926056 369.177582,408.906494 
	C368.991119,404.477203 371.181549,401.876678 375.913605,401.135193 
	C376.204712,401.573395 376.099518,401.956726 375.660400,402.792877 
	C373.502686,405.145233 371.678894,407.044769 369.855133,408.944305 
z"/>
<path fill="#8EC5CC" opacity="1.000000" stroke="none" 
	d="
M354.468506,424.013367 
	C355.023895,422.890442 355.945831,421.750854 356.971497,420.307129 
	C358.165924,419.025665 359.256622,418.048370 360.668762,417.038910 
	C361.442291,421.541473 358.755035,423.311798 354.468506,424.013367 
z"/>
<path fill="#FAE3E1" opacity="1.000000" stroke="none" 
	d="
M339.553375,420.877136 
	C338.810089,419.538483 338.271393,418.235931 337.674927,416.587372 
	C338.401276,415.336670 339.185425,414.431946 340.641022,412.752533 
	C340.641022,415.870392 340.641022,418.134644 340.401794,420.703003 
	C340.162598,421.007111 339.757935,420.913239 339.553375,420.877136 
z"/>
<path fill="#D9F4F8" opacity="1.000000" stroke="none" 
	d="
M361.942657,415.845367 
	C362.049042,412.849915 362.223236,409.910461 366.608582,410.873230 
	C365.471680,412.920746 364.210327,414.440918 362.949005,415.961060 
	C362.949005,415.961060 362.999481,415.997101 362.729309,415.953613 
	C362.286987,415.888550 362.114807,415.866943 361.942657,415.845367 
z"/>
<path fill="#8EC5CC" opacity="1.000000" stroke="none" 
	d="
M363.322296,415.967621 
	C364.210327,414.440918 365.471680,412.920746 366.864746,411.087036 
	C366.996521,410.773499 367.452942,410.809326 367.679077,410.838165 
	C366.502045,412.569397 365.098816,414.271790 363.322296,415.967621 
z"/>
<path fill="#8EC5CC" opacity="1.000000" stroke="none" 
	d="
M361.882141,416.112732 
	C362.114807,415.866943 362.286987,415.888550 362.719055,415.924347 
	C362.733917,416.221008 362.488861,416.503448 361.959045,416.847046 
	C361.723419,416.732147 361.772522,416.556122 361.882141,416.112732 
z"/>
<path fill="#8EC5CC" opacity="1.000000" stroke="none" 
	d="
M368.694031,409.877594 
	C368.758453,410.056396 368.590149,410.383667 368.168762,410.833771 
	C368.097565,410.646423 368.279449,410.336273 368.694031,409.877594 
z"/>
<path fill="#8EC5CC" opacity="1.000000" stroke="none" 
	d="
M341.750793,428.169800 
	C342.928101,429.236694 343.841003,430.548920 344.915283,432.093201 
	C347.520142,430.000946 349.924927,428.069366 352.623871,425.960449 
	C352.185577,430.493317 348.826965,432.893494 342.396667,433.004211 
	C341.815765,431.474335 341.651062,429.944733 341.750793,428.169800 
z"/>
<path fill="#8EC5CC" opacity="1.000000" stroke="none" 
	d="
M370.247498,408.961914 
	C371.678894,407.044769 373.502686,405.145233 375.610352,403.087219 
	C376.797607,407.251068 374.096588,408.443420 370.247498,408.961914 
z"/>
<path fill="#8EC5CC" opacity="1.000000" stroke="none" 
	d="
M347.235413,485.794189 
	C346.650787,483.292542 346.327393,480.579254 346.025024,477.426239 
	C350.087494,479.251434 346.582397,482.789917 347.235413,485.794189 
z"/>
<path fill="#8EC5CC" opacity="1.000000" stroke="none" 
	d="
M345.241394,464.783051 
	C344.657043,463.907928 344.334564,462.810272 344.034363,461.346527 
	C344.538818,462.173798 345.021027,463.367157 345.241394,464.783051 
z"/>
<path fill="#8EC5CC" opacity="1.000000" stroke="none" 
	d="
M346.198425,473.840118 
	C345.676300,473.526123 345.377808,473.044769 345.092102,472.264954 
	C345.543976,472.535278 345.983032,473.104034 346.198425,473.840118 
z"/>
<path fill="#8EC5CC" opacity="1.000000" stroke="none" 
	d="
M342.978516,440.693115 
	C342.652222,440.244965 342.338470,439.460510 342.048462,438.340820 
	C342.378510,438.789307 342.684784,439.573090 342.978516,440.693115 
z"/>
<path fill="#8EC5CC" opacity="1.000000" stroke="none" 
	d="
M343.296997,450.803528 
	C343.041534,450.248596 343.017456,449.498962 343.008850,448.374359 
	C343.192352,448.869202 343.360352,449.739014 343.296997,450.803528 
z"/>
<path fill="#FAE3E1" opacity="1.000000" stroke="none" 
	d="
M312.499603,396.203613 
	C312.765045,396.390320 312.695740,396.673248 312.247803,397.019623 
	C312.060455,396.833710 312.159027,396.572632 312.499603,396.203613 
z"/>
</svg>