<svg version="1.1" id="Layer_1" xmlns="http://www.w3.org/2000/svg" xmlns:xlink="http://www.w3.org/1999/xlink" x="0px" y="0px"
	 width="100%" viewBox="0 0 514 176" enable-background="new 0 0 514 176" xml:space="preserve">
<path fill="#FCFDFC" opacity="1.000000" stroke="none" 
	d="
M515.000000,44.000000 
	C515.000000,88.310898 515.000000,132.621796 515.000000,176.966339 
	C343.775818,176.966339 172.551605,176.966339 1.163705,176.966339 
	C1.163705,118.333672 1.163705,59.666897 1.163705,1.000000 
	C14.743076,1.000000 28.402880,1.000000 42.819237,1.362760 
	C41.743473,9.495182 39.911160,17.264845 37.779797,24.909004 
	C36.749157,24.805714 36.017574,24.827927 35.285988,24.850140 
	C35.844894,25.896671 36.403801,26.943205 36.964699,28.349953 
	C36.776264,29.392408 36.585835,30.074652 36.557487,30.176201 
	C40.530399,29.726103 44.489624,29.277555 48.856819,28.884932 
	C49.812363,28.962244 50.359940,28.983635 51.040352,29.442162 
	C50.756947,33.585072 50.340702,37.290844 49.611797,41.050339 
	C49.375923,41.788105 49.452709,42.472153 49.457565,43.494743 
	C49.107964,44.941856 48.830288,46.050434 48.057434,47.111435 
	C47.230629,47.067272 46.899002,47.070675 46.343662,46.926842 
	C45.763466,46.180805 45.406986,45.582008 45.302498,44.773224 
	C45.788288,43.457909 46.022087,42.352585 46.312004,40.981964 
	C44.547466,40.981964 43.299126,40.981964 41.810783,40.793270 
	C40.714462,39.736385 39.858139,38.868198 38.980835,37.721916 
	C38.640938,37.320446 38.322025,37.197075 37.794441,36.937477 
	C37.585770,36.801254 37.095303,36.712688 36.889393,36.443359 
	C35.791588,36.064861 34.899689,35.955696 34.035713,35.537449 
	C35.048820,31.952093 32.450542,33.324852 31.053406,32.594795 
	C27.675688,26.954247 31.664145,23.232933 33.561077,18.991808 
	C34.383190,17.153736 35.279041,13.544366 34.669643,13.176296 
	C31.711836,11.389823 27.834785,8.803433 25.063465,9.519520 
	C19.509653,10.954584 14.463762,14.355348 8.987291,17.053493 
	C13.718901,25.173569 19.359020,15.080726 25.148716,17.739592 
	C24.366966,21.493992 24.836494,27.242823 22.406036,29.015434 
	C18.855696,31.604818 13.223235,31.339378 8.302949,32.325958 
	C8.332279,32.391117 8.619778,33.110157 8.970595,33.796852 
	C12.992866,41.670063 11.466214,49.902355 9.153696,57.546154 
	C7.170196,64.102417 6.425594,64.935150 11.644094,68.994026 
	C17.981363,63.425774 24.333532,57.844429 30.685701,52.263081 
	C30.306992,51.761681 29.928280,51.260281 29.549568,50.758881 
	C25.861485,52.333405 22.173403,53.907928 18.365194,55.533737 
	C18.365194,52.043247 18.334211,49.082382 18.370815,46.122349 
	C18.497059,35.913445 18.505981,35.913116 28.707056,34.538918 
	C28.868755,34.517128 29.038513,34.555164 29.635349,34.718426 
	C30.770252,35.377945 31.474316,35.884327 32.163780,36.690056 
	C32.431248,37.685898 32.713314,38.382393 32.999897,39.443539 
	C33.583271,41.028408 34.162125,42.248623 34.740982,43.468842 
	C35.232700,42.805855 35.724419,42.142868 36.518490,41.652779 
	C38.899429,44.724087 40.564194,48.091133 43.170170,50.392296 
	C45.909466,52.811195 44.118397,54.066109 42.626484,55.909126 
	C41.805901,56.649353 41.275944,57.273335 40.402412,57.932674 
	C36.942608,60.044800 33.826382,62.121571 30.710152,64.198341 
	C38.102581,65.751129 43.069489,61.387634 47.940166,58.823380 
	C52.456360,62.870316 56.149387,68.520378 61.060951,69.932663 
	C66.128868,71.389893 72.382301,68.724167 78.117081,67.862228 
	C78.069946,67.403778 78.022812,66.945328 77.975677,66.486870 
	C69.557854,62.475578 61.140030,58.464279 53.157730,54.660519 
	C55.536594,47.268330 57.741104,41.201599 59.368690,34.983849 
	C60.042366,32.410248 59.480415,29.513199 59.480415,26.102421 
	C60.265209,25.962782 62.547112,25.761461 64.684853,25.096598 
	C65.891266,24.721388 67.736610,23.577160 67.731232,22.790030 
	C67.723129,21.606182 66.448051,19.522812 65.530045,19.418404 
	C62.387894,19.061037 59.042351,18.880735 56.007366,19.606794 
	C52.347527,20.482338 48.925625,22.352505 44.288086,24.246557 
	C46.696827,19.470690 48.507919,15.976057 50.232796,12.439376 
	C53.598385,5.538578 53.578415,5.528838 48.000000,1.000000 
	C102.354225,1.000000 156.708450,1.000000 211.376373,1.343939 
	C208.587326,2.711410 205.484619,3.734942 202.381897,4.758473 
	C202.146225,5.146730 201.910568,5.534986 201.674896,5.923243 
	C219.485474,14.382181 220.113556,33.090679 229.408127,48.171570 
	C223.613129,48.171570 219.424103,48.171570 215.609863,48.171570 
	C217.835022,67.549995 201.900223,77.819130 195.642899,93.285454 
	C185.504410,87.890259 176.064926,83.051781 166.831635,77.847481 
	C163.837204,76.159676 161.451126,73.423172 158.667435,71.324669 
	C152.335190,66.551071 145.936752,61.865025 139.544983,57.170948 
	C138.511551,56.412010 137.374146,55.794685 135.861237,54.846409 
	C147.175659,44.433590 158.811356,35.268902 172.230270,28.552988 
	C180.113358,24.607658 181.384903,18.874268 175.549515,12.213957 
	C173.149536,9.474689 170.411118,7.026134 167.765854,4.509234 
	C165.109024,1.981333 162.324936,1.545852 160.093918,4.554574 
	C159.613861,7.644263 159.294418,11.136806 157.414856,13.225264 
	C148.300430,23.352604 138.780243,33.115437 129.367004,42.972275 
	C128.160751,44.235371 126.739555,45.293198 125.483200,46.389168 
	C119.681885,40.627705 122.172493,30.653374 111.893929,27.423800 
	C97.678917,22.957386 96.026741,21.722250 88.605881,26.275606 
	C91.772224,29.201527 94.672554,32.106228 97.809570,34.727695 
	C102.489594,38.638607 106.984940,42.799675 107.904030,49.097610 
	C109.708305,61.461246 110.716492,73.860680 108.595535,86.365250 
	C108.069557,89.466316 108.213043,93.322052 109.661446,95.937981 
	C111.132912,98.595551 114.596680,100.150009 117.187973,102.187546 
	C118.787971,99.302597 121.352959,96.555595 121.789139,93.504288 
	C122.726395,86.947647 122.488556,80.229362 122.898560,73.587555 
	C123.040970,71.280617 123.675583,69.004066 124.148804,66.359200 
	C136.575912,71.766144 147.556015,77.616669 156.033844,87.530663 
	C173.949600,108.481415 196.127594,119.437927 224.289581,115.497681 
	C226.593155,115.175385 228.802155,114.177216 231.430878,113.378990 
	C227.165314,105.162445 218.185333,105.544540 213.146790,100.804024 
	C216.618484,95.310249 220.025558,89.918732 223.604004,84.256020 
	C229.124527,88.233292 234.090668,87.098816 239.248535,84.036469 
	C243.649902,81.423294 246.942627,82.646652 248.814804,87.332291 
	C249.907166,90.066231 250.507141,93.038437 251.010056,95.958313 
	C252.330627,103.625717 256.383362,106.600784 264.559601,105.326996 
	C262.968903,100.737686 261.348358,96.228371 259.844421,91.680481 
	C258.037384,86.215950 258.406097,85.576126 263.994446,84.429588 
	C265.444702,84.132042 267.007324,84.356300 268.443237,84.020134 
	C271.047546,83.410446 273.595490,82.559868 276.166962,81.809837 
	C276.276093,81.061691 276.385223,80.313538 276.494354,79.565384 
	C273.264984,78.037796 270.167664,75.961449 266.767578,75.143173 
	C263.621063,74.385925 260.064911,74.502068 256.843201,75.084984 
	C252.277100,75.911148 250.483887,73.967064 249.071793,69.978043 
	C242.877701,52.480389 236.276093,35.126411 230.142319,17.608261 
	C227.397675,9.769449 223.451767,3.438134 215.000000,1.000000 
	C307.687561,1.000000 400.375122,1.000000 493.517151,1.217114 
	C493.971588,1.434229 493.963989,1.869320 493.823181,2.264848 
	C501.502625,23.230785 496.318573,44.553097 498.623077,65.442421 
	C498.074005,65.623825 497.524902,65.805222 496.975830,65.986618 
	C495.025848,64.556427 493.075836,63.126228 491.001373,61.392330 
	C486.318481,56.972763 481.170502,53.337902 477.332733,48.634083 
	C470.726898,40.537537 464.106018,32.996273 452.794708,32.108299 
	C452.649353,32.096886 452.515778,31.935440 452.205688,31.513479 
	C450.689117,30.688705 449.343567,30.194475 447.854858,29.492123 
	C447.384552,29.249384 447.057404,29.214767 446.452393,29.096146 
	C445.990814,29.072933 445.807098,29.133728 445.284485,29.030983 
	C441.975098,28.545378 439.004578,28.223314 435.662903,27.717825 
	C427.572815,27.159433 419.853943,26.784468 411.800232,26.317902 
	C410.309814,26.225584 409.154175,26.224865 407.565857,26.116182 
	C398.805237,25.322519 390.477264,24.636820 381.788177,23.921387 
	C382.673370,27.156818 383.427521,29.913158 384.408386,33.498272 
	C382.690063,32.551460 381.765198,32.181671 381.003113,31.599005 
	C376.417267,28.092762 371.912994,27.385981 366.872406,31.010756 
	C365.113647,32.275520 362.505676,32.755840 360.249268,32.868420 
	C344.228912,33.667740 329.509979,42.400921 311.919434,40.013309 
	C313.518646,42.864693 314.217438,45.257591 315.793274,46.676270 
	C318.863739,49.440506 322.295959,51.866344 325.810303,54.060936 
	C333.307678,58.742836 334.328735,58.438267 339.329865,51.178032 
	C343.072083,45.745373 351.896759,41.599873 357.633667,42.727707 
	C349.196320,56.620697 340.035339,69.814140 327.998230,80.818306 
	C323.306915,85.107040 318.718292,89.379303 312.010773,90.293816 
	C311.104401,90.417397 309.582550,92.287552 309.649048,92.376686 
	C311.673981,95.091064 313.647614,97.922325 316.142151,100.164864 
	C317.010193,100.945229 319.376465,100.625435 320.800537,100.103851 
	C323.840485,98.990440 326.685455,96.327782 329.657715,96.255737 
	C336.083099,96.100006 342.715424,96.420746 348.949768,97.882675 
	C372.050751,103.299751 391.399963,116.363968 410.522064,129.587753 
	C416.961853,134.041153 423.046570,138.183105 431.363129,137.062256 
	C434.145508,136.687256 437.081665,137.379135 439.842834,136.933990 
	C449.140167,135.435059 458.438080,133.857880 467.623871,131.809021 
	C469.827515,131.317520 471.598541,128.886551 473.568542,127.347534 
	C473.283142,126.895248 472.997742,126.442963 472.712341,125.990677 
	C469.065857,125.990677 465.409882,126.162102 461.774445,125.961716 
	C443.711884,124.966072 426.143433,121.759071 409.899750,113.360062 
	C400.307709,108.400352 390.987030,102.913147 381.367889,98.009224 
	C367.528168,90.953621 353.340820,84.925148 337.260742,85.747253 
	C335.994232,85.812012 334.688293,85.104263 333.400665,84.755539 
	C333.047241,84.170822 332.693787,83.586105 332.340363,83.001396 
	C339.415283,76.490753 346.142792,69.542656 353.652161,63.579098 
	C363.253387,55.954327 373.545197,49.204124 383.388947,41.874969 
	C385.129608,40.578972 386.134735,38.295105 387.793243,36.041042 
	C390.191284,37.050770 393.249664,38.854668 396.546265,39.589256 
	C400.241241,40.412609 402.329559,42.098530 402.688477,45.892349 
	C402.693726,45.931358 402.731964,46.000183 402.676514,46.364174 
	C402.496246,48.915962 402.371490,51.103760 402.173096,53.507935 
	C402.039337,54.035793 402.078979,54.334000 402.110779,54.957497 
	C401.979858,56.626343 402.003113,57.959335 401.925903,59.286491 
	C401.260986,70.719193 400.171417,82.145355 400.017242,93.584373 
	C399.869995,104.510765 411.252106,111.594315 420.924408,106.935455 
	C431.731964,101.729767 442.874908,98.531082 455.387756,99.952744 
	C459.113953,100.918098 462.457947,101.759506 465.789307,102.648346 
	C471.548889,104.185081 474.999969,101.704666 475.023407,95.948853 
	C475.041626,91.474152 474.577576,86.945641 475.115356,82.537102 
	C475.912750,75.999992 477.406769,69.547859 478.696320,62.560692 
	C480.828918,63.890495 481.793030,64.491676 482.881165,65.387878 
	C483.793915,66.377121 484.582672,67.071335 485.384521,67.760658 
	C485.397614,67.755768 485.381866,67.782814 485.540405,68.006569 
	C487.876495,70.274986 489.963013,72.428436 492.250122,74.342178 
	C497.340973,78.601974 499.278015,83.789543 499.011597,90.550781 
	C498.627777,100.291893 499.277771,110.073753 499.484619,119.747581 
	C504.200684,120.779167 505.484344,118.211632 505.916351,115.315704 
	C507.406708,105.324974 509.050903,95.332718 509.915283,85.279030 
	C511.095581,71.550987 511.614441,57.766079 512.739746,44.008736 
	C513.708435,44.007954 514.354187,44.003975 515.000000,44.000000 
M393.034729,172.715851 
	C393.366425,173.354187 393.698090,173.992508 394.782806,174.987732 
	C396.117920,174.015213 398.279907,173.284271 398.646667,172.028824 
	C400.338135,166.239105 401.529541,160.303284 403.184845,153.198196 
	C401.247528,154.249680 400.111420,154.866272 398.663208,156.027054 
	C398.450684,157.317230 398.238129,158.607422 397.836548,160.026978 
	C397.836548,160.026978 397.926453,160.237640 397.507996,160.713501 
	C397.311646,161.762558 397.115295,162.811615 396.273407,164.114517 
	C395.615570,163.679276 394.548859,163.370102 394.369202,162.787415 
	C393.498230,159.962799 392.865295,157.064804 391.933136,153.332382 
	C390.059357,154.154938 388.517517,154.831772 386.673859,155.994568 
	C386.493530,156.939133 386.313171,157.883698 385.899384,159.130554 
	C385.899384,159.130554 385.977081,159.504486 385.672577,159.998917 
	C385.469543,160.958755 385.266510,161.918594 384.855316,163.158859 
	C384.855316,163.158859 384.972473,163.487869 384.568146,163.950668 
	C384.362427,164.984879 384.156738,166.019089 383.406281,167.162552 
	C382.181671,162.772659 380.957062,158.382767 379.780792,154.166046 
	C372.858612,154.166046 366.403168,154.166046 359.900940,154.166046 
	C358.310699,160.449524 364.113647,156.663803 366.025513,159.162216 
	C366.025513,164.016525 366.025513,169.431198 366.025513,174.891113 
	C367.265045,174.891113 368.785889,174.969177 368.795746,174.879959 
	C369.413666,169.298798 369.908295,163.703995 370.412689,158.126938 
	C372.353027,158.033112 374.177002,157.944916 376.568237,158.109970 
	C377.020111,158.990646 377.471985,159.871323 377.831573,160.969208 
	C377.831573,160.969208 378.026703,161.101959 377.933380,161.753906 
	C378.264526,162.757004 378.595703,163.760101 378.837585,164.972336 
	C378.837585,164.972336 379.025208,165.100769 378.931274,165.752060 
	C379.262817,166.753220 379.594360,167.754395 379.834015,168.970169 
	C379.834015,168.970169 380.026703,169.102005 379.932800,169.746307 
	C380.254974,170.728897 380.577179,171.711487 380.918213,173.539764 
	C383.049164,176.110794 384.923523,176.236801 385.935883,172.733948 
	C387.062256,168.836823 387.911163,164.859512 389.515350,160.680069 
	C390.000946,161.623703 390.486542,162.567337 390.855194,163.840256 
	C390.855194,163.840256 391.063416,164.120850 390.965851,164.733795 
	C391.301544,165.660843 391.637268,166.587875 391.855408,167.841751 
	C391.855408,167.841751 392.063293,168.120056 391.964355,168.722321 
	C392.302155,169.647614 392.639954,170.572906 392.897766,171.862305 
	C392.897766,171.862305 393.129395,172.154358 393.034729,172.715851 
M22.668707,133.740692 
	C24.159124,136.826675 25.649544,139.912659 26.626312,143.710098 
	C18.478666,144.143478 10.331021,144.576859 1.901743,145.025223 
	C5.807890,152.529343 6.089969,152.553833 13.248218,151.135956 
	C31.080940,147.603699 49.032455,145.868469 67.220284,147.814224 
	C70.121613,148.124603 73.084694,147.857742 75.991898,147.857742 
	C76.222412,142.443405 73.178986,138.911026 68.179001,139.033722 
	C64.228035,139.130676 60.293339,139.890884 55.927124,139.934525 
	C55.780331,139.799469 55.633533,139.664398 55.901661,139.007248 
	C57.459244,137.858551 59.016827,136.709854 61.304115,135.023010 
	C58.089588,133.325745 56.277580,132.369003 54.342262,131.347153 
	C56.281273,130.590607 58.186310,129.847336 60.800598,128.827316 
	C56.220028,120.370140 48.593655,126.854568 41.787228,123.984467 
	C45.054947,119.250443 50.499046,121.451248 54.082195,119.319031 
	C53.684128,114.457161 50.094452,114.899124 46.800850,115.276260 
	C43.715912,115.629509 42.401718,114.784073 43.326290,111.412552 
	C46.518597,110.946098 49.622971,110.489235 52.728420,110.039780 
	C55.093140,109.697533 58.655029,110.073669 57.692245,106.460884 
	C57.309467,105.024521 53.561615,103.489777 51.500507,103.679665 
	C44.928329,104.285149 38.437790,105.737648 31.897490,106.744568 
	C28.548914,107.260109 25.161510,107.523430 21.209053,107.965958 
	C24.253239,113.896408 29.249041,112.269791 33.760811,113.077438 
	C33.857834,114.353966 33.962780,115.734756 34.056644,116.969765 
	C32.003990,117.306641 30.311739,117.385269 28.769798,117.907608 
	C27.746582,118.254234 26.938461,119.235802 26.034056,119.933144 
	C27.089310,120.708130 28.051718,121.897903 29.221819,122.159821 
	C30.930103,122.542206 32.787579,122.258110 34.926933,122.258110 
	C35.459988,128.191681 30.578876,125.611496 28.310427,126.351051 
	C25.373747,127.308464 22.119623,127.292160 17.659561,127.868622 
	C19.919085,130.020950 20.959558,131.012054 22.146084,132.421814 
	C22.282558,132.711517 22.507647,132.888565 22.668707,133.740692 
M50.466511,172.155914 
	C52.557068,172.035721 54.647625,171.915527 57.376488,171.758621 
	C54.289722,166.669846 57.287083,163.545898 59.569893,160.067184 
	C60.280483,158.984344 60.471504,156.252121 59.835178,155.810745 
	C56.282879,153.346863 53.010944,150.242569 47.766880,151.729767 
	C43.027100,153.073959 37.999516,153.575195 33.060345,153.992233 
	C28.810863,154.351059 24.507069,154.066635 20.338182,154.066635 
	C22.358278,161.393600 24.397209,168.788879 26.543100,176.572098 
	C34.249432,170.487823 42.241261,173.398743 50.466511,172.155914 
M294.873138,104.925003 
	C295.848389,95.043968 297.337097,85.171104 297.494659,75.277046 
	C297.543671,72.198311 294.487762,68.544395 291.946960,66.093216 
	C289.229858,63.471970 285.485413,61.626350 282.536377,63.721752 
	C283.851349,67.455498 285.604004,70.640762 286.027649,73.993935 
	C287.024109,81.880516 287.179352,89.871246 288.095673,97.771034 
	C288.524628,101.469101 289.501465,105.407547 294.873138,104.925003 
M301.002960,159.605942 
	C301.002960,164.574463 301.002960,169.542969 301.002960,174.477356 
	C304.554199,174.771484 304.554199,174.771484 305.295502,166.249283 
	C310.034210,165.226181 310.534454,169.795258 312.887115,171.923691 
	C314.509186,173.391159 316.512207,174.437500 318.344971,175.672058 
	C318.708740,175.206100 319.072540,174.740143 319.436310,174.274170 
	C317.427673,171.270615 315.419067,168.267075 313.429993,165.292755 
	C316.807983,164.336304 318.743500,162.076767 317.869019,158.339081 
	C317.041656,154.802902 314.158905,153.973557 310.915466,153.982513 
	C307.783966,153.991150 304.652405,153.984375 301.002960,153.984375 
	C301.002960,155.756149 301.002960,157.195007 301.002960,159.605942 
M444.506500,175.004837 
	C445.336548,174.154556 446.705933,173.403473 446.884308,172.433380 
	C447.255676,170.413864 446.996613,168.278442 446.996613,166.245728 
	C454.604675,164.937683 453.255035,177.187103 461.607452,174.573669 
	C459.466187,171.358917 457.464905,168.354385 455.451691,165.331894 
	C458.692230,164.327621 460.728271,162.157867 459.895447,158.432144 
	C459.101166,154.878586 456.263092,153.987244 453.008179,153.984848 
	C449.740448,153.982437 446.472717,153.984314 443.587036,153.984314 
	C443.587036,161.370193 443.587036,168.120895 444.506500,175.004837 
M246.190689,168.026443 
	C246.417450,168.734726 246.644211,169.443008 246.870972,170.151306 
	C243.958130,169.783188 239.651001,170.416077 238.485901,168.793198 
	C237.034256,166.771179 237.125443,162.285934 238.460815,159.962143 
	C240.126709,157.063187 243.746140,157.364288 246.875076,159.304794 
	C248.105118,160.067612 249.839966,160.016449 252.219131,160.521576 
	C248.728485,154.212051 243.941650,152.582092 238.526062,154.822998 
	C233.198349,157.027557 230.973328,162.560852 233.012177,168.535217 
	C234.656830,173.354492 240.147110,176.070511 245.614029,174.769363 
	C251.702621,173.320221 252.555023,171.819031 251.516220,164.203522 
	C248.774948,164.203522 246.017731,164.203522 243.260513,164.203522 
	C242.982086,164.563599 242.703644,164.923660 242.425217,165.283737 
	C243.394363,166.196503 244.363525,167.109268 246.190689,168.026443 
M228.762558,160.624695 
	C227.817245,158.408646 231.032883,153.649338 224.490753,154.061234 
	C224.490753,158.457092 224.490753,162.397034 224.490753,166.431076 
	C219.398453,162.974335 220.149078,154.486511 212.190872,153.818863 
	C212.190872,161.113129 212.190872,167.862701 212.190872,174.912018 
	C213.325287,174.912018 215.094162,175.023392 215.111557,174.895859 
	C215.650787,170.942719 216.018799,166.966232 216.404556,163.080063 
	C221.409348,165.774719 220.290741,175.020859 228.762558,175.050919 
	C228.762558,170.197250 228.762558,165.895508 228.762558,160.624695 
M144.366638,162.082016 
	C143.782104,167.018051 144.415619,171.482819 149.422379,173.996674 
	C154.560059,176.576279 160.955002,174.395889 162.966949,169.487762 
	C165.404785,163.540695 163.024231,156.728073 157.796692,154.691589 
	C151.957428,152.416809 146.786835,155.005554 144.366638,162.082016 
M288.791290,48.570942 
	C291.506256,46.213943 294.410706,44.028652 296.807312,41.383240 
	C297.432495,40.693165 297.004303,37.980148 296.148499,37.213062 
	C293.341949,34.697525 290.285492,32.329250 286.969788,30.576441 
	C285.597778,29.851137 282.971008,30.290987 281.576874,31.207720 
	C280.509125,31.909847 279.927521,34.252350 280.089783,35.762070 
	C280.672577,41.185112 283.913055,45.084709 288.791290,48.570942 
M328.702728,166.010666 
	C330.198212,166.010483 331.710022,165.868454 333.185852,166.038635 
	C336.613373,166.433945 336.513031,164.628281 335.885040,161.988983 
	C333.557739,161.988983 331.410095,161.856461 329.285095,162.019348 
	C325.907043,162.278275 325.361115,160.891693 326.463013,158.153412 
	C337.076965,157.734955 337.076965,157.734955 336.427704,154.317886 
	C331.666473,154.317886 326.934814,154.317886 322.334167,154.317886 
	C322.334167,161.368332 322.334167,168.086044 322.334167,175.009384 
	C326.794342,175.009384 330.947601,175.199387 335.061615,174.881851 
	C336.151703,174.797699 337.121277,173.151978 338.146179,172.223267 
	C337.822205,171.798981 337.498199,171.374695 337.174225,170.950409 
	C333.574738,170.950409 329.975281,170.950409 325.054077,170.950409 
	C326.239563,168.796692 327.004913,167.406296 328.702728,166.010666 
M117.378815,153.989777 
	C113.966797,153.989777 110.554787,153.989777 107.357864,153.989777 
	C107.357864,161.419540 107.357864,168.137451 107.357864,175.009705 
	C111.682816,175.009705 115.664955,174.894470 119.636887,175.046249 
	C122.801361,175.167191 123.264526,173.831085 122.189659,170.911087 
	C118.518631,170.911087 114.919670,170.911087 111.213989,170.911087 
	C111.213989,169.153687 111.213989,167.763748 111.213989,166.038513 
	C114.532028,166.038513 117.634773,166.038513 120.901955,166.038513 
	C120.901955,164.530518 120.901955,163.365036 120.901955,161.869598 
	C117.487907,161.869598 114.383347,161.869598 110.400162,161.869598 
	C112.768776,154.933395 118.613831,159.878586 121.855263,157.372314 
	C123.120316,154.013428 120.952408,153.789780 117.378815,153.989777 
M275.478058,169.442322 
	C272.804565,171.729202 270.290253,171.711182 267.537964,169.354691 
	C266.485626,168.453690 264.767090,168.330811 262.736328,167.645538 
	C264.117676,173.219742 267.098816,174.992828 271.397827,175.021042 
	C275.418976,175.047440 278.860168,173.807846 279.562256,169.444641 
	C280.246857,165.190094 277.192657,163.280228 273.626801,162.115540 
	C271.691162,161.483322 269.747192,160.876678 267.417816,160.134491 
	C271.469635,154.864334 275.231567,161.872696 278.932404,159.392441 
	C277.477844,154.386703 273.635223,153.196579 269.563232,154.255203 
	C267.380524,154.822632 264.518890,157.349640 264.146790,159.390427 
	C263.283234,164.126648 267.511200,164.994614 271.061584,166.116898 
	C272.692810,166.632553 274.134338,167.748413 275.478058,169.442322 
M412.654419,158.011261 
	C415.096130,158.011261 417.537872,158.011261 420.017120,158.011261 
	C419.671021,153.583572 415.081177,152.696701 405.300140,154.576904 
	C405.300140,161.303085 405.300140,168.018356 405.300140,174.777618 
	C410.518311,174.777618 415.439697,174.777618 420.352570,174.777618 
	C420.406464,171.751846 420.406464,171.751846 409.352020,170.627884 
	C409.352020,169.138489 409.352020,167.651413 409.352020,165.840881 
	C412.817261,165.840881 415.921936,165.840881 418.961670,165.840881 
	C418.961670,164.423309 418.961670,163.355286 418.961670,161.949966 
	C415.612610,161.949966 412.507599,161.949966 409.402588,161.949966 
	C409.114838,161.509628 408.827087,161.069275 408.539337,160.628937 
	C409.600281,159.756653 410.661194,158.884369 412.654419,158.011261 
M341.009064,167.441681 
	C341.009064,169.867920 341.009064,172.294159 341.009064,174.658417 
	C355.310669,175.938522 356.502319,175.669525 356.234955,170.879028 
	C352.537537,170.879028 348.802460,170.879028 344.850983,170.879028 
	C345.037750,168.946411 345.172485,167.551941 345.335632,165.863800 
	C348.785278,165.863800 351.888367,165.863800 354.979736,165.863800 
	C354.979736,164.454849 354.979736,163.381119 354.979736,162.333176 
	C345.043304,161.426743 345.043304,161.426743 345.781708,157.802643 
	C349.132355,157.802643 352.560516,157.802643 356.006317,157.802643 
	C355.668427,153.588028 351.042786,152.695526 341.008881,154.636475 
	C341.008881,158.542923 341.008881,162.503067 341.009064,167.441681 
M437.731201,175.004959 
	C438.783661,174.891373 439.836151,174.777802 440.998749,174.652328 
	C438.878540,168.541000 436.980530,162.732773 434.793854,157.035294 
	C434.323517,155.809845 432.858459,154.261230 431.763733,154.188751 
	C430.770477,154.122986 429.155396,155.664276 428.682343,156.844818 
	C426.350067,162.665100 424.306427,168.601013 422.165466,174.483795 
	C427.005493,176.850342 426.583130,172.254272 427.911682,170.176025 
	C430.360321,170.176025 432.655182,170.176025 434.957916,170.176025 
	C435.656555,171.786621 436.301941,173.274536 437.731201,175.004959 
M189.875534,161.502823 
	C189.044128,159.024139 188.212723,156.545456 187.340073,153.943817 
	C185.823746,154.052811 184.541168,154.145004 183.092377,154.249146 
	C185.437912,161.259354 187.697144,168.011627 189.926941,174.675888 
	C194.385727,175.003433 194.412369,175.013107 195.609039,171.714539 
	C197.691315,165.974747 199.737076,160.221695 201.798157,154.474213 
	C201.334381,154.189621 200.870621,153.905045 200.406845,153.620468 
	C194.508789,156.574524 195.890015,164.197739 192.263824,169.028244 
	C191.492203,166.650269 190.782074,164.461838 189.875534,161.502823 
M130.119354,172.477020 
	C131.284042,173.325867 132.417160,174.762741 133.623962,174.827591 
	C134.504700,174.874893 135.898697,173.277786 136.347046,172.132980 
	C138.632141,166.298508 140.683914,160.372650 143.210159,153.393555 
	C134.428024,155.877304 137.721710,164.725586 133.172318,168.702042 
	C132.178497,165.688065 131.129272,162.562088 130.117096,159.424164 
	C128.291702,153.765182 128.300949,153.762207 124.242699,154.705170 
	C126.137367,160.375565 128.029907,166.039612 130.119354,172.477020 
M296.300751,158.021408 
	C297.304321,157.061249 298.307861,156.101105 299.311432,155.140945 
	C298.979553,154.810715 298.647644,154.480469 298.315765,154.150238 
	C293.213623,154.150238 288.111511,154.150238 282.981171,154.150238 
	C281.191986,160.527603 287.073059,156.658768 288.969757,159.097382 
	C288.969757,163.951508 288.969757,169.359039 288.969757,174.766571 
	C289.475342,175.011490 289.980927,175.256409 290.486511,175.501328 
	C291.284760,174.335297 292.667450,173.218811 292.771332,171.993896 
	C293.079010,168.366730 292.696564,164.681427 292.996826,161.053009 
	C293.085205,159.984497 294.547211,159.029678 296.300751,158.021408 
M167.724411,174.944626 
	C172.481827,174.944626 177.239258,174.944626 182.867004,174.944626 
	C180.277435,168.095398 174.436432,172.867706 170.985825,170.220016 
	C170.985825,166.003845 170.829605,161.554596 171.038345,157.122528 
	C171.188370,153.937164 169.861160,153.495316 167.052063,154.401779 
	C167.052063,161.052032 167.052063,167.651825 167.724411,174.944626 
M53.946194,98.528534 
	C55.775043,97.512894 57.603893,96.497253 59.432743,95.481613 
	C59.572739,94.969543 59.712730,94.457474 59.852726,93.945404 
	C56.316654,92.329201 52.780582,90.712997 50.281372,89.570702 
	C47.382000,94.913094 45.166656,98.995087 42.698799,103.542366 
	C46.289143,101.961075 49.789391,100.419456 53.946194,98.528534 
M208.013733,168.402252 
	C208.013733,163.766968 208.013733,159.131668 208.013733,154.496384 
	C207.609146,154.168076 207.204575,153.839783 206.799988,153.511475 
	C205.862503,154.547623 204.161972,155.549866 204.114166,156.625549 
	C203.849625,162.579468 203.987503,168.551239 203.987503,174.482208 
	C208.002380,174.828415 208.002380,174.828415 208.013733,168.402252 
M33.024563,97.589096 
	C30.533041,96.146721 28.041517,94.704346 25.549995,93.261971 
	C25.081493,93.796982 24.612991,94.331993 24.144489,94.867004 
	C26.023392,98.065605 27.902294,101.264198 29.781197,104.462799 
	C30.508942,104.419540 31.236689,104.376274 31.964434,104.333015 
	C32.467602,102.291992 32.970772,100.250969 33.024563,97.589096 
M30.085754,64.068428 
	C29.133039,64.472328 28.180323,64.876236 27.227606,65.280144 
	C27.396578,65.627388 27.565548,65.974640 27.734520,66.321884 
	C28.746254,65.767670 29.757990,65.213448 30.085754,64.068428 
z"/>
<path fill="#252324" opacity="1.000000" stroke="none" 
	d="
M214.625000,1.000000 
	C223.451767,3.438134 227.397675,9.769449 230.142319,17.608261 
	C236.276093,35.126411 242.877701,52.480389 249.071793,69.978043 
	C250.483887,73.967064 252.277100,75.911148 256.843201,75.084984 
	C260.064911,74.502068 263.621063,74.385925 266.767578,75.143173 
	C270.167664,75.961449 273.264984,78.037796 276.494354,79.565384 
	C276.385223,80.313538 276.276093,81.061691 276.166962,81.809837 
	C273.595490,82.559868 271.047546,83.410446 268.443237,84.020134 
	C267.007324,84.356300 265.444702,84.132042 263.994446,84.429588 
	C258.406097,85.576126 258.037384,86.215950 259.844421,91.680481 
	C261.348358,96.228371 262.968903,100.737686 264.559601,105.326996 
	C256.383362,106.600784 252.330627,103.625717 251.010056,95.958313 
	C250.507141,93.038437 249.907166,90.066231 248.814804,87.332291 
	C246.942627,82.646652 243.649902,81.423294 239.248535,84.036469 
	C234.090668,87.098816 229.124527,88.233292 223.604004,84.256020 
	C220.025558,89.918732 216.618484,95.310249 213.146790,100.804024 
	C218.185333,105.544540 227.165314,105.162445 231.430878,113.378990 
	C228.802155,114.177216 226.593155,115.175385 224.289581,115.497681 
	C196.127594,119.437927 173.949600,108.481415 156.033844,87.530663 
	C147.556015,77.616669 136.575912,71.766144 124.148804,66.359200 
	C123.675583,69.004066 123.040970,71.280617 122.898560,73.587555 
	C122.488556,80.229362 122.726395,86.947647 121.789139,93.504288 
	C121.352959,96.555595 118.787971,99.302597 117.187973,102.187546 
	C114.596680,100.150009 111.132912,98.595551 109.661446,95.937981 
	C108.213043,93.322052 108.069557,89.466316 108.595535,86.365250 
	C110.716492,73.860680 109.708305,61.461246 107.904030,49.097610 
	C106.984940,42.799675 102.489594,38.638607 97.809570,34.727695 
	C94.672554,32.106228 91.772224,29.201527 88.605881,26.275606 
	C96.026741,21.722250 97.678917,22.957386 111.893929,27.423800 
	C122.172493,30.653374 119.681885,40.627705 125.483200,46.389168 
	C126.739555,45.293198 128.160751,44.235371 129.367004,42.972275 
	C138.780243,33.115437 148.300430,23.352604 157.414856,13.225264 
	C159.294418,11.136806 159.613861,7.644263 160.093918,4.554574 
	C162.324936,1.545852 165.109024,1.981333 167.765854,4.509234 
	C170.411118,7.026134 173.149536,9.474689 175.549515,12.213957 
	C181.384903,18.874268 180.113358,24.607658 172.230270,28.552988 
	C158.811356,35.268902 147.175659,44.433590 135.861237,54.846409 
	C137.374146,55.794685 138.511551,56.412010 139.544983,57.170948 
	C145.936752,61.865025 152.335190,66.551071 158.667435,71.324669 
	C161.451126,73.423172 163.837204,76.159676 166.831635,77.847481 
	C176.064926,83.051781 185.504410,87.890259 195.642899,93.285454 
	C201.900223,77.819130 217.835022,67.549995 215.609863,48.171570 
	C219.424103,48.171570 223.613129,48.171570 229.408127,48.171570 
	C220.113556,33.090679 219.485474,14.382181 201.674896,5.923243 
	C201.910568,5.534986 202.146225,5.146730 202.381897,4.758473 
	C205.484619,3.734942 208.587326,2.711410 211.845032,1.343939 
	C212.750000,1.000000 213.500000,1.000000 214.625000,1.000000 
M228.054672,70.711388 
	C227.702835,72.307579 227.351013,73.903770 226.870377,76.084328 
	C232.071335,76.743011 237.071243,77.376236 243.109238,78.140930 
	C239.858261,71.970886 236.998062,66.542511 233.434967,59.780071 
	C231.330154,63.953445 229.816528,66.954651 228.054672,70.711388 
z"/>
<path fill="#292828" opacity="1.000000" stroke="none" 
	d="
M48.448853,28.829010 
	C44.489624,29.277555 40.530399,29.726103 36.557487,30.176201 
	C36.585835,30.074652 36.776264,29.392408 37.211708,28.129463 
	C37.664097,26.710676 37.871471,25.872591 38.078850,25.034506 
	C39.911160,17.264845 41.743473,9.495182 43.287895,1.362760 
	C44.388889,1.000000 45.777779,1.000000 47.583336,1.000000 
	C53.578415,5.528838 53.598385,5.538578 50.232796,12.439376 
	C48.507919,15.976057 46.696827,19.470690 44.288086,24.246557 
	C48.925625,22.352505 52.347527,20.482338 56.007366,19.606794 
	C59.042351,18.880735 62.387894,19.061037 65.530045,19.418404 
	C66.448051,19.522812 67.723129,21.606182 67.731232,22.790030 
	C67.736610,23.577160 65.891266,24.721388 64.684853,25.096598 
	C62.547112,25.761461 60.265209,25.962782 59.480415,26.102421 
	C59.480415,29.513199 60.042366,32.410248 59.368690,34.983849 
	C57.741104,41.201599 55.536594,47.268330 53.157730,54.660519 
	C61.140030,58.464279 69.557854,62.475578 77.975677,66.486870 
	C78.022812,66.945328 78.069946,67.403778 78.117081,67.862228 
	C72.382301,68.724167 66.128868,71.389893 61.060951,69.932663 
	C56.149387,68.520378 52.456360,62.870316 47.940166,58.823380 
	C43.069489,61.387634 38.102581,65.751129 30.710152,64.198341 
	C33.826382,62.121571 36.942608,60.044800 40.760178,57.920189 
	C41.946716,57.179188 42.431911,56.486034 42.917107,55.792885 
	C44.118397,54.066109 45.909466,52.811195 43.170170,50.392296 
	C40.564194,48.091133 38.899429,44.724087 36.488712,41.488880 
	C36.156586,41.152081 36.048248,40.837017 36.041283,40.475349 
	C36.387978,38.980019 36.741642,37.846352 37.095303,36.712688 
	C37.095303,36.712688 37.585770,36.801254 37.907040,37.144173 
	C38.428448,37.745056 38.686283,37.916031 39.001812,38.000011 
	C39.858139,38.868198 40.714462,39.736385 41.855305,41.112869 
	C43.110050,42.741848 44.080280,43.862530 45.050507,44.983215 
	C45.406986,45.582008 45.763466,46.180805 46.519470,47.227768 
	C47.463531,47.503628 48.008076,47.331318 48.552616,47.159008 
	C48.830288,46.050434 49.107964,44.941856 49.626282,43.262291 
	C49.886105,42.126408 49.905281,41.561512 49.924458,40.996620 
	C50.340702,37.290844 50.756947,33.585072 51.008781,29.113644 
	C50.045864,28.508333 49.247356,28.668673 48.448853,28.829010 
z"/>
<path fill="#F8F8F8" opacity="1.000000" stroke="none" 
	d="
M493.963989,1.869318 
	C493.963989,1.869320 493.971588,1.434229 493.985779,1.217114 
	C500.941681,1.000000 507.883392,1.000000 515.000000,1.000000 
	C515.000000,11.353702 515.000000,21.708193 514.632568,32.822224 
	C513.900208,34.087357 513.535339,34.592953 513.108765,34.671627 
	C514.305115,28.748058 514.060242,23.261156 510.854736,18.603870 
	C507.346893,13.507354 503.256256,8.782312 499.109802,4.174164 
	C497.960358,2.896749 495.709503,2.610376 493.963989,1.869318 
z"/>
<path fill="#FCFDFC" opacity="1.000000" stroke="none" 
	d="
M513.170410,35.098541 
	C513.535339,34.592953 513.900208,34.087357 514.632568,33.290882 
	C515.000000,35.370556 515.000000,37.741116 514.757690,40.403160 
	C514.018616,40.129524 513.521912,39.564400 512.936401,38.722809 
	C512.955200,37.330410 513.062805,36.214474 513.170410,35.098541 
z"/>
<path fill="#F8F8F8" opacity="1.000000" stroke="none" 
	d="
M513.025146,38.999271 
	C513.521912,39.564400 514.018616,40.129524 514.757690,40.847324 
	C515.000000,41.750000 515.000000,42.500000 515.000000,43.625000 
	C514.354187,44.003975 513.708435,44.007954 512.671631,43.652321 
	C512.528809,41.861565 512.776978,40.430416 513.025146,38.999271 
z"/>
<path fill="#252425" opacity="1.000000" stroke="none" 
	d="
M454.999878,99.850151 
	C442.874908,98.531082 431.731964,101.729767 420.924408,106.935455 
	C411.252106,111.594315 399.869995,104.510765 400.017242,93.584373 
	C400.171417,82.145355 401.260986,70.719193 401.925903,59.286491 
	C402.003113,57.959335 401.979858,56.626343 402.428284,55.105141 
	C403.415894,55.304085 403.978394,55.693947 404.540924,56.083809 
	C404.774323,55.693504 405.007690,55.303196 405.241089,54.912888 
	C404.242981,54.372440 403.244873,53.831993 402.246735,53.291550 
	C402.371490,51.103760 402.496246,48.915962 403.001984,46.333832 
	C403.739136,45.665031 404.095337,45.390572 404.451538,45.116104 
	C404.268799,44.890587 404.086090,44.665077 403.903351,44.439568 
	C403.496643,44.910820 403.089935,45.382072 402.683228,45.853333 
	C402.329559,42.098530 400.241241,40.412609 396.546265,39.589256 
	C393.249664,38.854668 390.191284,37.050770 387.793243,36.041042 
	C386.134735,38.295105 385.129608,40.578972 383.388947,41.874969 
	C373.545197,49.204124 363.253387,55.954327 353.652161,63.579098 
	C346.142792,69.542656 339.415283,76.490753 332.340363,83.001396 
	C332.693787,83.586105 333.047241,84.170822 333.400665,84.755539 
	C334.688293,85.104263 335.994232,85.812012 337.260742,85.747253 
	C353.340820,84.925148 367.528168,90.953621 381.367889,98.009224 
	C390.987030,102.913147 400.307709,108.400352 409.899750,113.360062 
	C426.143433,121.759071 443.711884,124.966072 461.774445,125.961716 
	C465.409882,126.162102 469.065857,125.990677 472.712341,125.990677 
	C472.997742,126.442963 473.283142,126.895248 473.568542,127.347534 
	C471.598541,128.886551 469.827515,131.317520 467.623871,131.809021 
	C458.438080,133.857880 449.140167,135.435059 439.842834,136.933990 
	C437.081665,137.379135 434.145508,136.687256 431.363129,137.062256 
	C423.046570,138.183105 416.961853,134.041153 410.522064,129.587753 
	C391.399963,116.363968 372.050751,103.299751 348.949768,97.882675 
	C342.715424,96.420746 336.083099,96.100006 329.657715,96.255737 
	C326.685455,96.327782 323.840485,98.990440 320.800537,100.103851 
	C319.376465,100.625435 317.010193,100.945229 316.142151,100.164864 
	C313.647614,97.922325 311.673981,95.091064 309.649048,92.376686 
	C309.582550,92.287552 311.104401,90.417397 312.010773,90.293816 
	C318.718292,89.379303 323.306915,85.107040 327.998230,80.818306 
	C340.035339,69.814140 349.196320,56.620697 357.633667,42.727707 
	C351.896759,41.599873 343.072083,45.745373 339.329865,51.178032 
	C334.328735,58.438267 333.307678,58.742836 325.810303,54.060936 
	C322.295959,51.866344 318.863739,49.440506 315.793274,46.676270 
	C314.217438,45.257591 313.518646,42.864693 311.919434,40.013309 
	C329.509979,42.400921 344.228912,33.667740 360.249268,32.868420 
	C362.505676,32.755840 365.113647,32.275520 366.872406,31.010756 
	C371.912994,27.385981 376.417267,28.092762 381.003113,31.599005 
	C381.765198,32.181671 382.690063,32.551460 384.408386,33.498272 
	C383.427521,29.913158 382.673370,27.156818 381.788177,23.921387 
	C390.477264,24.636820 398.805237,25.322519 407.582581,26.492142 
	C408.780273,27.610359 409.528625,28.244654 410.276978,28.878948 
	C410.896332,28.055798 411.515686,27.232647 412.135040,26.409500 
	C419.853943,26.784468 427.572815,27.159433 435.653320,28.129711 
	C436.010010,30.368917 436.005035,32.012814 435.615784,33.748253 
	C426.620575,33.973518 417.937866,33.691368 410.811890,37.107639 
	C414.289612,44.098572 417.939331,50.332405 420.479187,56.989651 
	C421.820068,60.504230 423.377869,62.187637 426.924438,63.320412 
	C432.625824,65.141441 438.046082,67.842651 443.384186,70.641693 
	C443.120544,71.446243 443.057861,71.781036 442.695923,72.409500 
	C436.624084,72.471214 430.853241,72.162216 425.078339,72.029961 
	C419.792694,71.908928 417.058472,73.949356 417.211060,79.248314 
	C417.373016,84.871902 418.794220,90.459221 419.666382,96.068222 
	C426.135834,95.645958 431.567902,95.291405 437.007751,95.311226 
	C437.479462,96.390831 437.943451,97.096054 438.407410,97.801285 
	C438.938293,96.844368 439.469147,95.887444 440.452484,94.807449 
	C445.603241,94.845016 450.301483,95.005653 454.999908,95.556625 
	C455.000000,97.248016 454.999939,98.549088 454.999878,99.850151 
M416.490387,30.855295 
	C416.791931,30.429903 417.093506,30.004511 417.395050,29.579119 
	C416.948792,29.465729 416.502563,29.352337 416.056274,29.238941 
	C416.002869,29.736748 415.949463,30.234552 416.490387,30.855295 
M404.531494,73.768227 
	C404.404419,74.154266 404.256531,74.535645 404.167999,74.930321 
	C404.150543,75.008041 404.361847,75.137070 404.467651,75.242439 
	C404.594574,74.856415 404.721466,74.470390 404.531494,73.768227 
M395.584778,29.516670 
	C395.584778,29.516670 395.477234,29.580103 395.584778,29.516670 
M391.415222,30.483330 
	C391.415222,30.483330 391.522766,30.419903 391.415222,30.483330 
M401.483276,31.584808 
	C401.483276,31.584808 401.419800,31.477264 401.483276,31.584808 
z"/>
<path fill="#262525" opacity="1.000000" stroke="none" 
	d="
M512.936401,38.722809 
	C512.776978,40.430416 512.528809,41.861565 512.348755,43.649132 
	C511.614441,57.766079 511.095581,71.550987 509.915283,85.279030 
	C509.050903,95.332718 507.406708,105.324974 505.916351,115.315704 
	C505.484344,118.211632 504.200684,120.779167 499.484619,119.747581 
	C499.277771,110.073753 498.627777,100.291893 499.011597,90.550781 
	C499.278015,83.789543 497.340973,78.601974 492.250122,74.342178 
	C489.963013,72.428436 487.876495,70.274986 485.971802,67.837967 
	C487.871735,65.529083 489.498810,63.612560 491.125854,61.696037 
	C493.075836,63.126228 495.025848,64.556427 496.975830,65.986618 
	C497.524902,65.805222 498.074005,65.623825 498.623077,65.442421 
	C496.318573,44.553097 501.502625,23.230785 493.823181,2.264846 
	C495.709503,2.610376 497.960358,2.896749 499.109802,4.174164 
	C503.256256,8.782312 507.346893,13.507354 510.854736,18.603870 
	C514.060242,23.261156 514.305115,28.748058 513.108765,34.671619 
	C513.062805,36.214474 512.955200,37.330410 512.936401,38.722809 
z"/>
<path fill="#2A2929" opacity="1.000000" stroke="none" 
	d="
M22.000031,132.003174 
	C20.959558,131.012054 19.919085,130.020950 17.659561,127.868622 
	C22.119623,127.292160 25.373747,127.308464 28.310427,126.351051 
	C30.578876,125.611496 35.459988,128.191681 34.926933,122.258110 
	C32.787579,122.258110 30.930103,122.542206 29.221819,122.159821 
	C28.051718,121.897903 27.089310,120.708130 26.034054,119.933144 
	C26.938461,119.235802 27.746582,118.254234 28.769798,117.907608 
	C30.311739,117.385269 32.003990,117.306641 34.056644,116.969765 
	C33.962780,115.734756 33.857834,114.353966 33.760811,113.077438 
	C29.249041,112.269791 24.253239,113.896408 21.209053,107.965958 
	C25.161510,107.523430 28.548914,107.260109 31.897490,106.744568 
	C38.437790,105.737648 44.928329,104.285149 51.500507,103.679665 
	C53.561615,103.489777 57.309467,105.024521 57.692245,106.460884 
	C58.655029,110.073669 55.093140,109.697533 52.728420,110.039780 
	C49.622971,110.489235 46.518597,110.946098 43.326290,111.412552 
	C42.401718,114.784073 43.715912,115.629509 46.800850,115.276260 
	C50.094452,114.899124 53.684128,114.457161 54.082195,119.319031 
	C50.499046,121.451248 45.054947,119.250443 41.787228,123.984467 
	C48.593655,126.854568 56.220028,120.370140 60.800598,128.827316 
	C58.186310,129.847336 56.281273,130.590607 54.342262,131.347153 
	C56.277580,132.369003 58.089588,133.325745 61.304115,135.023010 
	C59.016827,136.709854 57.459244,137.858551 55.545097,139.470703 
	C55.576164,140.074966 55.963791,140.215759 56.351418,140.356567 
	C60.293339,139.890884 64.228035,139.130676 68.179001,139.033722 
	C73.178986,138.911026 76.222412,142.443405 75.991898,147.857742 
	C73.084694,147.857742 70.121613,148.124603 67.220284,147.814224 
	C49.032455,145.868469 31.080940,147.603699 13.248218,151.135956 
	C6.089969,152.553833 5.807890,152.529343 1.901743,145.025223 
	C10.331021,144.576859 18.478666,144.143478 27.191277,143.329895 
	C27.960892,142.925537 28.165543,142.901398 28.794157,142.928040 
	C31.149382,142.978821 33.080643,142.978821 35.082436,142.978821 
	C35.082436,139.124054 35.082436,135.733292 35.082436,132.003174 
	C30.516500,132.003174 26.258266,132.003174 22.000031,132.003174 
M49.808922,140.281647 
	C50.040821,137.253510 50.272720,134.225372 50.529907,130.867050 
	C47.292191,131.011871 45.203514,131.105286 42.673805,131.218430 
	C42.673805,134.932236 42.673805,138.290009 42.673805,142.340378 
	C45.012249,141.842651 47.152596,141.387070 49.808922,140.281647 
z"/>
<path fill="#252425" opacity="1.000000" stroke="none" 
	d="
M491.001373,61.392334 
	C489.498810,63.612560 487.871735,65.529083 485.813263,67.614212 
	C485.381866,67.782814 485.397614,67.755768 485.550903,67.365921 
	C484.721832,66.348343 483.739502,65.720596 482.757141,65.092850 
	C481.793030,64.491676 480.828918,63.890495 478.696320,62.560692 
	C477.406769,69.547859 475.912750,75.999992 475.115356,82.537102 
	C474.577576,86.945641 475.041626,91.474152 475.023407,95.948853 
	C474.999969,101.704666 471.548889,104.185081 465.789307,102.648346 
	C462.457947,101.759506 459.113953,100.918098 455.387756,99.952744 
	C454.999939,98.549088 455.000000,97.248016 455.416351,95.498489 
	C460.444427,95.836029 465.056183,96.622025 468.947876,97.285301 
	C467.212616,85.136200 464.893463,72.930771 463.892761,60.618195 
	C463.090851,50.751854 457.578430,43.387672 453.091400,35.371288 
	C452.825500,34.896229 451.716248,34.893238 451.008972,34.327431 
	C451.471222,33.270863 451.923981,32.557442 452.376709,31.844023 
	C452.515778,31.935440 452.649353,32.096886 452.794708,32.108299 
	C464.106018,32.996273 470.726898,40.537537 477.332733,48.634083 
	C481.170502,53.337902 486.318481,56.972763 491.001373,61.392334 
z"/>
<path fill="#292828" opacity="1.000000" stroke="none" 
	d="
M29.204512,34.565285 
	C29.038513,34.555164 28.868755,34.517128 28.707056,34.538918 
	C18.505981,35.913116 18.497059,35.913445 18.370815,46.122349 
	C18.334211,49.082382 18.365194,52.043247 18.365194,55.533737 
	C22.173403,53.907928 25.861485,52.333405 29.549568,50.758881 
	C29.928280,51.260281 30.306992,51.761681 30.685701,52.263081 
	C24.333532,57.844429 17.981363,63.425774 11.644094,68.994026 
	C6.425594,64.935150 7.170196,64.102417 9.153696,57.546154 
	C11.466214,49.902355 12.992866,41.670063 8.970595,33.796852 
	C8.619778,33.110157 8.332279,32.391117 8.302949,32.325958 
	C13.223235,31.339378 18.855696,31.604818 22.406036,29.015434 
	C24.836494,27.242823 24.366966,21.493992 25.148716,17.739592 
	C19.359020,15.080726 13.718901,25.173569 8.987291,17.053493 
	C14.463762,14.355348 19.509653,10.954584 25.063465,9.519520 
	C27.834785,8.803433 31.711836,11.389823 34.669643,13.176296 
	C35.279041,13.544366 34.383190,17.153736 33.561077,18.991808 
	C31.664145,23.232933 27.675688,26.954247 30.897516,32.881573 
	C30.303785,33.900311 29.754148,34.232800 29.204512,34.565285 
z"/>
<path fill="#2B2A2B" opacity="1.000000" stroke="none" 
	d="
M50.003334,172.158264 
	C42.241261,173.398743 34.249432,170.487823 26.543100,176.572098 
	C24.397209,168.788879 22.358278,161.393600 20.338182,154.066635 
	C24.507069,154.066635 28.810863,154.351059 33.060345,153.992233 
	C37.999516,153.575195 43.027100,153.073959 47.766880,151.729767 
	C53.010944,150.242569 56.282879,153.346863 59.835178,155.810745 
	C60.471504,156.252121 60.280483,158.984344 59.569893,160.067184 
	C57.287083,163.545898 54.289722,166.669846 57.376488,171.758621 
	C54.647625,171.915527 52.557068,172.035721 50.003334,172.158264 
M28.986980,159.895554 
	C29.112312,162.506912 29.237642,165.118271 29.394207,168.380417 
	C34.124359,167.942947 38.387234,167.666901 42.617184,167.130981 
	C49.730804,166.229691 50.640293,164.866745 49.386192,156.365372 
	C42.737030,157.275345 36.067326,158.188126 28.986980,159.895554 
z"/>
<path fill="#070712" opacity="1.000000" stroke="none" 
	d="
M388.880859,160.917114 
	C387.911163,164.859512 387.062256,168.836823 385.935883,172.733948 
	C384.923523,176.236801 383.049164,176.110794 380.963562,172.796509 
	C380.681519,171.069504 380.354126,170.085754 380.026733,169.102005 
	C380.026703,169.102005 379.834015,168.970169 379.923248,168.531998 
	C379.683380,167.096146 379.354309,166.098450 379.025208,165.100769 
	C379.025208,165.100769 378.837585,164.972336 378.924957,164.536087 
	C378.683807,163.100540 378.355255,162.101242 378.026703,161.101959 
	C378.026703,161.101959 377.831573,160.969208 377.920715,160.537766 
	C377.340210,159.356461 376.670593,158.606598 376.000977,157.856735 
	C374.177002,157.944916 372.353027,158.033112 370.412689,158.126938 
	C369.908295,163.703995 369.413666,169.298798 368.795746,174.879959 
	C368.785889,174.969177 367.265045,174.891113 366.025513,174.891113 
	C366.025513,169.431198 366.025513,164.016525 366.025513,159.162216 
	C364.113647,156.663803 358.310699,160.449524 359.900940,154.166046 
	C366.403168,154.166046 372.858612,154.166046 379.780792,154.166046 
	C380.957062,158.382767 382.181671,162.772659 383.944092,166.901794 
	C384.645416,165.589981 384.808929,164.538925 384.972473,163.487869 
	C384.972473,163.487869 384.855316,163.158859 385.216919,162.842163 
	C385.711365,161.518478 385.844238,160.511475 385.977081,159.504486 
	C385.977081,159.504486 385.899384,159.130554 386.267212,158.809174 
	C386.748596,157.494751 386.862152,156.501678 386.975677,155.508606 
	C388.517517,154.831772 390.059357,154.154938 391.933136,153.332382 
	C392.865295,157.064804 393.498230,159.962799 394.369202,162.787415 
	C394.548859,163.370102 395.615570,163.679276 396.887665,163.825745 
	C397.643433,162.437180 397.784943,161.337418 397.926453,160.237640 
	C397.926453,160.237640 397.836548,160.026978 398.205139,159.756119 
	C398.707581,158.151123 398.841461,156.817001 398.975342,155.482880 
	C400.111420,154.866272 401.247528,154.249680 403.184845,153.198196 
	C401.529541,160.303284 400.338135,166.239105 398.646667,172.028824 
	C398.279907,173.284271 396.117920,174.015213 394.408386,174.519882 
	C393.732483,173.419464 393.430939,172.786911 393.129395,172.154358 
	C393.129395,172.154358 392.897766,171.862305 392.968201,171.374924 
	C392.713501,169.965042 392.388397,169.042557 392.063293,168.120056 
	C392.063293,168.120056 391.855408,167.841751 391.944031,167.374939 
	C391.709564,165.979019 391.386505,165.049942 391.063416,164.120850 
	C391.063416,164.120850 390.855194,163.840256 390.941467,163.370392 
	C390.642059,161.977829 390.256317,161.055130 389.870575,160.132416 
	C389.540649,160.393982 389.210754,160.655533 388.880859,160.917114 
z"/>
<path fill="#282627" opacity="1.000000" stroke="none" 
	d="
M294.707306,105.292221 
	C289.501465,105.407547 288.524628,101.469101 288.095673,97.771034 
	C287.179352,89.871246 287.024109,81.880516 286.027649,73.993935 
	C285.604004,70.640762 283.851349,67.455498 282.536377,63.721752 
	C285.485413,61.626350 289.229858,63.471970 291.946960,66.093216 
	C294.487762,68.544395 297.543671,72.198311 297.494659,75.277046 
	C297.337097,85.171104 295.848389,95.043968 294.707306,105.292221 
z"/>
<path fill="#0D040E" opacity="1.000000" stroke="none" 
	d="
M301.002960,159.119904 
	C301.002960,157.195007 301.002960,155.756149 301.002960,153.984375 
	C304.652405,153.984375 307.783966,153.991150 310.915466,153.982513 
	C314.158905,153.973557 317.041656,154.802902 317.869019,158.339081 
	C318.743500,162.076767 316.807983,164.336304 313.429993,165.292755 
	C315.419067,168.267075 317.427673,171.270615 319.436310,174.274170 
	C319.072540,174.740143 318.708740,175.206100 318.344971,175.672058 
	C316.512207,174.437500 314.509186,173.391159 312.887115,171.923691 
	C310.534454,169.795258 310.034210,165.226181 305.295502,166.249283 
	C304.554199,174.771484 304.554199,174.771484 301.002960,174.477356 
	C301.002960,169.542969 301.002960,164.574463 301.002960,159.119904 
M310.128174,157.998291 
	C307.944580,158.484161 303.389740,156.322067 305.659210,161.991119 
	C307.409882,161.991119 309.097565,162.223770 310.677307,161.911102 
	C311.769745,161.694885 312.713135,160.725800 313.723145,160.093140 
	C312.807434,159.395889 311.891693,158.698639 310.128174,157.998291 
z"/>
<path fill="#0D040E" opacity="1.000000" stroke="none" 
	d="
M444.046753,174.938232 
	C443.587036,168.120895 443.587036,161.370193 443.587036,153.984314 
	C446.472717,153.984314 449.740448,153.982437 453.008179,153.984848 
	C456.263092,153.987244 459.101166,154.878586 459.895447,158.432144 
	C460.728271,162.157867 458.692230,164.327621 455.451691,165.331894 
	C457.464905,168.354385 459.466187,171.358917 461.607452,174.573669 
	C453.255035,177.187103 454.604675,164.937683 446.996613,166.245728 
	C446.996613,168.278442 447.255676,170.413864 446.884308,172.433380 
	C446.705933,173.403473 445.336548,174.154556 444.046753,174.938232 
M447.732697,161.904129 
	C449.697693,161.911331 451.725220,162.199814 453.596161,161.783875 
	C454.319214,161.623123 454.687103,159.864929 455.216766,158.834503 
	C453.011230,158.560028 450.791565,158.044739 448.609711,158.173004 
	C448.032745,158.206909 447.572388,160.224014 447.732697,161.904129 
z"/>
<path fill="#0D0A10" opacity="1.000000" stroke="none" 
	d="
M245.761688,168.024231 
	C244.363525,167.109268 243.394363,166.196503 242.425217,165.283737 
	C242.703644,164.923660 242.982086,164.563599 243.260513,164.203522 
	C246.017731,164.203522 248.774948,164.203522 251.516220,164.203522 
	C252.555023,171.819031 251.702621,173.320221 245.614029,174.769363 
	C240.147110,176.070511 234.656830,173.354492 233.012177,168.535217 
	C230.973328,162.560852 233.198349,157.027557 238.526062,154.822998 
	C243.941650,152.582092 248.728485,154.212051 252.219131,160.521576 
	C249.839966,160.016449 248.105118,160.067612 246.875076,159.304794 
	C243.746140,157.364288 240.126709,157.063187 238.460815,159.962143 
	C237.125443,162.285934 237.034256,166.771179 238.485901,168.793198 
	C239.651001,170.416077 243.958130,169.783188 246.870972,170.151306 
	C246.644211,169.443008 246.417450,168.734726 245.761688,168.024231 
z"/>
<path fill="#0E0D1B" opacity="1.000000" stroke="none" 
	d="
M228.762558,161.109222 
	C228.762558,165.895508 228.762558,170.197250 228.762558,175.050919 
	C220.290741,175.020859 221.409348,165.774719 216.404556,163.080063 
	C216.018799,166.966232 215.650787,170.942719 215.111557,174.895859 
	C215.094162,175.023392 213.325287,174.912018 212.190872,174.912018 
	C212.190872,167.862701 212.190872,161.113129 212.190872,153.818863 
	C220.149078,154.486511 219.398453,162.974335 224.490753,166.431076 
	C224.490753,162.397034 224.490753,158.457092 224.490753,154.061234 
	C231.032883,153.649338 227.817245,158.408646 228.762558,161.109222 
z"/>
<path fill="#100C10" opacity="1.000000" stroke="none" 
	d="
M144.475494,161.694305 
	C146.786835,155.005554 151.957428,152.416809 157.796692,154.691589 
	C163.024231,156.728073 165.404785,163.540695 162.966949,169.487762 
	C160.955002,174.395889 154.560059,176.576279 149.422379,173.996674 
	C144.415619,171.482819 143.782104,167.018051 144.475494,161.694305 
M157.893845,169.496475 
	C158.306564,166.841034 159.263931,164.109970 158.909927,161.561005 
	C158.723572,160.219131 156.299103,158.343857 154.789169,158.249710 
	C153.014465,158.139038 149.896835,159.362396 149.559250,160.604492 
	C148.852142,163.206192 148.705780,166.766098 150.037033,168.831863 
	C150.920135,170.202209 154.764938,169.663925 157.893845,169.496475 
z"/>
<path fill="#292828" opacity="1.000000" stroke="none" 
	d="
M288.485168,48.398060 
	C283.913055,45.084709 280.672577,41.185112 280.089783,35.762070 
	C279.927521,34.252350 280.509125,31.909847 281.576874,31.207720 
	C282.971008,30.290987 285.597778,29.851137 286.969788,30.576441 
	C290.285492,32.329250 293.341949,34.697525 296.148499,37.213062 
	C297.004303,37.980148 297.432495,40.693165 296.807312,41.383240 
	C294.410706,44.028652 291.506256,46.213943 288.485168,48.398060 
z"/>
<path fill="#0A0209" opacity="1.000000" stroke="none" 
	d="
M328.236481,166.013275 
	C327.004913,167.406296 326.239563,168.796692 325.054077,170.950409 
	C329.975281,170.950409 333.574738,170.950409 337.174225,170.950409 
	C337.498199,171.374695 337.822205,171.798981 338.146179,172.223267 
	C337.121277,173.151978 336.151703,174.797699 335.061615,174.881851 
	C330.947601,175.199387 326.794342,175.009384 322.334167,175.009384 
	C322.334167,168.086044 322.334167,161.368332 322.334167,154.317886 
	C326.934814,154.317886 331.666473,154.317886 336.427704,154.317886 
	C337.076965,157.734955 337.076965,157.734955 326.463013,158.153412 
	C325.361115,160.891693 325.907043,162.278275 329.285095,162.019348 
	C331.410095,161.856461 333.557739,161.988983 335.885040,161.988983 
	C336.513031,164.628281 336.613373,166.433945 333.185852,166.038635 
	C331.710022,165.868454 330.198212,166.010483 328.236481,166.013275 
z"/>
<path fill="#0A0209" opacity="1.000000" stroke="none" 
	d="
M117.856781,153.989700 
	C120.952408,153.789780 123.120316,154.013428 121.855263,157.372314 
	C118.613831,159.878586 112.768776,154.933395 110.400162,161.869598 
	C114.383347,161.869598 117.487907,161.869598 120.901955,161.869598 
	C120.901955,163.365036 120.901955,164.530518 120.901955,166.038513 
	C117.634773,166.038513 114.532028,166.038513 111.213989,166.038513 
	C111.213989,167.763748 111.213989,169.153687 111.213989,170.911087 
	C114.919670,170.911087 118.518631,170.911087 122.189659,170.911087 
	C123.264526,173.831085 122.801361,175.167191 119.636887,175.046249 
	C115.664955,174.894470 111.682816,175.009705 107.357864,175.009705 
	C107.357864,168.137451 107.357864,161.419540 107.357864,153.989777 
	C110.554787,153.989777 113.966797,153.989777 117.856781,153.989700 
z"/>
<path fill="#0D0A10" opacity="1.000000" stroke="none" 
	d="
M275.569946,169.017212 
	C274.134338,167.748413 272.692810,166.632553 271.061584,166.116898 
	C267.511200,164.994614 263.283234,164.126648 264.146790,159.390427 
	C264.518890,157.349640 267.380524,154.822632 269.563232,154.255203 
	C273.635223,153.196579 277.477844,154.386703 278.932404,159.392441 
	C275.231567,161.872696 271.469635,154.864334 267.417816,160.134491 
	C269.747192,160.876678 271.691162,161.483322 273.626801,162.115540 
	C277.192657,163.280228 280.246857,165.190094 279.562256,169.444641 
	C278.860168,173.807846 275.418976,175.047440 271.397827,175.021042 
	C267.098816,174.992828 264.117676,173.219742 262.736328,167.645538 
	C264.767090,168.330811 266.485626,168.453690 267.537964,169.354691 
	C270.290253,171.711182 272.804565,171.729202 275.569946,169.017212 
z"/>
<path fill="#0A0209" opacity="1.000000" stroke="none" 
	d="
M412.188263,158.011658 
	C410.661194,158.884369 409.600281,159.756653 408.539337,160.628937 
	C408.827087,161.069275 409.114838,161.509628 409.402588,161.949966 
	C412.507599,161.949966 415.612610,161.949966 418.961670,161.949966 
	C418.961670,163.355286 418.961670,164.423309 418.961670,165.840881 
	C415.921936,165.840881 412.817261,165.840881 409.352020,165.840881 
	C409.352020,167.651413 409.352020,169.138489 409.352020,170.627884 
	C420.406464,171.751846 420.406464,171.751846 420.352570,174.777618 
	C415.439697,174.777618 410.518311,174.777618 405.300140,174.777618 
	C405.300140,168.018356 405.300140,161.303085 405.300140,154.576904 
	C415.081177,152.696701 419.671021,153.583572 420.017120,158.011261 
	C417.537872,158.011261 415.096130,158.011261 412.188263,158.011658 
z"/>
<path fill="#0A0209" opacity="1.000000" stroke="none" 
	d="
M341.008972,166.952438 
	C341.008881,162.503067 341.008881,158.542923 341.008881,154.636475 
	C351.042786,152.695526 355.668427,153.588028 356.006317,157.802643 
	C352.560516,157.802643 349.132355,157.802643 345.781708,157.802643 
	C345.043304,161.426743 345.043304,161.426743 354.979736,162.333176 
	C354.979736,163.381119 354.979736,164.454849 354.979736,165.863800 
	C351.888367,165.863800 348.785278,165.863800 345.335632,165.863800 
	C345.172485,167.551941 345.037750,168.946411 344.850983,170.879028 
	C348.802460,170.879028 352.537537,170.879028 356.234955,170.879028 
	C356.502319,175.669525 355.310669,175.938522 341.009064,174.658417 
	C341.009064,172.294159 341.009064,169.867920 341.008972,166.952438 
z"/>
<path fill="#120B10" opacity="1.000000" stroke="none" 
	d="
M437.339264,174.883698 
	C436.301941,173.274536 435.656555,171.786621 434.957916,170.176025 
	C432.655182,170.176025 430.360321,170.176025 427.911682,170.176025 
	C426.583130,172.254272 427.005493,176.850342 422.165466,174.483795 
	C424.306427,168.601013 426.350067,162.665100 428.682343,156.844818 
	C429.155396,155.664276 430.770477,154.122986 431.763733,154.188751 
	C432.858459,154.261230 434.323517,155.809845 434.793854,157.035294 
	C436.980530,162.732773 438.878540,168.541000 440.998749,174.652328 
	C439.836151,174.777802 438.783661,174.891373 437.339264,174.883698 
M430.690826,160.461380 
	C430.045013,162.473160 429.399170,164.484940 428.705597,166.645340 
	C430.699371,166.645340 432.339844,166.645340 434.838959,166.645340 
	C433.312347,163.918396 432.144409,161.832077 430.690826,160.461380 
z"/>
<path fill="#130C13" opacity="1.000000" stroke="none" 
	d="
M189.973740,161.888107 
	C190.782074,164.461838 191.492203,166.650269 192.263824,169.028244 
	C195.890015,164.197739 194.508789,156.574524 200.406845,153.620468 
	C200.870621,153.905045 201.334381,154.189621 201.798157,154.474213 
	C199.737076,160.221695 197.691315,165.974747 195.609039,171.714539 
	C194.412369,175.013107 194.385727,175.003433 189.926941,174.675888 
	C187.697144,168.011627 185.437912,161.259354 183.092377,154.249146 
	C184.541168,154.145004 185.823746,154.052811 187.340073,153.943817 
	C188.212723,156.545456 189.044128,159.024139 189.973740,161.888107 
z"/>
<path fill="#130C13" opacity="1.000000" stroke="none" 
	d="
M130.020905,172.090332 
	C128.029907,166.039612 126.137367,160.375565 124.242699,154.705170 
	C128.300949,153.762207 128.291702,153.765182 130.117096,159.424164 
	C131.129272,162.562088 132.178497,165.688065 133.172318,168.702042 
	C137.721710,164.725586 134.428024,155.877304 143.210159,153.393555 
	C140.683914,160.372650 138.632141,166.298508 136.347046,172.132980 
	C135.898697,173.277786 134.504700,174.874893 133.623962,174.827591 
	C132.417160,174.762741 131.284042,173.325867 130.020905,172.090332 
z"/>
<path fill="#070917" opacity="1.000000" stroke="none" 
	d="
M295.840210,158.022079 
	C294.547211,159.029678 293.085205,159.984497 292.996826,161.053009 
	C292.696564,164.681427 293.079010,168.366730 292.771332,171.993896 
	C292.667450,173.218811 291.284760,174.335297 290.486511,175.501328 
	C289.980927,175.256409 289.475342,175.011490 288.969757,174.766571 
	C288.969757,169.359039 288.969757,163.951508 288.969757,159.097382 
	C287.073059,156.658768 281.191986,160.527603 282.981171,154.150238 
	C288.111511,154.150238 293.213623,154.150238 298.315765,154.150238 
	C298.647644,154.480469 298.979553,154.810715 299.311432,155.140945 
	C298.307861,156.101105 297.304321,157.061249 295.840210,158.022079 
z"/>
<path fill="#00000F" opacity="1.000000" stroke="none" 
	d="
M167.388245,174.598114 
	C167.052063,167.651825 167.052063,161.052032 167.052063,154.401779 
	C169.861160,153.495316 171.188370,153.937164 171.038345,157.122528 
	C170.829605,161.554596 170.985825,166.003845 170.985825,170.220016 
	C174.436432,172.867706 180.277435,168.095398 182.867004,174.944626 
	C177.239258,174.944626 172.481827,174.944626 167.388245,174.598114 
z"/>
<path fill="#313030" opacity="1.000000" stroke="none" 
	d="
M53.617920,98.703186 
	C49.789391,100.419456 46.289143,101.961075 42.698799,103.542366 
	C45.166656,98.995087 47.382000,94.913094 50.281372,89.570702 
	C52.780582,90.712997 56.316654,92.329201 59.852726,93.945404 
	C59.712730,94.457474 59.572739,94.969543 59.432743,95.481613 
	C57.603893,96.497253 55.775043,97.512894 53.617920,98.703186 
z"/>
<path fill="#1A001A" opacity="1.000000" stroke="none" 
	d="
M208.013733,168.884476 
	C208.002380,174.828415 208.002380,174.828415 203.987503,174.482208 
	C203.987503,168.551239 203.849625,162.579468 204.114166,156.625549 
	C204.161972,155.549866 205.862503,154.547623 206.799988,153.511475 
	C207.204575,153.839783 207.609146,154.168076 208.013733,154.496384 
	C208.013733,159.131668 208.013733,163.766968 208.013733,168.884476 
z"/>
<path fill="#EBE9EA" opacity="1.000000" stroke="none" 
	d="
M22.073059,132.212494 
	C26.258266,132.003174 30.516500,132.003174 35.082436,132.003174 
	C35.082436,135.733292 35.082436,139.124054 35.082436,142.978821 
	C33.080643,142.978821 31.149382,142.978821 28.995596,142.631226 
	C31.406637,137.862106 30.832287,135.799805 26.462502,134.139847 
	C25.270504,133.687042 24.036224,133.345551 22.821348,132.952972 
	C22.507647,132.888565 22.282558,132.711517 22.073059,132.212494 
z"/>
<path fill="#313030" opacity="1.000000" stroke="none" 
	d="
M33.249252,97.899521 
	C32.970772,100.250969 32.467602,102.291992 31.964434,104.333015 
	C31.236689,104.376274 30.508942,104.419540 29.781197,104.462799 
	C27.902294,101.264198 26.023392,98.065605 24.144489,94.867004 
	C24.612991,94.331993 25.081493,93.796982 25.549995,93.261971 
	C28.041517,94.704346 30.533041,96.146721 33.249252,97.899521 
z"/>
<path fill="#2B2A2B" opacity="1.000000" stroke="none" 
	d="
M22.745028,133.346832 
	C24.036224,133.345551 25.270504,133.687042 26.462502,134.139847 
	C30.832287,135.799805 31.406637,137.862106 28.571634,142.580444 
	C28.165543,142.901398 27.960892,142.925537 27.448101,142.974152 
	C25.649544,139.912659 24.159124,136.826675 22.745028,133.346832 
z"/>
<path fill="#252425" opacity="1.000000" stroke="none" 
	d="
M452.205688,31.513479 
	C451.923981,32.557442 451.471222,33.270863 450.596191,34.461189 
	C446.449402,34.524651 442.724945,34.111202 439.068512,33.345314 
	C441.298828,31.726753 443.461121,30.460636 445.623413,29.194519 
	C445.807098,29.133728 445.990814,29.072933 446.264221,29.424870 
	C446.529816,30.354315 446.705688,30.871029 446.881531,31.387749 
	C447.253693,30.825254 447.625854,30.262754 447.997986,29.700249 
	C449.343567,30.194475 450.689117,30.688705 452.205688,31.513479 
z"/>
<path fill="#252425" opacity="1.000000" stroke="none" 
	d="
M445.284485,29.030981 
	C443.461121,30.460636 441.298828,31.726753 438.695953,33.418518 
	C437.503601,33.781677 436.751862,33.719193 436.000092,33.656708 
	C436.005035,32.012814 436.010010,30.368917 436.024536,28.313137 
	C439.004578,28.223314 441.975098,28.545378 445.284485,29.030981 
z"/>
<path fill="#343434" opacity="1.000000" stroke="none" 
	d="
M36.889393,36.443359 
	C36.741642,37.846352 36.387978,38.980019 35.742672,40.412842 
	C34.632481,40.167633 33.813927,39.623260 32.995377,39.078888 
	C32.713314,38.382393 32.431248,37.685898 32.471268,36.608261 
	C33.198166,36.100254 33.602978,35.973392 34.007793,35.846531 
	C34.899689,35.955696 35.791588,36.064861 36.889393,36.443359 
z"/>
<path fill="#F5F4F4" opacity="1.000000" stroke="none" 
	d="
M45.302498,44.773224 
	C44.080280,43.862530 43.110050,42.741848 42.095303,41.301563 
	C43.299126,40.981964 44.547466,40.981964 46.312004,40.981964 
	C46.022087,42.352585 45.788288,43.457909 45.302498,44.773224 
z"/>
<path fill="#252425" opacity="1.000000" stroke="none" 
	d="
M411.800232,26.317900 
	C411.515686,27.232647 410.896332,28.055798 410.276978,28.878948 
	C409.528625,28.244654 408.780273,27.610359 408.015228,26.600107 
	C409.154175,26.224865 410.309814,26.225584 411.800232,26.317900 
z"/>
<path fill="#F5F4F4" opacity="1.000000" stroke="none" 
	d="
M34.035713,35.537449 
	C33.602978,35.973392 33.198166,36.100254 32.485863,36.308914 
	C31.474316,35.884327 30.770252,35.377945 29.635349,34.718430 
	C29.754148,34.232800 30.303785,33.900311 31.009312,33.281036 
	C32.450542,33.324852 35.048820,31.952093 34.035713,35.537449 
z"/>
<path fill="#F5F4F4" opacity="1.000000" stroke="none" 
	d="
M32.999897,39.443539 
	C33.813927,39.623260 34.632481,40.167633 35.749641,40.774513 
	C36.048248,40.837017 36.156586,41.152081 36.186363,41.315979 
	C35.724419,42.142868 35.232700,42.805855 34.740982,43.468842 
	C34.162125,42.248623 33.583271,41.028408 32.999897,39.443539 
z"/>
<path fill="#F5F4F4" opacity="1.000000" stroke="none" 
	d="
M37.779793,24.909004 
	C37.871471,25.872591 37.664097,26.710676 37.209713,27.769251 
	C36.403801,26.943205 35.844894,25.896671 35.285988,24.850140 
	C36.017574,24.827927 36.749157,24.805714 37.779793,24.909004 
z"/>
<path fill="#110911" opacity="1.000000" stroke="none" 
	d="
M389.198120,160.798584 
	C389.210754,160.655533 389.540649,160.393982 389.870575,160.132416 
	C390.256317,161.055130 390.642059,161.977829 390.999939,163.205750 
	C390.486542,162.567337 390.000946,161.623703 389.198120,160.798584 
z"/>
<path fill="#252425" opacity="1.000000" stroke="none" 
	d="
M402.173096,53.507931 
	C403.244873,53.831993 404.242981,54.372440 405.241089,54.912888 
	C405.007690,55.303196 404.774323,55.693504 404.540924,56.083809 
	C403.978394,55.693947 403.415894,55.304085 402.535889,54.766582 
	C402.078979,54.334000 402.039337,54.035793 402.173096,53.507931 
z"/>
<path fill="#110911" opacity="1.000000" stroke="none" 
	d="
M376.284607,157.983353 
	C376.670593,158.606598 377.340210,159.356461 377.966858,160.429169 
	C377.471985,159.871323 377.020111,158.990646 376.284607,157.983353 
z"/>
<path fill="#313030" opacity="1.000000" stroke="none" 
	d="
M30.427740,64.363831 
	C29.757990,65.213448 28.746254,65.767670 27.734520,66.321884 
	C27.565548,65.974640 27.396578,65.627388 27.227606,65.280144 
	C28.180323,64.876236 29.133039,64.472328 30.427740,64.363831 
z"/>
<path fill="#262525" opacity="1.000000" stroke="none" 
	d="
M482.881165,65.387878 
	C483.739502,65.720596 484.721832,66.348343 485.537811,67.370819 
	C484.582672,67.071335 483.793915,66.377121 482.881165,65.387878 
z"/>
<path fill="#110911" opacity="1.000000" stroke="none" 
	d="
M398.819275,155.754959 
	C398.841461,156.817001 398.707581,158.151123 398.299622,159.691437 
	C398.238129,158.607422 398.450684,157.317230 398.819275,155.754959 
z"/>
<path fill="#110911" opacity="1.000000" stroke="none" 
	d="
M377.980042,161.427933 
	C378.355255,162.101242 378.683807,163.100540 378.969604,164.431519 
	C378.595703,163.760101 378.264526,162.757004 377.980042,161.427933 
z"/>
<path fill="#110911" opacity="1.000000" stroke="none" 
	d="
M385.824829,159.751709 
	C385.844238,160.511475 385.711365,161.518478 385.320984,162.701950 
	C385.266510,161.918594 385.469543,160.958755 385.824829,159.751709 
z"/>
<path fill="#110911" opacity="1.000000" stroke="none" 
	d="
M397.717224,160.475571 
	C397.784943,161.337418 397.643433,162.437180 397.210449,163.698822 
	C397.115295,162.811615 397.311646,161.762558 397.717224,160.475571 
z"/>
<path fill="#110911" opacity="1.000000" stroke="none" 
	d="
M386.824768,155.751587 
	C386.862152,156.501678 386.748596,157.494751 386.383942,158.658035 
	C386.313171,157.883698 386.493530,156.939133 386.824768,155.751587 
z"/>
<path fill="#110911" opacity="1.000000" stroke="none" 
	d="
M384.770294,163.719269 
	C384.808929,164.538925 384.645416,165.589981 384.216461,166.847168 
	C384.156738,166.019089 384.362427,164.984879 384.770294,163.719269 
z"/>
<path fill="#252425" opacity="1.000000" stroke="none" 
	d="
M447.854858,29.492126 
	C447.625854,30.262754 447.253693,30.825254 446.881531,31.387749 
	C446.705688,30.871029 446.529816,30.354315 446.542084,29.508875 
	C447.057404,29.214767 447.384552,29.249384 447.854858,29.492126 
z"/>
<path fill="#110911" opacity="1.000000" stroke="none" 
	d="
M391.014648,164.427322 
	C391.386505,165.049942 391.709564,165.979019 392.002808,167.211517 
	C391.637268,166.587875 391.301544,165.660843 391.014648,164.427322 
z"/>
<path fill="#110911" opacity="1.000000" stroke="none" 
	d="
M378.978241,165.426422 
	C379.354309,166.098450 379.683380,167.096146 379.969177,168.424683 
	C379.594360,167.754395 379.262817,166.753220 378.978241,165.426422 
z"/>
<path fill="#F5F4F4" opacity="1.000000" stroke="none" 
	d="
M49.611797,41.050339 
	C49.905281,41.561512 49.886105,42.126408 49.698212,42.923752 
	C49.452709,42.472153 49.375923,41.788105 49.611797,41.050339 
z"/>
<path fill="#252425" opacity="1.000000" stroke="none" 
	d="
M402.688477,45.892342 
	C403.089935,45.382072 403.496643,44.910820 403.903351,44.439568 
	C404.086090,44.665077 404.268799,44.890587 404.451538,45.116104 
	C404.095337,45.390572 403.739136,45.665031 403.057434,45.969837 
	C402.731964,46.000183 402.693726,45.931358 402.688477,45.892342 
z"/>
<path fill="#110911" opacity="1.000000" stroke="none" 
	d="
M392.013824,168.421188 
	C392.388397,169.042557 392.713501,169.965042 393.008179,171.192871 
	C392.639954,170.572906 392.302155,169.647614 392.013824,168.421188 
z"/>
<path fill="#313030" opacity="1.000000" stroke="none" 
	d="
M42.626488,55.909130 
	C42.431911,56.486034 41.946716,57.179188 41.103752,57.884827 
	C41.275944,57.273335 41.805901,56.649353 42.626488,55.909130 
z"/>
<path fill="#110911" opacity="1.000000" stroke="none" 
	d="
M379.979767,169.424164 
	C380.354126,170.085754 380.681519,171.069504 380.954163,172.373657 
	C380.577179,171.711487 380.254974,170.728897 379.979767,169.424164 
z"/>
<path fill="#110911" opacity="1.000000" stroke="none" 
	d="
M393.082062,172.435104 
	C393.430939,172.786911 393.732483,173.419464 394.031891,174.341431 
	C393.698090,173.992508 393.366425,173.354187 393.082062,172.435104 
z"/>
<path fill="#F5F4F4" opacity="1.000000" stroke="none" 
	d="
M48.856819,28.884933 
	C49.247356,28.668673 50.045864,28.508333 50.875938,28.676510 
	C50.359940,28.983635 49.812363,28.962244 48.856819,28.884933 
z"/>
<path fill="#343434" opacity="1.000000" stroke="none" 
	d="
M38.980835,37.721916 
	C38.686283,37.916031 38.428448,37.745056 38.115707,37.280396 
	C38.322025,37.197075 38.640938,37.320446 38.980835,37.721916 
z"/>
<path fill="#F5F4F4" opacity="1.000000" stroke="none" 
	d="
M48.057434,47.111435 
	C48.008076,47.331318 47.463531,47.503628 46.743187,47.375011 
	C46.899002,47.070675 47.230629,47.067272 48.057434,47.111435 
z"/>
<path fill="#F3F2F2" opacity="1.000000" stroke="none" 
	d="
M228.178787,70.333618 
	C229.816528,66.954651 231.330154,63.953445 233.434967,59.780071 
	C236.998062,66.542511 239.858261,71.970886 243.109238,78.140930 
	C237.071243,77.376236 232.071335,76.743011 226.870377,76.084328 
	C227.351013,73.903770 227.702835,72.307579 228.178787,70.333618 
z"/>
<path fill="#FBFBFB" opacity="1.000000" stroke="none" 
	d="
M435.615784,33.748253 
	C436.751862,33.719193 437.503601,33.781677 438.627930,33.770958 
	C442.724945,34.111202 446.449402,34.524651 450.586639,34.804337 
	C451.716248,34.893238 452.825500,34.896229 453.091400,35.371288 
	C457.578430,43.387672 463.090851,50.751854 463.892761,60.618195 
	C464.893463,72.930771 467.212616,85.136200 468.947876,97.285301 
	C465.056183,96.622025 460.444427,95.836029 455.416199,95.108162 
	C450.301483,95.005653 445.603241,94.845016 440.085663,94.695267 
	C438.510895,94.783051 437.755463,94.859947 437.000000,94.936844 
	C431.567902,95.291405 426.135834,95.645958 419.666382,96.068222 
	C418.794220,90.459221 417.373016,84.871902 417.211060,79.248314 
	C417.058472,73.949356 419.792694,71.908928 425.078339,72.029961 
	C430.853241,72.162216 436.624084,72.471214 443.048645,72.330490 
	C443.662109,71.362526 443.623627,70.767242 443.585144,70.171951 
	C438.046082,67.842651 432.625824,65.141441 426.924438,63.320412 
	C423.377869,62.187637 421.820068,60.504230 420.479187,56.989651 
	C417.939331,50.332405 414.289612,44.098572 410.811890,37.107639 
	C417.937866,33.691368 426.620575,33.973518 435.615784,33.748253 
z"/>
<path fill="#252425" opacity="1.000000" stroke="none" 
	d="
M437.007751,95.311226 
	C437.755463,94.859947 438.510895,94.783051 439.633179,94.818344 
	C439.469147,95.887444 438.938293,96.844368 438.407410,97.801285 
	C437.943451,97.096054 437.479462,96.390831 437.007751,95.311226 
z"/>
<path fill="#252425" opacity="1.000000" stroke="none" 
	d="
M416.193207,30.793827 
	C415.949463,30.234552 416.002869,29.736748 416.056274,29.238943 
	C416.502563,29.352337 416.948792,29.465729 417.395050,29.579121 
	C417.093506,30.004511 416.791931,30.429903 416.193207,30.793827 
z"/>
<path fill="#252425" opacity="1.000000" stroke="none" 
	d="
M404.689941,73.926300 
	C404.721466,74.470390 404.594574,74.856415 404.467651,75.242432 
	C404.361847,75.137070 404.150543,75.008041 404.167999,74.930321 
	C404.256531,74.535645 404.404419,74.154266 404.689941,73.926300 
z"/>
<path fill="#252425" opacity="1.000000" stroke="none" 
	d="
M395.531006,29.548386 
	C395.477234,29.580103 395.584778,29.516670 395.531006,29.548386 
z"/>
<path fill="#252425" opacity="1.000000" stroke="none" 
	d="
M391.468994,30.451616 
	C391.522766,30.419903 391.415222,30.483330 391.468994,30.451616 
z"/>
<path fill="#252425" opacity="1.000000" stroke="none" 
	d="
M401.451538,31.531036 
	C401.419800,31.477264 401.483276,31.584808 401.451538,31.531036 
z"/>
<path fill="#252425" opacity="1.000000" stroke="none" 
	d="
M443.384186,70.641701 
	C443.623627,70.767242 443.662109,71.362526 443.347870,72.036819 
	C443.057861,71.781036 443.120544,71.446243 443.384186,70.641701 
z"/>
<path fill="#EBE9EA" opacity="1.000000" stroke="none" 
	d="
M49.550934,140.606567 
	C47.152596,141.387070 45.012249,141.842651 42.673805,142.340378 
	C42.673805,138.290009 42.673805,134.932236 42.673805,131.218430 
	C45.203514,131.105286 47.292191,131.011871 50.529907,130.867050 
	C50.272720,134.225372 50.040821,137.253510 49.550934,140.606567 
z"/>
<path fill="#FCFDFC" opacity="1.000000" stroke="none" 
	d="
M56.139267,140.145538 
	C55.963791,140.215759 55.576164,140.074966 55.337639,139.731750 
	C55.633533,139.664398 55.780331,139.799469 56.139267,140.145538 
z"/>
<path fill="#F7F6F7" opacity="1.000000" stroke="none" 
	d="
M29.192301,159.498230 
	C36.067326,158.188126 42.737030,157.275345 49.386192,156.365372 
	C50.640293,164.866745 49.730804,166.229691 42.617184,167.130981 
	C38.387234,167.666901 34.124359,167.942947 29.394207,168.380417 
	C29.237642,165.118271 29.112312,162.506912 29.192301,159.498230 
z"/>
<path fill="#F3F7EF" opacity="1.000000" stroke="none" 
	d="
M310.552063,157.999832 
	C311.891693,158.698639 312.807434,159.395889 313.723145,160.093140 
	C312.713135,160.725800 311.769745,161.694885 310.677307,161.911102 
	C309.097565,162.223770 307.409882,161.991119 305.659210,161.991119 
	C303.389740,156.322067 307.944580,158.484161 310.552063,157.999832 
z"/>
<path fill="#F3F7EF" opacity="1.000000" stroke="none" 
	d="
M447.395569,161.617310 
	C447.572388,160.224014 448.032745,158.206909 448.609711,158.173004 
	C450.791565,158.044739 453.011230,158.560028 455.216797,158.834518 
	C454.687103,159.864929 454.319214,161.623123 453.596161,161.783875 
	C451.725220,162.199814 449.697693,161.911331 447.395569,161.617310 
z"/>
<path fill="#F1F2F1" opacity="1.000000" stroke="none" 
	d="
M157.588898,169.738251 
	C154.764938,169.663925 150.920135,170.202209 150.037033,168.831863 
	C148.705780,166.766098 148.852142,163.206192 149.559250,160.604492 
	C149.896835,159.362396 153.014465,158.139038 154.789169,158.249710 
	C156.299103,158.343857 158.723572,160.219131 158.909927,161.561005 
	C159.263931,164.109970 158.306564,166.841034 157.588898,169.738251 
z"/>
<path fill="#E4ECDF" opacity="1.000000" stroke="none" 
	d="
M430.833618,160.103577 
	C432.144409,161.832077 433.312347,163.918396 434.838959,166.645340 
	C432.339844,166.645340 430.699371,166.645340 428.705597,166.645340 
	C429.399170,164.484940 430.045013,162.473160 430.833618,160.103577 
z"/>
</svg>