<svg version="1.1" id="Layer_1" xmlns="http://www.w3.org/2000/svg" xmlns:xlink="http://www.w3.org/1999/xlink" x="0px" y="0px"
	 width="100%" viewBox="0 0 540 200" enable-background="new 0 0 540 200" xml:space="preserve">
<path fill="#FDFDFD" opacity="1.000000" stroke="none" 
	d="
M412.000000,201.000000 
	C274.666656,201.000000 137.833328,201.000000 1.000000,201.000000 
	C1.000000,134.333328 1.000000,67.666664 1.000000,1.000000 
	C181.000000,1.000000 361.000000,1.000000 541.000000,1.000000 
	C541.000000,67.666664 541.000000,134.333328 541.000000,201.000000 
	C498.166656,201.000000 455.333344,201.000000 412.000000,201.000000 
M35.910805,148.529556 
	C35.910805,148.529556 35.886986,148.458252 34.962280,148.371445 
	C27.079319,148.964249 19.196356,149.557068 11.273080,150.152924 
	C13.979486,156.982285 15.199857,157.526245 21.851290,156.206375 
	C39.828053,152.639267 57.925591,150.843292 76.266464,152.821274 
	C79.164177,153.133774 82.124588,152.865051 85.038063,152.865051 
	C85.188950,147.397568 82.162964,143.908371 77.168663,144.032684 
	C73.220558,144.130966 69.288887,144.889542 64.925758,144.933380 
	C64.779091,144.798401 64.632423,144.663422 64.902832,144.008102 
	C66.456917,142.857285 68.011002,141.706451 70.284767,140.022690 
	C67.048416,138.302078 65.194046,137.316208 62.765186,136.024918 
	C65.284393,135.272079 67.222809,134.692810 69.549500,133.997513 
	C68.939056,132.652649 68.590027,130.864380 68.022476,130.792114 
	C62.757202,130.121628 57.454285,129.746780 51.504799,129.228867 
	C53.502495,123.094284 60.011452,127.478020 63.054363,123.847809 
	C62.551655,119.466408 59.015522,119.912842 55.720535,120.278511 
	C52.617008,120.622925 51.338036,119.721603 52.417019,116.318634 
	C56.256779,115.835831 60.060677,115.530632 63.777874,114.790192 
	C64.974594,114.551811 66.648979,113.281258 66.812294,112.273445 
	C66.967987,111.312614 65.663994,109.678566 64.589180,109.074608 
	C63.454800,108.437187 61.786438,108.364769 60.431545,108.571404 
	C54.385921,109.493385 48.383091,110.696686 42.336536,111.611572 
	C38.509357,112.190666 34.632435,112.441071 30.184048,112.900177 
	C33.268002,118.927444 38.275826,117.262543 42.772411,118.089806 
	C42.863003,119.377975 42.960148,120.759308 43.045002,121.965919 
	C40.978745,122.307053 39.284649,122.385719 37.743607,122.912292 
	C36.726707,123.259766 35.929901,124.251335 35.034550,124.954514 
	C36.094810,125.723396 37.063789,126.902946 38.236992,127.163727 
	C39.944653,127.543289 41.799400,127.261147 43.869511,127.261147 
	C44.598957,133.426895 39.531269,130.553177 37.292274,131.336258 
	C34.391163,132.350891 31.114700,132.292297 26.645466,132.871170 
	C28.916016,135.022049 29.958227,136.009338 31.146255,137.422897 
	C31.280291,137.722702 31.509109,137.900558 31.669930,138.740997 
	C32.782864,141.486603 33.895794,144.232193 35.054321,147.384949 
	C35.120075,147.660904 35.264248,147.886780 35.787964,148.233490 
	C35.787964,148.233490 35.850243,148.574081 35.910805,148.529556 
M42.055408,43.792667 
	C42.055408,43.792667 41.979141,44.040630 41.995949,44.775932 
	C42.576832,46.005722 43.157715,47.235516 43.738605,48.465305 
	C44.210999,47.790405 44.683392,47.115501 45.774216,46.780815 
	C47.862988,49.687088 49.537022,53.064037 52.154446,55.370350 
	C54.900143,57.789700 53.125950,59.054367 51.333813,61.022400 
	C50.803825,61.646919 50.273834,62.271439 49.056854,62.966782 
	C45.942604,65.043198 42.828358,67.119606 39.714108,69.196022 
	C39.988556,69.765945 40.263000,70.335869 40.537445,70.905792 
	C43.351040,70.022217 46.264561,69.367432 48.951508,68.193871 
	C51.932961,66.891693 54.707581,65.115936 56.988743,63.866085 
	C61.450672,67.865746 65.141945,73.516724 70.051704,74.927666 
	C75.126297,76.385971 81.384598,73.725235 87.125084,72.866379 
	C79.034599,66.509186 68.914169,65.364777 62.463032,58.650780 
	C64.486633,52.451382 66.563049,47.033829 67.959389,41.446323 
	C68.753326,38.269352 68.434982,34.814419 68.643402,31.012741 
	C69.442680,30.880089 71.624023,30.728781 73.658371,30.101061 
	C74.870407,29.727068 76.725533,28.610508 76.730827,27.817348 
	C76.738708,26.638628 75.471519,24.538948 74.559479,24.432108 
	C71.418945,24.064213 68.070747,23.863596 65.038506,24.589125 
	C61.365726,25.467913 57.933865,27.353556 53.356625,29.230419 
	C56.360542,23.170120 58.899651,18.366037 61.083664,13.405608 
	C61.595768,12.242484 61.438633,9.785902 60.667534,9.249413 
	C58.599148,7.810359 56.031445,7.088988 53.662052,6.082577 
	C53.116592,7.557106 52.444057,8.998359 52.047703,10.511933 
	C50.346668,17.007706 48.726883,23.524755 46.460548,29.776785 
	C45.692017,29.950907 44.923485,30.125029 44.154953,30.299152 
	C44.756973,31.196575 45.358994,32.093998 45.965256,33.711002 
	C45.771408,34.393192 45.577560,35.075386 45.541172,35.203449 
	C49.641106,34.696938 53.698971,34.195621 57.958717,34.572113 
	C58.663681,35.046795 59.368649,35.521473 60.306107,36.850948 
	C59.845211,39.899418 59.384319,42.947887 58.297764,46.103565 
	C58.374805,46.787281 58.451847,47.470993 58.384094,48.832367 
	C58.106239,49.942204 57.828381,51.052036 56.563072,52.064869 
	C56.232353,52.068462 55.901638,52.072052 55.122818,51.781094 
	C54.765823,51.181686 54.408833,50.582279 54.556187,49.563217 
	C54.789730,48.457573 55.023270,47.351929 55.312740,45.981499 
	C53.546680,45.981499 52.299286,45.981499 50.571274,45.602375 
	C49.712566,44.735432 48.853859,43.868488 47.955284,42.448780 
	C47.638649,42.326031 47.322014,42.203285 46.411823,41.676884 
	C45.276615,41.407196 44.141403,41.137512 43.061211,40.246662 
	C44.058304,36.974270 41.468945,38.310692 39.943005,37.194862 
	C36.675755,31.949137 40.673931,28.227732 42.567780,23.983204 
	C43.387917,22.145090 44.273552,18.532875 43.662636,18.165466 
	C40.700855,16.384230 36.822605,13.808991 34.046310,14.525728 
	C28.479683,15.962829 23.418905,19.359356 17.970091,22.035084 
	C22.644852,30.273966 28.296318,20.180542 34.167263,22.682680 
	C33.294376,26.604439 33.696617,32.440731 31.142622,34.376343 
	C27.797968,36.911171 22.118820,36.365685 17.264309,37.175121 
	C17.334194,37.339130 17.592367,38.071339 17.945518,38.754444 
	C22.015171,46.626438 20.449240,54.865852 18.166948,62.518894 
	C16.201300,69.110161 15.444127,69.911263 20.621500,74.009056 
	C26.971430,68.435219 33.334728,62.849655 39.698025,57.264088 
	C39.337032,56.783527 38.976040,56.302967 38.615047,55.822407 
	C36.827423,56.530418 35.027508,57.209202 33.255486,57.954330 
	C31.326572,58.765427 29.423557,59.638115 26.947737,60.732059 
	C27.108677,57.057796 27.307196,54.098656 27.355518,51.137074 
	C27.522127,40.925598 27.502102,40.924847 37.708645,39.537750 
	C37.870594,39.515739 38.040455,39.551949 39.062874,39.869347 
	C39.773335,40.373589 40.483795,40.877831 41.165089,41.959415 
	C41.484406,42.487015 41.803722,43.014610 42.055408,43.792667 
M457.719421,104.456184 
	C459.813080,104.587784 461.906738,104.719383 464.775818,105.056595 
	C468.114563,105.919769 471.458801,106.762192 474.790802,107.650719 
	C480.545227,109.185226 484.001190,106.699257 484.024597,100.946915 
	C484.042786,96.471519 483.578522,91.942268 484.116547,87.533081 
	C484.914032,80.997414 486.408630,74.546814 487.698242,67.563026 
	C489.835510,68.896698 490.800049,69.498573 492.004517,70.684097 
	C492.781036,71.366714 493.557556,72.049332 494.545502,73.051041 
	C494.764740,73.126755 494.989502,73.178078 495.517639,73.821953 
	C497.293304,75.569633 498.946655,77.467087 500.868103,79.036293 
	C506.139832,83.341667 508.318573,88.565269 508.017181,95.567192 
	C507.598053,105.305511 508.279938,115.091225 508.486115,124.651184 
	C513.336609,125.921333 514.482300,123.100594 514.909363,120.296082 
	C516.430176,110.308197 518.061401,100.310699 518.918640,90.254433 
	C520.188110,75.360130 520.800049,60.410469 521.754395,45.488373 
	C522.344482,36.262913 524.206970,26.842989 517.125977,18.968821 
	C514.023376,15.518627 511.051971,11.933343 507.737152,8.700457 
	C506.615906,7.606926 504.621094,7.409079 502.606995,6.642665 
	C510.179779,28.317467 505.470490,49.574379 507.620392,70.428635 
	C507.080872,70.618553 506.541321,70.808464 506.001770,70.998383 
	C504.043304,69.563850 502.084839,68.129311 499.877716,66.087296 
	C494.951965,61.632622 489.270020,57.761616 485.276489,52.587444 
	C479.178009,44.685951 472.803467,38.049755 462.174103,37.402428 
	C461.895630,37.385471 461.637573,37.033749 461.049133,36.192863 
	C459.745789,35.737835 458.442474,35.282806 457.061188,34.976536 
	C457.061188,34.976536 457.185303,34.863060 456.773163,34.288330 
	C455.846405,34.215168 454.919647,34.142006 453.437683,33.757492 
	C452.624573,33.588284 451.811462,33.419075 450.151520,33.018402 
	C440.479431,32.481781 430.807343,31.945158 420.465790,31.224770 
	C419.310059,31.224308 418.154327,31.223846 416.104614,31.006351 
	C407.786835,30.321249 399.469055,29.636147 390.807281,28.922712 
	C391.681519,32.182232 392.417847,34.927612 393.382629,38.524696 
	C391.214233,37.290562 389.843018,36.688366 388.676178,35.813553 
	C384.720825,32.848091 380.937744,32.953815 376.684784,35.488770 
	C374.359100,36.875008 371.421295,37.725029 368.704895,37.884281 
	C352.876465,38.812222 338.328156,47.402420 320.916901,45.056622 
	C322.526367,47.895184 323.229553,50.304371 324.821686,51.698013 
	C328.052399,54.525997 331.655243,56.977364 335.300842,59.272381 
	C342.145874,63.581505 343.711273,63.168373 348.093292,56.579865 
	C351.953949,50.775196 360.732117,46.528458 366.613464,47.763351 
	C358.000824,61.935188 348.851227,75.642281 336.098022,86.357094 
	C331.798279,89.969589 326.351929,92.209343 321.468597,95.141441 
	C320.401550,95.782135 319.501068,96.700165 318.523865,97.490456 
	C320.698029,100.098701 322.658264,102.946419 325.163300,105.184273 
	C326.030701,105.959152 328.395020,105.613983 329.823029,105.090889 
	C332.862640,103.977402 335.711182,101.325729 338.684021,101.255714 
	C345.109253,101.104385 351.740906,101.426689 357.973999,102.891685 
	C381.068604,108.319717 400.422272,121.372124 419.535339,134.606400 
	C425.979065,139.068161 432.075989,143.169983 440.383423,142.062607 
	C443.166748,141.691589 446.102020,142.380798 448.862854,141.935089 
	C458.159332,140.434235 467.456360,138.854691 476.641174,136.803497 
	C478.840576,136.312317 480.606171,133.878632 482.571289,132.338348 
	C482.283569,131.888779 481.995819,131.439194 481.708099,130.989624 
	C478.058838,130.989624 474.400024,131.162231 470.761963,130.960464 
	C452.701538,129.958908 435.133423,126.755531 418.891663,118.353638 
	C409.301056,113.392387 399.979309,107.908646 390.360962,103.004532 
	C376.522064,95.948486 362.334778,89.923492 346.255951,90.745651 
	C344.991272,90.810318 343.687103,90.101730 342.401276,89.752518 
	C342.033417,89.151398 341.665588,88.550278 341.297760,87.949158 
	C348.388824,81.455032 355.139801,74.531815 362.656128,68.574280 
	C372.264435,60.958645 382.550201,54.202667 392.393341,46.873878 
	C394.133423,45.578293 395.136841,43.293297 396.791779,41.041580 
	C399.193665,42.053120 402.251953,43.857769 405.548645,44.592037 
	C409.244629,45.415253 411.327057,47.106369 411.694855,50.932682 
	C411.694855,50.932682 411.730347,51.000340 411.619019,51.728905 
	C411.494690,53.919579 411.370361,56.110256 411.098846,58.733547 
	C411.038422,59.044891 411.077820,59.343044 411.001434,60.303349 
	C410.743134,65.527542 410.484833,70.751732 410.042480,76.479988 
	C410.086395,76.653381 410.130280,76.826782 410.024872,77.893684 
	C409.656647,85.014977 408.904297,92.142365 409.017212,99.256020 
	C409.158905,108.179756 419.793060,115.786972 427.380768,113.204849 
	C436.869690,109.975739 446.500244,107.162994 456.532349,104.398277 
	C456.687744,104.324791 456.843140,104.251305 457.719421,104.456184 
M132.740692,73.467285 
	C133.834595,73.149971 135.194168,72.246567 135.982315,72.603806 
	C146.762817,77.490181 156.981491,83.125710 164.903381,92.355583 
	C181.612198,111.823166 201.996124,123.454636 228.616486,120.904457 
	C232.403687,120.541649 236.147507,119.725784 240.880997,118.963448 
	C236.137863,110.376030 227.412598,110.396660 222.128891,105.854332 
	C225.539124,100.428459 228.928299,95.036079 231.332489,91.210861 
	C236.903183,90.935127 241.604584,91.835686 245.287399,90.297501 
	C254.567871,86.421379 256.687134,87.042686 259.129120,96.867760 
	C259.447540,98.148918 259.802429,99.427917 260.009155,100.728790 
	C261.247040,108.516937 264.921844,111.297417 273.609833,110.542969 
	C271.896851,105.613480 270.382324,100.731232 268.496307,95.996979 
	C267.043823,92.351013 267.765015,90.277267 271.814087,89.769058 
	C273.782104,89.522041 275.797668,89.474648 277.709564,89.003540 
	C280.266937,88.373375 282.744537,87.419556 285.371613,86.567345 
	C282.843170,81.601128 279.243713,80.159004 275.044495,79.965378 
	C271.890594,79.819946 268.632996,79.502716 265.583221,80.094810 
	C261.159332,80.953682 259.416748,79.035423 258.151306,75.199974 
	C255.971878,68.594193 253.376953,62.126022 250.982101,55.590694 
	C246.308762,42.837719 241.897797,29.981792 236.917435,17.350163 
	C232.449844,6.019067 220.742249,3.167284 211.337692,11.040189 
	C212.839615,12.164533 214.318970,13.167394 215.678528,14.312510 
	C218.167862,16.409239 221.516068,18.123449 222.868790,20.818886 
	C227.920807,30.885464 232.316437,41.281857 236.913239,51.574650 
	C237.056900,51.896324 236.706970,52.438427 236.492035,53.226570 
	C232.395752,53.226570 228.323395,53.226570 224.609970,53.226570 
	C226.860260,72.489059 210.912384,82.788536 204.895828,97.723366 
	C201.774292,96.330414 199.230392,95.475662 196.971893,94.138771 
	C187.292175,88.409012 177.543564,82.772255 168.120438,76.640015 
	C161.075455,72.055367 154.490967,66.763313 147.698166,61.790691 
	C146.918655,61.220051 146.118240,60.677963 144.498169,59.540188 
	C151.093048,54.330418 157.091202,49.220760 163.479858,44.657852 
	C168.997528,40.717022 174.769806,37.036522 180.770493,33.891464 
	C189.066452,29.543419 190.526062,23.782351 184.299774,16.866337 
	C181.971970,14.280635 179.350235,11.956388 176.824295,9.553092 
	C174.174362,7.031831 171.402298,6.489812 169.176559,9.539338 
	C168.482925,12.865422 167.854340,16.520676 165.761032,18.871849 
	C157.254898,28.425831 148.325699,37.604862 139.485611,46.858246 
	C137.861526,48.558273 135.926575,49.961327 134.427277,51.250271 
	C128.556030,45.453812 131.310806,35.506660 120.985115,32.381691 
	C113.153114,30.011415 106.320930,25.826206 97.342560,30.999552 
	C100.726273,34.142086 103.607742,37.059570 106.742950,39.672607 
	C111.294731,43.466301 116.061111,47.480446 116.718834,53.526497 
	C117.810806,63.564362 118.020905,73.713181 118.244606,83.823189 
	C118.335808,87.945358 117.179695,92.086357 117.155144,96.222130 
	C117.125793,101.164131 122.464111,108.149277 125.588707,107.244781 
	C130.725784,105.757706 130.846863,101.046074 131.063629,96.630402 
	C131.430542,89.156204 131.873352,81.685738 132.740692,73.467285 
M54.881821,177.150772 
	C58.484386,177.150772 62.086952,177.150772 66.948746,177.150772 
	C62.894951,171.674026 66.365623,168.641830 68.539322,165.160095 
	C69.239510,164.038544 69.762451,161.474136 69.309059,161.175598 
	C65.718849,158.811462 62.598648,155.137161 57.366299,156.685608 
	C54.540993,157.521698 51.497257,157.708603 48.532768,157.967209 
	C42.132370,158.525574 35.719521,158.941208 29.426958,159.406738 
	C31.334297,166.343536 33.375328,173.766571 35.088814,179.998367 
	C39.929581,179.042282 43.453800,178.231583 47.018402,177.683472 
	C49.301373,177.332458 51.643929,177.368988 54.881821,177.150772 
M380.344574,163.038147 
	C382.049438,162.828156 383.754303,162.618149 385.699036,162.378601 
	C387.207977,168.219803 388.726501,174.098099 390.415619,180.636841 
	C398.080475,178.046707 394.884369,170.159042 398.392242,166.468033 
	C402.705231,169.774918 398.098206,178.838318 406.876068,180.359634 
	C408.668518,172.995010 410.306854,166.263687 412.103943,158.880020 
	C404.220459,159.223770 408.837677,167.820175 404.014801,169.882446 
	C402.991455,166.212006 401.986816,162.608627 401.029327,159.174438 
	C399.097229,159.174438 397.634277,159.174438 396.165558,159.174438 
	C394.980316,163.487823 393.845245,167.618469 392.414368,172.825729 
	C391.049255,167.530014 389.951782,163.272400 388.885529,159.136047 
	C381.972992,159.136047 375.512695,159.136047 368.666351,159.136047 
	C368.732758,160.505844 368.790405,161.695175 368.847229,162.867645 
	C371.007263,163.000504 372.785919,163.109909 374.961761,163.243744 
	C374.961761,168.919769 374.961761,174.347321 374.961761,179.774887 
	C375.469879,180.020798 375.978027,180.266724 376.486145,180.512650 
	C377.283813,179.337097 378.655823,178.217422 378.776581,176.976013 
	C379.222778,172.389450 379.255524,167.762650 380.344574,163.038147 
M297.313324,104.754211 
	C298.671814,107.478905 299.475220,110.789917 304.014587,110.824547 
	C304.756592,101.294632 305.205627,91.863182 306.300842,82.507378 
	C307.364319,73.422958 298.855743,66.153671 291.528748,68.913727 
	C292.747559,72.356773 294.587830,75.682236 295.031647,79.184662 
	C296.072632,87.399841 296.445312,95.699715 297.313324,104.754211 
M227.844467,170.798813 
	C230.891815,173.871506 230.491562,180.786148 237.763687,179.826294 
	C237.763687,173.651688 237.656296,167.842072 237.805786,162.039078 
	C237.889404,158.792572 236.479767,158.443481 233.433044,159.551453 
	C233.433044,163.311554 233.433044,167.133118 233.433044,171.126877 
	C228.165421,168.015381 229.243729,159.088348 220.986908,158.933014 
	C220.986908,165.390396 221.099716,171.201141 220.943283,177.004639 
	C220.853958,180.318771 222.373184,180.398788 225.218506,179.572586 
	C225.218506,175.578537 225.218506,171.734375 225.218506,167.146957 
	C226.325470,168.638199 226.899689,169.411758 227.844467,170.798813 
M314.321686,171.268311 
	C319.145386,170.172409 319.503754,174.914612 321.919434,176.995987 
	C323.564941,178.413788 325.546021,179.442123 327.377075,180.644592 
	C327.726196,180.175308 328.075317,179.706024 328.424438,179.236725 
	C326.420044,176.247910 324.415619,173.259079 322.428314,170.295807 
	C325.784851,169.343567 327.725708,167.106445 326.881042,163.381348 
	C326.081879,159.857056 323.235321,158.983292 319.998932,158.983475 
	C316.742767,158.983658 313.486603,158.983521 310.003082,158.983521 
	C310.003082,165.528305 309.866821,171.478210 310.130249,177.410355 
	C310.176971,178.463150 311.886658,179.442108 312.828461,180.455154 
	C313.227997,180.122574 313.627563,179.790009 314.027130,179.457428 
	C314.027130,176.995682 314.027130,174.533936 314.321686,171.268311 
M469.411469,177.792252 
	C467.764313,175.326874 466.117126,172.861481 464.469971,170.396103 
	C464.880280,170.618271 465.290619,170.840424 465.700958,171.062576 
	C466.786499,168.536255 468.858185,165.958389 468.729492,163.495514 
	C468.530090,159.680481 465.002014,158.949554 461.600067,158.977417 
	C458.498138,159.002808 455.395844,158.982803 452.242798,158.982803 
	C452.242798,166.265381 452.242798,172.998901 452.242798,179.744019 
	C453.557281,179.744019 454.628143,179.744019 456.067200,179.744019 
	C456.067200,176.732819 456.067200,173.980270 456.067200,169.733429 
	C458.471222,171.451920 460.119293,172.292435 461.305328,173.563950 
	C462.761810,175.125320 463.714111,177.146576 465.100037,178.786819 
	C466.765594,180.758026 468.448273,180.524368 469.411469,177.792252 
M259.292694,168.983856 
	C256.993225,168.983856 254.693741,168.983856 252.536865,168.983856 
	C249.986435,174.619995 256.092926,171.923401 257.202087,174.253021 
	C253.631699,176.592636 249.725769,177.299301 247.390305,173.901062 
	C245.972672,171.838287 245.762695,167.381317 247.084641,165.349823 
	C249.323715,161.908981 253.100510,161.980179 256.529144,165.028519 
	C257.298370,165.712433 259.194427,165.128983 260.990723,165.128983 
	C257.645477,158.997681 252.084366,157.338455 246.627060,160.131836 
	C241.704147,162.651688 239.771912,169.597855 242.525803,174.875397 
	C244.971283,179.561905 251.120026,181.323563 256.911835,178.997116 
	C261.393677,177.196854 262.006561,175.349655 259.292694,168.983856 
M153.752960,165.514709 
	C152.421295,172.250153 153.906982,176.741135 158.194489,178.940765 
	C163.002121,181.407242 169.271332,179.684540 171.614258,175.253174 
	C174.309906,170.154617 172.604416,162.710831 168.169647,160.218857 
	C162.904541,157.260300 157.506134,158.978195 153.752960,165.514709 
M306.325867,45.282681 
	C305.269135,41.539658 297.445526,34.855732 293.924896,34.981865 
	C290.551575,35.102715 288.058685,36.443069 288.991211,40.506283 
	C289.429871,42.417717 289.691010,44.619583 290.825989,46.068161 
	C293.008484,48.853611 295.949188,53.371410 298.220093,53.169727 
	C301.031708,52.920029 303.482208,48.603828 306.325867,45.282681 
M116.008553,171.465668 
	C116.008553,174.226471 116.008553,176.987259 116.008553,179.674789 
	C130.519211,180.913452 131.517761,180.685745 131.218277,175.864578 
	C127.525887,175.864578 123.793495,175.864578 119.845573,175.864578 
	C120.039490,173.933609 120.179581,172.538544 120.348793,170.853516 
	C123.802391,170.853516 126.909859,170.853516 129.977081,170.853516 
	C129.977081,169.445099 129.977081,168.370804 129.977081,167.322952 
	C120.030449,166.442032 120.030449,166.442032 120.798073,162.794708 
	C124.146095,162.794708 127.574196,162.794708 131.022736,162.794708 
	C130.659271,158.594421 125.922531,157.687790 116.008492,159.645630 
	C116.008492,163.221008 116.008492,166.851349 116.008553,171.465668 
M286.483459,178.166855 
	C293.763489,166.363495 280.611877,168.758530 276.793884,164.667450 
	C276.934631,164.157318 277.075409,163.647202 277.216156,163.137070 
	C280.704407,163.718018 284.192627,164.298950 288.053070,164.941879 
	C286.426208,159.222061 282.466003,158.223389 278.445068,159.274750 
	C276.288635,159.838608 273.469482,162.467178 273.145142,164.512268 
	C272.394562,169.245285 276.645020,170.069168 280.204163,171.110703 
	C281.826996,171.585617 283.331726,172.464050 285.081177,173.244766 
	C280.384491,180.381271 276.321381,171.265778 272.048126,173.347870 
	C274.225800,179.958786 278.550049,181.563522 286.483459,178.166855 
M346.086487,161.458130 
	C345.408051,160.636139 344.765259,159.140930 344.045380,159.102859 
	C339.795349,158.878113 335.527344,158.992142 331.294556,158.992142 
	C331.294556,166.290405 331.294556,173.006531 331.294556,179.690536 
	C345.404572,180.929749 346.514648,180.677841 346.227570,175.868530 
	C342.531616,175.868530 338.796661,175.868530 334.846283,175.868530 
	C335.039642,173.933823 335.178986,172.539719 335.347565,170.853027 
	C338.801514,170.853027 341.910004,170.853027 344.971985,170.853027 
	C344.971985,169.435669 344.971985,168.366394 344.971985,167.319946 
	C335.019379,166.446640 335.019379,166.446640 335.696014,163.326904 
	C339.163879,163.014801 342.583252,162.707077 346.086487,161.458130 
M365.612335,179.367371 
	C366.212494,176.757355 365.231903,175.754730 362.528381,175.945938 
	C359.763794,176.141479 356.974609,175.989258 354.279999,175.989258 
	C354.279999,174.056564 354.279999,172.665283 354.279999,170.944641 
	C357.666504,170.944641 360.773407,170.944641 364.211945,170.944641 
	C364.069641,169.406830 363.961395,168.237305 363.825653,166.770813 
	C360.340057,166.770813 357.234650,166.770813 354.129272,166.770813 
	C353.879883,166.327866 353.630524,165.884933 353.381134,165.441986 
	C354.437256,164.632156 355.393219,163.386597 356.573151,163.115372 
	C358.310059,162.716156 360.208466,163.063141 362.034882,162.999695 
	C364.922577,162.899399 364.921448,162.866928 364.556732,159.251465 
	C359.815613,159.251465 355.074860,159.251465 350.267456,159.251465 
	C350.267456,166.235565 350.267456,172.952362 350.267456,179.886398 
	C355.309601,179.886398 360.096375,179.886398 365.612335,179.367371 
M429.084412,161.457748 
	C428.406006,160.635666 427.763245,159.140244 427.043396,159.102173 
	C422.792755,158.877426 418.524170,158.991470 414.289642,158.991470 
	C414.289642,166.284454 414.289642,173.000412 414.289642,179.787018 
	C419.496796,179.787018 424.417786,179.787018 429.337067,179.787018 
	C430.811554,175.274246 427.722900,176.020966 425.375916,175.994965 
	C422.941132,175.967987 420.505798,175.988953 417.838287,175.988953 
	C418.039062,173.942032 418.175903,172.547104 418.341522,170.858627 
	C421.794037,170.858627 424.898468,170.858627 427.976013,170.858627 
	C427.976013,169.448257 427.976013,168.373840 427.976013,167.325699 
	C418.028015,166.439316 418.028015,166.439316 418.696686,163.326920 
	C422.162781,163.014679 425.581818,162.706665 429.084412,161.457748 
M434.225647,170.664597 
	C433.242004,173.626373 432.258362,176.588165 431.277313,179.542206 
	C436.069794,181.842300 435.541687,177.112167 436.931641,175.204239 
	C439.419647,175.204239 441.706787,175.204239 444.119659,175.204239 
	C445.073334,178.001740 445.414398,181.661011 449.948303,179.516739 
	C447.840912,173.450089 445.823669,167.336472 443.527435,161.329468 
	C443.137573,160.309570 441.612732,159.284302 440.494080,159.132446 
	C439.713348,159.026489 438.329529,160.226761 437.913391,161.156189 
	C436.632202,164.017883 435.686523,167.029785 434.225647,170.664597 
M138.172226,161.196945 
	C136.740112,160.299667 135.307999,159.402390 133.875885,158.505112 
	C135.202072,165.573059 137.076767,171.595413 139.233826,177.514893 
	C139.618622,178.570892 141.176224,179.849976 142.187698,179.846024 
	C143.219437,179.842026 144.766586,178.590179 145.187744,177.527771 
	C147.550735,171.566666 149.641663,165.497711 152.228027,158.353516 
	C143.456299,160.889053 146.687424,169.685730 142.158295,173.705124 
	C140.900803,169.833725 139.624939,165.905792 138.172226,161.196945 
M208.984100,164.626648 
	C209.592651,162.914566 210.201202,161.202499 210.809753,159.490433 
	C210.376236,159.218674 209.942734,158.946930 209.509232,158.675171 
	C203.040665,161.238678 205.273041,169.414505 201.211899,173.844482 
	C199.991699,170.091858 198.518402,166.404099 197.632462,162.580246 
	C196.867874,159.280228 195.474213,158.106079 192.192032,159.490234 
	C194.168549,165.457993 195.987076,171.327377 198.119888,177.080246 
	C198.565689,178.282745 200.200211,179.848267 201.234467,179.810455 
	C202.343750,179.769913 203.840546,178.232895 204.381683,177.002869 
	C206.047791,173.215958 207.338165,169.263748 208.984100,164.626648 
M297.895111,171.514679 
	C297.895111,174.286819 297.895111,177.058960 297.895111,179.900208 
	C299.252441,179.900208 300.765381,179.979462 300.775604,179.888885 
	C301.404266,174.326050 301.909851,168.749298 302.425873,163.184235 
	C307.868713,162.892563 307.868713,162.892563 307.188843,159.180450 
	C302.089966,159.180450 296.987915,159.180450 291.891602,159.180450 
	C290.254913,165.580322 296.202454,161.575058 297.894684,164.050339 
	C297.894684,165.948715 297.894684,168.248764 297.895111,171.514679 
M176.002472,163.677124 
	C176.002472,168.968430 176.002472,174.259735 176.002472,179.779022 
	C181.139587,179.779022 185.893143,179.779022 191.027481,179.779022 
	C190.943359,178.470169 190.868637,177.307343 190.768097,175.742981 
	C186.980042,175.742981 183.564102,175.742981 179.903931,175.742981 
	C179.903931,170.029846 179.903931,164.740234 179.903931,159.491638 
	C176.096283,157.955963 175.800125,160.063568 176.002472,163.677124 
M53.513592,105.619896 
	C52.863667,106.397285 52.213741,107.174667 51.563816,107.952049 
	C51.771637,108.228073 51.979454,108.504097 52.187275,108.780121 
	C57.658474,106.042656 63.129677,103.305191 68.741577,100.497322 
	C64.669395,95.422981 62.323509,94.498222 58.655441,95.354012 
	C56.828255,99.071770 55.361206,102.056755 53.513592,105.619896 
M217.014954,165.592270 
	C216.037903,163.406586 219.362061,158.587845 212.986450,159.086731 
	C212.986450,165.479294 212.848419,171.452423 213.114639,177.407486 
	C213.162155,178.470230 214.884857,179.458084 215.834061,180.480515 
	C216.227692,180.146225 216.621323,179.811951 217.014954,179.477676 
	C217.014954,175.175140 217.014954,170.872620 217.014954,165.592270 
M33.791561,100.304146 
	C35.423336,103.362587 37.055115,106.421028 38.686890,109.479469 
	C39.331261,109.440170 39.975628,109.400871 40.619999,109.361572 
	C41.330864,107.465698 43.112148,105.123650 42.544106,103.760841 
	C41.068748,100.221321 37.982834,98.345047 33.791561,100.304146 
M39.084316,69.066185 
	C38.130463,69.470604 37.176605,69.875023 36.222752,70.279434 
	C36.380394,70.634033 36.538040,70.988625 36.695683,71.343216 
	C37.719997,70.781578 38.744312,70.219933 39.084316,69.066185 
z"/>
<path fill="#252324" opacity="1.000000" stroke="none" 
	d="
M132.512466,73.840492 
	C131.873352,81.685738 131.430542,89.156204 131.063629,96.630402 
	C130.846863,101.046074 130.725784,105.757706 125.588707,107.244781 
	C122.464111,108.149277 117.125793,101.164131 117.155144,96.222130 
	C117.179695,92.086357 118.335808,87.945358 118.244606,83.823189 
	C118.020905,73.713181 117.810806,63.564362 116.718834,53.526497 
	C116.061111,47.480446 111.294731,43.466301 106.742950,39.672607 
	C103.607742,37.059570 100.726273,34.142086 97.342560,30.999552 
	C106.320930,25.826206 113.153114,30.011415 120.985115,32.381691 
	C131.310806,35.506660 128.556030,45.453812 134.427277,51.250271 
	C135.926575,49.961327 137.861526,48.558273 139.485611,46.858246 
	C148.325699,37.604862 157.254898,28.425831 165.761032,18.871849 
	C167.854340,16.520676 168.482925,12.865422 169.176559,9.539338 
	C171.402298,6.489812 174.174362,7.031831 176.824295,9.553092 
	C179.350235,11.956388 181.971970,14.280635 184.299774,16.866337 
	C190.526062,23.782351 189.066452,29.543419 180.770493,33.891464 
	C174.769806,37.036522 168.997528,40.717022 163.479858,44.657852 
	C157.091202,49.220760 151.093048,54.330418 144.498169,59.540188 
	C146.118240,60.677963 146.918655,61.220051 147.698166,61.790691 
	C154.490967,66.763313 161.075455,72.055367 168.120438,76.640015 
	C177.543564,82.772255 187.292175,88.409012 196.971893,94.138771 
	C199.230392,95.475662 201.774292,96.330414 204.895828,97.723366 
	C210.912384,82.788536 226.860260,72.489059 224.609970,53.226570 
	C228.323395,53.226570 232.395752,53.226570 236.492035,53.226570 
	C236.706970,52.438427 237.056900,51.896324 236.913239,51.574650 
	C232.316437,41.281857 227.920807,30.885464 222.868790,20.818886 
	C221.516068,18.123449 218.167862,16.409239 215.678528,14.312510 
	C214.318970,13.167394 212.839615,12.164533 211.337692,11.040189 
	C220.742249,3.167284 232.449844,6.019067 236.917435,17.350163 
	C241.897797,29.981792 246.308762,42.837719 250.982101,55.590694 
	C253.376953,62.126022 255.971878,68.594193 258.151306,75.199974 
	C259.416748,79.035423 261.159332,80.953682 265.583221,80.094810 
	C268.632996,79.502716 271.890594,79.819946 275.044495,79.965378 
	C279.243713,80.159004 282.843170,81.601128 285.371613,86.567345 
	C282.744537,87.419556 280.266937,88.373375 277.709564,89.003540 
	C275.797668,89.474648 273.782104,89.522041 271.814087,89.769058 
	C267.765015,90.277267 267.043823,92.351013 268.496307,95.996979 
	C270.382324,100.731232 271.896851,105.613480 273.609833,110.542969 
	C264.921844,111.297417 261.247040,108.516937 260.009155,100.728790 
	C259.802429,99.427917 259.447540,98.148918 259.129120,96.867760 
	C256.687134,87.042686 254.567871,86.421379 245.287399,90.297501 
	C241.604584,91.835686 236.903183,90.935127 231.332489,91.210861 
	C228.928299,95.036079 225.539124,100.428459 222.128891,105.854332 
	C227.412598,110.396660 236.137863,110.376030 240.880997,118.963448 
	C236.147507,119.725784 232.403687,120.541649 228.616486,120.904457 
	C201.996124,123.454636 181.612198,111.823166 164.903381,92.355583 
	C156.981491,83.125710 146.762817,77.490181 135.982315,72.603806 
	C135.194168,72.246567 133.834595,73.149971 132.512466,73.840492 
M243.266724,66.654007 
	C237.300400,69.435486 237.697174,75.481720 235.590759,81.047028 
	C241.068161,81.741913 246.066513,82.376022 252.036041,83.133347 
	C249.069199,77.366096 246.458527,72.291206 243.266724,66.654007 
z"/>
<path fill="#252425" opacity="1.000000" stroke="none" 
	d="
M457.139130,34.827785 
	C458.442474,35.282806 459.745789,35.737835 460.929871,36.669342 
	C460.953339,37.809395 461.096130,38.472977 460.929260,39.405155 
	C456.746918,39.367558 452.874268,39.061359 448.998779,38.377472 
	C448.220276,37.031796 447.444580,36.063812 446.668915,35.095825 
	C446.111206,36.282818 445.553497,37.469807 444.618195,38.748520 
	C435.627258,38.970982 426.943573,38.693871 419.810364,42.107841 
	C423.287201,49.095119 426.937622,55.329060 429.478577,61.986462 
	C430.819611,65.500031 432.375092,67.186462 435.922577,68.319786 
	C441.624084,70.141258 447.044281,72.843185 452.382782,75.642609 
	C452.119873,76.446739 452.057495,76.781357 451.695923,77.409660 
	C445.791473,77.473053 440.187927,77.180634 434.580566,77.029480 
	C428.671844,76.870209 425.988159,78.923500 426.196014,84.738251 
	C426.391327,90.201851 427.799194,95.622093 428.676392,101.079086 
	C434.463196,100.693062 439.231781,100.374962 444.061462,100.403549 
	C446.104218,102.593941 448.258514,105.464676 449.415955,99.808060 
	C451.554596,99.763969 453.277283,99.842216 455.003479,100.292343 
	C455.361176,101.832977 455.715424,103.001740 456.069672,104.170502 
	C446.500244,107.162994 436.869690,109.975739 427.380768,113.204849 
	C419.793060,115.786972 409.158905,108.179756 409.017212,99.256020 
	C408.904297,92.142365 409.656647,85.014977 410.409271,77.441833 
	C411.402069,76.637878 412.010468,76.285767 412.618866,75.933655 
	C411.821411,75.947746 411.023987,75.961838 410.226501,75.975929 
	C410.484833,70.751732 410.743134,65.527542 411.445526,60.099731 
	C412.514160,59.780170 413.138733,59.664223 413.763275,59.548271 
	C412.924194,59.132488 412.085114,58.716709 411.246033,58.300934 
	C411.370361,56.110256 411.494690,53.919579 412.000671,51.334373 
	C412.739136,50.665020 413.095917,50.390198 413.452698,50.115376 
	C413.269409,49.889702 413.086090,49.664032 412.902802,49.438362 
	C412.496399,49.911282 412.089996,50.384205 411.683563,50.857121 
	C411.327057,47.106369 409.244629,45.415253 405.548645,44.592037 
	C402.251953,43.857769 399.193665,42.053120 396.791779,41.041580 
	C395.136841,43.293297 394.133423,45.578293 392.393341,46.873878 
	C382.550201,54.202667 372.264435,60.958645 362.656128,68.574280 
	C355.139801,74.531815 348.388824,81.455032 341.297760,87.949158 
	C341.665588,88.550278 342.033417,89.151398 342.401276,89.752518 
	C343.687103,90.101730 344.991272,90.810318 346.255951,90.745651 
	C362.334778,89.923492 376.522064,95.948486 390.360962,103.004532 
	C399.979309,107.908646 409.301056,113.392387 418.891663,118.353638 
	C435.133423,126.755531 452.701538,129.958908 470.761963,130.960464 
	C474.400024,131.162231 478.058838,130.989624 481.708099,130.989624 
	C481.995819,131.439194 482.283569,131.888779 482.571289,132.338348 
	C480.606171,133.878632 478.840576,136.312317 476.641174,136.803497 
	C467.456360,138.854691 458.159332,140.434235 448.862854,141.935089 
	C446.102020,142.380798 443.166748,141.691589 440.383423,142.062607 
	C432.075989,143.169983 425.979065,139.068161 419.535339,134.606400 
	C400.422272,121.372124 381.068604,108.319717 357.973999,102.891685 
	C351.740906,101.426689 345.109253,101.104385 338.684021,101.255714 
	C335.711182,101.325729 332.862640,103.977402 329.823029,105.090889 
	C328.395020,105.613983 326.030701,105.959152 325.163300,105.184273 
	C322.658264,102.946419 320.698029,100.098701 318.523865,97.490463 
	C319.501068,96.700165 320.401550,95.782135 321.468597,95.141441 
	C326.351929,92.209343 331.798279,89.969589 336.098022,86.357094 
	C348.851227,75.642281 358.000824,61.935188 366.613464,47.763351 
	C360.732117,46.528458 351.953949,50.775196 348.093292,56.579865 
	C343.711273,63.168373 342.145874,63.581505 335.300842,59.272381 
	C331.655243,56.977364 328.052399,54.525997 324.821686,51.698013 
	C323.229553,50.304371 322.526367,47.895184 320.916901,45.056622 
	C338.328156,47.402420 352.876465,38.812222 368.704895,37.884281 
	C371.421295,37.725029 374.359100,36.875008 376.684784,35.488770 
	C380.937744,32.953815 384.720825,32.848091 388.676178,35.813553 
	C389.843018,36.688366 391.214233,37.290562 393.382629,38.524696 
	C392.417847,34.927612 391.681519,32.182232 390.807281,28.922712 
	C399.469055,29.636147 407.786835,30.321249 416.568176,31.491043 
	C417.780273,32.610336 418.528778,33.244934 419.277313,33.879532 
	C419.896637,33.055866 420.515961,32.232204 421.135254,31.408539 
	C430.807343,31.945158 440.479431,32.481781 450.581482,33.452751 
	C451.811737,37.122078 452.896973,35.682938 453.992889,34.068844 
	C454.919647,34.142006 455.846405,34.215168 456.680420,34.639214 
	C456.242859,35.395489 455.895355,35.798794 455.568451,36.218147 
	C455.560181,36.228737 455.778687,36.416122 455.891449,36.521053 
	C456.307343,35.956635 456.723236,35.392212 457.139130,34.827785 
M424.477997,34.686905 
	C425.022980,35.024666 425.567963,35.362427 426.112946,35.700199 
	C426.247284,35.426762 426.381653,35.153324 426.515991,34.879883 
	C425.982269,34.675354 425.448547,34.470825 424.477997,34.686905 
M413.468475,80.233696 
	C413.595734,79.846695 413.743835,79.464355 413.832489,79.068695 
	C413.849945,78.990692 413.638306,78.861366 413.532318,78.755699 
	C413.405212,79.142700 413.278137,79.529694 413.468475,80.233696 
M410.414551,36.483234 
	C410.414551,36.483234 410.522736,36.419250 410.414551,36.483234 
M400.414581,35.483231 
	C400.414581,35.483231 400.522766,35.419243 400.414581,35.483231 
M404.483215,34.585426 
	C404.483215,34.585426 404.419220,34.477234 404.483215,34.585426 
z"/>
<path fill="#262525" opacity="1.000000" stroke="none" 
	d="
M500.126373,66.694778 
	C502.084839,68.129311 504.043304,69.563850 506.001770,70.998383 
	C506.541321,70.808464 507.080872,70.618553 507.620392,70.428635 
	C505.470490,49.574379 510.179779,28.317467 502.606995,6.642665 
	C504.621094,7.409079 506.615906,7.606926 507.737152,8.700457 
	C511.051971,11.933343 514.023376,15.518627 517.125977,18.968821 
	C524.206970,26.842989 522.344482,36.262913 521.754395,45.488373 
	C520.800049,60.410469 520.188110,75.360130 518.918640,90.254433 
	C518.061401,100.310699 516.430176,110.308197 514.909363,120.296082 
	C514.482300,123.100594 513.336609,125.921333 508.486115,124.651184 
	C508.279938,115.091225 507.598053,105.305511 508.017181,95.567192 
	C508.318573,88.565269 506.139832,83.341667 500.868103,79.036293 
	C498.946655,77.467087 497.293304,75.569633 495.854889,73.208893 
	C497.503540,70.628815 498.814941,68.661797 500.126373,66.694778 
z"/>
<path fill="#2A2929" opacity="1.000000" stroke="none" 
	d="
M31.000441,136.996613 
	C29.958227,136.009338 28.916016,135.022049 26.645466,132.871170 
	C31.114700,132.292297 34.391163,132.350891 37.292274,131.336258 
	C39.531269,130.553177 44.598957,133.426895 43.869511,127.261147 
	C41.799400,127.261147 39.944653,127.543289 38.236992,127.163727 
	C37.063789,126.902946 36.094810,125.723396 35.034554,124.954514 
	C35.929901,124.251335 36.726707,123.259766 37.743607,122.912292 
	C39.284649,122.385719 40.978745,122.307053 43.045002,121.965919 
	C42.960148,120.759308 42.863003,119.377975 42.772411,118.089806 
	C38.275826,117.262543 33.268002,118.927444 30.184048,112.900177 
	C34.632435,112.441071 38.509357,112.190666 42.336536,111.611572 
	C48.383091,110.696686 54.385921,109.493385 60.431545,108.571404 
	C61.786438,108.364769 63.454800,108.437187 64.589180,109.074608 
	C65.663994,109.678566 66.967987,111.312614 66.812294,112.273445 
	C66.648979,113.281258 64.974594,114.551811 63.777874,114.790192 
	C60.060677,115.530632 56.256779,115.835831 52.417019,116.318634 
	C51.338036,119.721603 52.617008,120.622925 55.720535,120.278511 
	C59.015522,119.912842 62.551655,119.466408 63.054363,123.847809 
	C60.011452,127.478020 53.502495,123.094284 51.504799,129.228867 
	C57.454285,129.746780 62.757202,130.121628 68.022476,130.792114 
	C68.590027,130.864380 68.939056,132.652649 69.549500,133.997513 
	C67.222809,134.692810 65.284393,135.272079 62.765186,136.024918 
	C65.194046,137.316208 67.048416,138.302078 70.284767,140.022690 
	C68.011002,141.706451 66.456917,142.857285 64.546005,144.470810 
	C64.576103,145.073975 64.963013,145.214432 65.349922,145.354889 
	C69.288887,144.889542 73.220558,144.130966 77.168663,144.032684 
	C82.162964,143.908371 85.188950,147.397568 85.038063,152.865051 
	C82.124588,152.865051 79.164177,153.133774 76.266464,152.821274 
	C57.925591,150.843292 39.828053,152.639267 21.851290,156.206375 
	C15.199857,157.526245 13.979486,156.982285 11.273080,150.152924 
	C19.196356,149.557068 27.079319,148.964249 35.643318,148.478958 
	C36.558868,148.391266 36.789436,148.191498 37.005470,147.992065 
	C36.994884,147.996964 36.973618,148.012222 37.423782,147.965530 
	C39.948509,147.918839 42.023071,147.918839 44.138630,147.918839 
	C44.138630,144.035522 44.138630,140.738724 44.138630,136.996613 
	C39.589287,136.996613 35.294865,136.996613 31.000441,136.996613 
M51.207878,142.535461 
	C51.317806,143.963379 51.427731,145.391296 51.533268,146.762222 
	C59.870010,147.145981 61.524647,144.328552 58.211651,135.889893 
	C56.177822,136.015350 54.092239,136.143997 51.854042,136.282059 
	C51.612206,138.381577 51.423779,140.017426 51.207878,142.535461 
z"/>
<path fill="#292828" opacity="1.000000" stroke="none" 
	d="
M51.915665,60.790359 
	C53.125950,59.054367 54.900143,57.789700 52.154446,55.370350 
	C49.537022,53.064037 47.862988,49.687088 45.289932,46.375256 
	C43.863483,45.326675 42.921310,44.683651 41.979141,44.040630 
	C41.979141,44.040630 42.055408,43.792667 42.058716,43.401993 
	C42.048355,42.477406 42.034691,41.943485 42.248795,41.240444 
	C42.653107,41.003490 42.829651,40.935658 43.006195,40.867825 
	C44.141403,41.137512 45.276615,41.407196 46.819893,42.084068 
	C47.427124,42.746391 47.682854,42.916489 47.995152,43.001545 
	C48.853859,43.868488 49.712566,44.735432 50.855652,46.111664 
	C52.110630,47.741596 53.081234,48.862232 54.051838,49.982872 
	C54.408833,50.582279 54.765823,51.181686 55.521561,52.228874 
	C56.463711,52.505058 57.007118,52.333469 57.550526,52.161873 
	C57.828381,51.052036 58.106239,49.942204 58.625481,48.261383 
	C58.885719,47.125721 58.904572,46.561039 58.923428,45.996357 
	C59.384319,42.947887 59.845211,39.899418 60.274918,36.103123 
	C59.414768,34.801632 58.585804,34.247967 57.756840,33.694305 
	C53.698971,34.195621 49.641106,34.696938 45.541172,35.203449 
	C45.577560,35.075386 45.771408,34.393192 46.210323,33.130524 
	C46.662758,31.711384 46.870125,30.872717 47.077492,30.034052 
	C48.726883,23.524755 50.346668,17.007706 52.047703,10.511933 
	C52.444057,8.998359 53.116592,7.557106 53.662052,6.082578 
	C56.031445,7.088988 58.599148,7.810359 60.667534,9.249413 
	C61.438633,9.785902 61.595768,12.242484 61.083664,13.405608 
	C58.899651,18.366037 56.360542,23.170120 53.356625,29.230419 
	C57.933865,27.353556 61.365726,25.467913 65.038506,24.589125 
	C68.070747,23.863596 71.418945,24.064213 74.559479,24.432108 
	C75.471519,24.538948 76.738708,26.638628 76.730827,27.817348 
	C76.725533,28.610508 74.870407,29.727068 73.658371,30.101061 
	C71.624023,30.728781 69.442680,30.880089 68.643402,31.012741 
	C68.434982,34.814419 68.753326,38.269352 67.959389,41.446323 
	C66.563049,47.033829 64.486633,52.451382 62.463032,58.650780 
	C68.914169,65.364777 79.034599,66.509186 87.125084,72.866379 
	C81.384598,73.725235 75.126297,76.385971 70.051704,74.927666 
	C65.141945,73.516724 61.450672,67.865746 56.988743,63.866085 
	C54.707581,65.115936 51.932961,66.891693 48.951508,68.193871 
	C46.264561,69.367432 43.351040,70.022217 40.537445,70.905792 
	C40.263000,70.335869 39.988556,69.765945 39.714108,69.196022 
	C42.828358,67.119606 45.942604,65.043198 49.758560,62.919411 
	C50.945396,62.178146 51.430531,61.484253 51.915665,60.790359 
z"/>
<path fill="#252425" opacity="1.000000" stroke="none" 
	d="
M500.002045,66.391037 
	C498.814941,68.661797 497.503540,70.628815 495.705994,72.900421 
	C494.989502,73.178078 494.764740,73.126755 494.624756,72.561401 
	C495.019440,69.483307 493.786133,69.204231 491.764587,70.100449 
	C490.800049,69.498573 489.835510,68.896698 487.698242,67.563026 
	C486.408630,74.546814 484.914032,80.997414 484.116547,87.533081 
	C483.578522,91.942268 484.042786,96.471519 484.024597,100.946915 
	C484.001190,106.699257 480.545227,109.185226 474.790802,107.650719 
	C471.458801,106.762192 468.114563,105.919769 464.387909,104.563416 
	C463.999939,102.768898 463.999847,101.467560 464.417725,100.108093 
	C469.150696,100.681305 473.465729,101.312637 478.006409,101.976990 
	C478.006409,100.600746 478.123016,99.772850 477.988434,98.988007 
	C476.618164,90.996056 474.548279,83.059601 473.956177,75.013268 
	C472.981781,61.772827 469.482483,49.679298 461.238892,39.136555 
	C461.096130,38.472977 460.953339,37.809395 461.090271,36.991978 
	C461.637573,37.033749 461.895630,37.385471 462.174103,37.402428 
	C472.803467,38.049755 479.178009,44.685951 485.276489,52.587444 
	C489.270020,57.761616 494.951965,61.632622 500.002045,66.391037 
z"/>
<path fill="#292828" opacity="1.000000" stroke="none" 
	d="
M38.206623,39.560989 
	C38.040455,39.551949 37.870594,39.515739 37.708645,39.537750 
	C27.502102,40.924847 27.522127,40.925598 27.355518,51.137074 
	C27.307196,54.098656 27.108677,57.057796 26.947737,60.732059 
	C29.423557,59.638115 31.326572,58.765427 33.255486,57.954330 
	C35.027508,57.209202 36.827423,56.530418 38.615047,55.822407 
	C38.976040,56.302967 39.337032,56.783527 39.698025,57.264088 
	C33.334728,62.849655 26.971430,68.435219 20.621500,74.009056 
	C15.444127,69.911263 16.201300,69.110161 18.166948,62.518894 
	C20.449240,54.865852 22.015171,46.626438 17.945518,38.754444 
	C17.592367,38.071339 17.334194,37.339130 17.264309,37.175121 
	C22.118820,36.365685 27.797968,36.911171 31.142622,34.376343 
	C33.696617,32.440731 33.294376,26.604439 34.167263,22.682680 
	C28.296318,20.180542 22.644852,30.273966 17.970091,22.035084 
	C23.418905,19.359356 28.479683,15.962829 34.046310,14.525728 
	C36.822605,13.808991 40.700855,16.384230 43.662636,18.165466 
	C44.273552,18.532875 43.387917,22.145090 42.567780,23.983204 
	C40.673931,28.227732 36.675755,31.949137 39.898880,37.880669 
	C39.305382,38.897984 38.756001,39.229485 38.206623,39.560989 
z"/>
<path fill="#2B2A2B" opacity="1.000000" stroke="none" 
	d="
M54.420799,177.191284 
	C51.643929,177.368988 49.301373,177.332458 47.018402,177.683472 
	C43.453800,178.231583 39.929581,179.042282 35.088814,179.998367 
	C33.375328,173.766571 31.334297,166.343536 29.426958,159.406738 
	C35.719521,158.941208 42.132370,158.525574 48.532768,157.967209 
	C51.497257,157.708603 54.540993,157.521698 57.366299,156.685608 
	C62.598648,155.137161 65.718849,158.811462 69.309059,161.175598 
	C69.762451,161.474136 69.239510,164.038544 68.539322,165.160095 
	C66.365623,168.641830 62.894951,171.674026 66.948746,177.150772 
	C62.086952,177.150772 58.484386,177.150772 54.420799,177.191284 
M45.379154,162.920486 
	C42.968803,163.294022 40.558449,163.667557 37.829365,164.090485 
	C38.027157,167.222870 38.200905,169.974396 38.415821,173.377975 
	C43.120342,172.942963 47.382381,172.667709 51.611275,172.131210 
	C58.732136,171.227783 59.634243,169.877350 58.446171,161.733658 
	C54.425816,162.074387 50.343735,162.420334 45.379154,162.920486 
z"/>
<path fill="#0E0911" opacity="1.000000" stroke="none" 
	d="
M379.894104,163.094574 
	C379.255524,167.762650 379.222778,172.389450 378.776581,176.976013 
	C378.655823,178.217422 377.283813,179.337097 376.486145,180.512650 
	C375.978027,180.266724 375.469879,180.020798 374.961761,179.774887 
	C374.961761,174.347321 374.961761,168.919769 374.961761,163.243744 
	C372.785919,163.109909 371.007263,163.000504 368.847229,162.867645 
	C368.790405,161.695175 368.732758,160.505844 368.666351,159.136047 
	C375.512695,159.136047 381.972992,159.136047 388.885529,159.136047 
	C389.951782,163.272400 391.049255,167.530014 392.414368,172.825729 
	C393.845245,167.618469 394.980316,163.487823 396.165558,159.174438 
	C397.634277,159.174438 399.097229,159.174438 401.029327,159.174438 
	C401.986816,162.608627 402.991455,166.212006 404.014801,169.882446 
	C408.837677,167.820175 404.220459,159.223770 412.103943,158.880020 
	C410.306854,166.263687 408.668518,172.995010 406.876068,180.359634 
	C398.098206,178.838318 402.705231,169.774918 398.392242,166.468033 
	C394.884369,170.159042 398.080475,178.046707 390.415619,180.636841 
	C388.726501,174.098099 387.207977,168.219803 385.699036,162.378601 
	C383.754303,162.618149 382.049438,162.828156 379.894104,163.094574 
z"/>
<path fill="#282627" opacity="1.000000" stroke="none" 
	d="
M297.200928,104.359756 
	C296.445312,95.699715 296.072632,87.399841 295.031647,79.184662 
	C294.587830,75.682236 292.747559,72.356773 291.528748,68.913727 
	C298.855743,66.153671 307.364319,73.422958 306.300842,82.507378 
	C305.205627,91.863182 304.756592,101.294632 304.014587,110.824547 
	C299.475220,110.789917 298.671814,107.478905 297.200928,104.359756 
z"/>
<path fill="#0E0D1B" opacity="1.000000" stroke="none" 
	d="
M227.659180,170.492065 
	C226.899689,169.411758 226.325470,168.638199 225.218506,167.146957 
	C225.218506,171.734375 225.218506,175.578537 225.218506,179.572586 
	C222.373184,180.398788 220.853958,180.318771 220.943283,177.004639 
	C221.099716,171.201141 220.986908,165.390396 220.986908,158.933014 
	C229.243729,159.088348 228.165421,168.015381 233.433044,171.126877 
	C233.433044,167.133118 233.433044,163.311554 233.433044,159.551453 
	C236.479767,158.443481 237.889404,158.792572 237.805786,162.039078 
	C237.656296,167.842072 237.763687,173.651688 237.763687,179.826294 
	C230.491562,180.786148 230.891815,173.871506 227.659180,170.492065 
z"/>
<path fill="#0D040E" opacity="1.000000" stroke="none" 
	d="
M314.174408,171.670258 
	C314.027130,174.533936 314.027130,176.995682 314.027130,179.457428 
	C313.627563,179.790009 313.227997,180.122574 312.828461,180.455154 
	C311.886658,179.442108 310.176971,178.463150 310.130249,177.410355 
	C309.866821,171.478210 310.003082,165.528305 310.003082,158.983521 
	C313.486603,158.983521 316.742767,158.983658 319.998932,158.983475 
	C323.235321,158.983292 326.081879,159.857056 326.881042,163.381348 
	C327.725708,167.106445 325.784851,169.343567 322.428314,170.295807 
	C324.415619,173.259079 326.420044,176.247910 328.424438,179.236725 
	C328.075317,179.706024 327.726196,180.175308 327.377075,180.644592 
	C325.546021,179.442123 323.564941,178.413788 321.919434,176.995987 
	C319.503754,174.914612 319.145386,170.172409 314.174408,171.670258 
M322.200531,166.050491 
	C321.892273,163.046158 320.625153,162.252640 316.203613,163.127365 
	C315.194122,163.327087 314.501831,165.130264 313.663544,166.195435 
	C314.030945,166.504929 314.398376,166.814407 314.765808,167.123901 
	C317.048126,166.970276 319.330444,166.816650 322.200531,166.050491 
z"/>
<path fill="#0D040E" opacity="1.000000" stroke="none" 
	d="
M469.602020,178.077972 
	C468.448273,180.524368 466.765594,180.758026 465.100037,178.786819 
	C463.714111,177.146576 462.761810,175.125320 461.305328,173.563950 
	C460.119293,172.292435 458.471222,171.451920 456.067200,169.733429 
	C456.067200,173.980270 456.067200,176.732819 456.067200,179.744019 
	C454.628143,179.744019 453.557281,179.744019 452.242798,179.744019 
	C452.242798,172.998901 452.242798,166.265381 452.242798,158.982803 
	C455.395844,158.982803 458.498138,159.002808 461.600067,158.977417 
	C465.002014,158.949554 468.530090,159.680481 468.729492,163.495514 
	C468.858185,165.958389 466.786499,168.536255 465.700958,171.062576 
	C465.290619,170.840424 464.880280,170.618271 464.469971,170.396103 
	C466.117126,172.861481 467.764313,175.326874 469.602020,178.077972 
M463.651947,163.256042 
	C461.230743,163.256042 458.809540,163.256042 456.388336,163.256042 
	C456.099243,163.617325 455.810150,163.978592 455.521057,164.339874 
	C456.562744,165.227066 457.521698,166.741074 458.660645,166.891418 
	C463.241394,167.496002 463.805481,167.035065 463.651947,163.256042 
z"/>
<path fill="#0D0A10" opacity="1.000000" stroke="none" 
	d="
M259.748352,169.029419 
	C262.006561,175.349655 261.393677,177.196854 256.911835,178.997116 
	C251.120026,181.323563 244.971283,179.561905 242.525803,174.875397 
	C239.771912,169.597855 241.704147,162.651688 246.627060,160.131836 
	C252.084366,157.338455 257.645477,158.997681 260.990723,165.128983 
	C259.194427,165.128983 257.298370,165.712433 256.529144,165.028519 
	C253.100510,161.980179 249.323715,161.908981 247.084641,165.349823 
	C245.762695,167.381317 245.972672,171.838287 247.390305,173.901062 
	C249.725769,177.299301 253.631699,176.592636 257.202087,174.253021 
	C256.092926,171.923401 249.986435,174.619995 252.536865,168.983856 
	C254.693741,168.983856 256.993225,168.983856 259.748352,169.029419 
z"/>
<path fill="#100C10" opacity="1.000000" stroke="none" 
	d="
M153.848877,165.130112 
	C157.506134,158.978195 162.904541,157.260300 168.169647,160.218857 
	C172.604416,162.710831 174.309906,170.154617 171.614258,175.253174 
	C169.271332,179.684540 163.002121,181.407242 158.194489,178.940765 
	C153.906982,176.741135 152.421295,172.250153 153.848877,165.130112 
M159.700516,164.003876 
	C156.555511,167.240540 156.484406,171.063934 159.164047,174.162521 
	C160.284363,175.457977 164.982498,175.876907 165.471024,175.090286 
	C167.008255,172.615067 168.323318,169.210037 167.863266,166.478424 
	C167.229416,162.714951 163.741898,162.347733 159.700516,164.003876 
z"/>
<path fill="#292828" opacity="1.000000" stroke="none" 
	d="
M306.207275,45.663548 
	C303.482208,48.603828 301.031708,52.920029 298.220093,53.169727 
	C295.949188,53.371410 293.008484,48.853611 290.825989,46.068161 
	C289.691010,44.619583 289.429871,42.417717 288.991211,40.506283 
	C288.058685,36.443069 290.551575,35.102715 293.924896,34.981865 
	C297.445526,34.855732 305.269135,41.539658 306.207275,45.663548 
z"/>
<path fill="#0A0209" opacity="1.000000" stroke="none" 
	d="
M116.008522,170.973679 
	C116.008492,166.851349 116.008492,163.221008 116.008492,159.645630 
	C125.922531,157.687790 130.659271,158.594421 131.022736,162.794708 
	C127.574196,162.794708 124.146095,162.794708 120.798073,162.794708 
	C120.030449,166.442032 120.030449,166.442032 129.977081,167.322952 
	C129.977081,168.370804 129.977081,169.445099 129.977081,170.853516 
	C126.909859,170.853516 123.802391,170.853516 120.348793,170.853516 
	C120.179581,172.538544 120.039490,173.933609 119.845573,175.864578 
	C123.793495,175.864578 127.525887,175.864578 131.218277,175.864578 
	C131.517761,180.685745 130.519211,180.913452 116.008553,179.674789 
	C116.008553,176.987259 116.008553,174.226471 116.008522,170.973679 
z"/>
<path fill="#0D0A10" opacity="1.000000" stroke="none" 
	d="
M286.199890,178.434189 
	C278.550049,181.563522 274.225800,179.958786 272.048126,173.347870 
	C276.321381,171.265778 280.384491,180.381271 285.081177,173.244766 
	C283.331726,172.464050 281.826996,171.585617 280.204163,171.110703 
	C276.645020,170.069168 272.394562,169.245285 273.145142,164.512268 
	C273.469482,162.467178 276.288635,159.838608 278.445068,159.274750 
	C282.466003,158.223389 286.426208,159.222061 288.053070,164.941879 
	C284.192627,164.298950 280.704407,163.718018 277.216156,163.137070 
	C277.075409,163.647202 276.934631,164.157318 276.793884,164.667450 
	C280.611877,168.758530 293.763489,166.363495 286.199890,178.434189 
z"/>
<path fill="#0A0209" opacity="1.000000" stroke="none" 
	d="
M346.044556,161.928741 
	C342.583252,162.707077 339.163879,163.014801 335.696014,163.326904 
	C335.019379,166.446640 335.019379,166.446640 344.971985,167.319946 
	C344.971985,168.366394 344.971985,169.435669 344.971985,170.853027 
	C341.910004,170.853027 338.801514,170.853027 335.347565,170.853027 
	C335.178986,172.539719 335.039642,173.933823 334.846283,175.868530 
	C338.796661,175.868530 342.531616,175.868530 346.227570,175.868530 
	C346.514648,180.677841 345.404572,180.929749 331.294556,179.690536 
	C331.294556,173.006531 331.294556,166.290405 331.294556,158.992142 
	C335.527344,158.992142 339.795349,158.878113 344.045380,159.102859 
	C344.765259,159.140930 345.408051,160.636139 346.044556,161.928741 
z"/>
<path fill="#0A0209" opacity="1.000000" stroke="none" 
	d="
M365.247742,179.626892 
	C360.096375,179.886398 355.309601,179.886398 350.267456,179.886398 
	C350.267456,172.952362 350.267456,166.235565 350.267456,159.251465 
	C355.074860,159.251465 359.815613,159.251465 364.556732,159.251465 
	C364.921448,162.866928 364.922577,162.899399 362.034882,162.999695 
	C360.208466,163.063141 358.310059,162.716156 356.573151,163.115372 
	C355.393219,163.386597 354.437256,164.632156 353.381134,165.441986 
	C353.630524,165.884933 353.879883,166.327866 354.129272,166.770813 
	C357.234650,166.770813 360.340057,166.770813 363.825653,166.770813 
	C363.961395,168.237305 364.069641,169.406830 364.211945,170.944641 
	C360.773407,170.944641 357.666504,170.944641 354.279999,170.944641 
	C354.279999,172.665283 354.279999,174.056564 354.279999,175.989258 
	C356.974609,175.989258 359.763794,176.141479 362.528381,175.945938 
	C365.231903,175.754730 366.212494,176.757355 365.247742,179.626892 
z"/>
<path fill="#0A0209" opacity="1.000000" stroke="none" 
	d="
M429.042664,161.928207 
	C425.581818,162.706665 422.162781,163.014679 418.696686,163.326920 
	C418.028015,166.439316 418.028015,166.439316 427.976013,167.325699 
	C427.976013,168.373840 427.976013,169.448257 427.976013,170.858627 
	C424.898468,170.858627 421.794037,170.858627 418.341522,170.858627 
	C418.175903,172.547104 418.039062,173.942032 417.838287,175.988953 
	C420.505798,175.988953 422.941132,175.967987 425.375916,175.994965 
	C427.722900,176.020966 430.811554,175.274246 429.337067,179.787018 
	C424.417786,179.787018 419.496796,179.787018 414.289642,179.787018 
	C414.289642,173.000412 414.289642,166.284454 414.289642,158.991470 
	C418.524170,158.991470 422.792755,158.877426 427.043396,159.102173 
	C427.763245,159.140244 428.406006,160.635666 429.042664,161.928207 
z"/>
<path fill="#100C10" opacity="1.000000" stroke="none" 
	d="
M434.418060,170.323944 
	C435.686523,167.029785 436.632202,164.017883 437.913391,161.156189 
	C438.329529,160.226761 439.713348,159.026489 440.494080,159.132446 
	C441.612732,159.284302 443.137573,160.309570 443.527435,161.329468 
	C445.823669,167.336472 447.840912,173.450089 449.948303,179.516739 
	C445.414398,181.661011 445.073334,178.001740 444.119659,175.204239 
	C441.706787,175.204239 439.419647,175.204239 436.931641,175.204239 
	C435.541687,177.112167 436.069794,181.842300 431.277313,179.542206 
	C432.258362,176.588165 433.242004,173.626373 434.418060,170.323944 
M442.168304,171.971603 
	C441.861359,169.337036 441.554443,166.702454 441.247528,164.067886 
	C440.884827,164.072113 440.522125,164.076340 440.159424,164.080566 
	C439.351166,166.529846 438.542938,168.979141 437.634064,171.733398 
	C439.123596,171.846115 440.225800,171.929504 442.168304,171.971603 
z"/>
<path fill="#130C13" opacity="1.000000" stroke="none" 
	d="
M138.260651,161.587402 
	C139.624939,165.905792 140.900803,169.833725 142.158295,173.705124 
	C146.687424,169.685730 143.456299,160.889053 152.228027,158.353516 
	C149.641663,165.497711 147.550735,171.566666 145.187744,177.527771 
	C144.766586,178.590179 143.219437,179.842026 142.187698,179.846024 
	C141.176224,179.849976 139.618622,178.570892 139.233826,177.514893 
	C137.076767,171.595413 135.202072,165.573059 133.875885,158.505112 
	C135.307999,159.402390 136.740112,160.299667 138.260651,161.587402 
z"/>
<path fill="#130C13" opacity="1.000000" stroke="none" 
	d="
M208.879303,165.001190 
	C207.338165,169.263748 206.047791,173.215958 204.381683,177.002869 
	C203.840546,178.232895 202.343750,179.769913 201.234467,179.810455 
	C200.200211,179.848267 198.565689,178.282745 198.119888,177.080246 
	C195.987076,171.327377 194.168549,165.457993 192.192032,159.490234 
	C195.474213,158.106079 196.867874,159.280228 197.632462,162.580246 
	C198.518402,166.404099 199.991699,170.091858 201.211899,173.844482 
	C205.273041,169.414505 203.040665,161.238678 209.509232,158.675171 
	C209.942734,158.946930 210.376236,159.218674 210.809753,159.490433 
	C210.201202,161.202499 209.592651,162.914566 208.879303,165.001190 
z"/>
<path fill="#070917" opacity="1.000000" stroke="none" 
	d="
M297.894897,171.031738 
	C297.894684,168.248764 297.894684,165.948715 297.894684,164.050339 
	C296.202454,161.575058 290.254913,165.580322 291.891602,159.180450 
	C296.987915,159.180450 302.089966,159.180450 307.188843,159.180450 
	C307.868713,162.892563 307.868713,162.892563 302.425873,163.184235 
	C301.909851,168.749298 301.404266,174.326050 300.775604,179.888885 
	C300.765381,179.979462 299.252441,179.900208 297.895111,179.900208 
	C297.895111,177.058960 297.895111,174.286819 297.894897,171.031738 
z"/>
<path fill="#11000F" opacity="1.000000" stroke="none" 
	d="
M176.002502,163.201538 
	C175.800125,160.063568 176.096283,157.955963 179.903931,159.491638 
	C179.903931,164.740234 179.903931,170.029846 179.903931,175.742981 
	C183.564102,175.742981 186.980042,175.742981 190.768097,175.742981 
	C190.868637,177.307343 190.943359,178.470169 191.027481,179.779022 
	C185.893143,179.779022 181.139587,179.779022 176.002472,179.779022 
	C176.002472,174.259735 176.002472,168.968430 176.002502,163.201538 
z"/>
<path fill="#313031" opacity="1.000000" stroke="none" 
	d="
M53.703876,105.330826 
	C55.361206,102.056755 56.828255,99.071770 58.655441,95.354012 
	C62.323509,94.498222 64.669395,95.422981 68.741577,100.497322 
	C63.129677,103.305191 57.658474,106.042656 52.187275,108.780121 
	C51.979454,108.504097 51.771637,108.228073 51.563816,107.952049 
	C52.213741,107.174667 52.863667,106.397285 53.703876,105.330826 
z"/>
<path fill="#1A001A" opacity="1.000000" stroke="none" 
	d="
M217.014954,166.081177 
	C217.014954,170.872620 217.014954,175.175140 217.014954,179.477676 
	C216.621323,179.811951 216.227692,180.146225 215.834061,180.480515 
	C214.884857,179.458084 213.162155,178.470230 213.114639,177.407486 
	C212.848419,171.452423 212.986450,165.479294 212.986450,159.086731 
	C219.362061,158.587845 216.037903,163.406586 217.014954,166.081177 
z"/>
<path fill="#E8E6E7" opacity="1.000000" stroke="none" 
	d="
M31.073349,137.209747 
	C35.294865,136.996613 39.589287,136.996613 44.138630,136.996613 
	C44.138630,140.738724 44.138630,144.035522 44.138630,147.918839 
	C42.023071,147.918839 39.948509,147.918839 37.684105,147.681229 
	C40.498051,143.190521 39.968895,140.909439 35.538479,139.185760 
	C34.327164,138.714478 33.069244,138.362961 31.832714,137.956482 
	C31.509109,137.900558 31.280291,137.722702 31.073349,137.209747 
z"/>
<path fill="#313031" opacity="1.000000" stroke="none" 
	d="
M33.803230,99.894470 
	C37.982834,98.345047 41.068748,100.221321 42.544106,103.760841 
	C43.112148,105.123650 41.330864,107.465698 40.619999,109.361572 
	C39.975628,109.400871 39.331261,109.440170 38.686890,109.479469 
	C37.055115,106.421028 35.423336,103.362587 33.803230,99.894470 
z"/>
<path fill="#2B2A2B" opacity="1.000000" stroke="none" 
	d="
M31.751322,138.348740 
	C33.069244,138.362961 34.327164,138.714478 35.538479,139.185760 
	C39.968895,140.909439 40.498051,143.190521 37.233940,147.727921 
	C36.973618,148.012222 36.994884,147.996964 36.706154,148.123398 
	C36.228367,148.357910 36.039307,148.466003 35.850243,148.574081 
	C35.850243,148.574081 35.787964,148.233490 35.831440,147.933212 
	C35.586185,147.414551 35.297455,147.196182 35.008724,146.977798 
	C33.895794,144.232193 32.782864,141.486603 31.751322,138.348740 
z"/>
<path fill="#252425" opacity="1.000000" stroke="none" 
	d="
M463.999756,100.166222 
	C463.999847,101.467560 463.999939,102.768898 464.000183,104.460609 
	C461.906738,104.719383 459.813080,104.587784 457.361206,103.791870 
	C457.024384,102.077644 457.045807,101.027718 457.421356,99.851410 
	C459.850250,99.872078 461.924988,100.019150 463.999756,100.166222 
z"/>
<path fill="#F5F4F4" opacity="1.000000" stroke="none" 
	d="
M54.304012,49.773045 
	C53.081234,48.862232 52.110630,47.741596 51.095955,46.301228 
	C52.299286,45.981499 53.546680,45.981499 55.312740,45.981499 
	C55.023270,47.351929 54.789730,48.457573 54.304012,49.773045 
z"/>
<path fill="#252425" opacity="1.000000" stroke="none" 
	d="
M420.800537,31.316656 
	C420.515961,32.232204 419.896637,33.055866 419.277313,33.879532 
	C418.528778,33.244934 417.780273,32.610336 417.015198,31.599560 
	C418.154327,31.223846 419.310059,31.224308 420.800537,31.316656 
z"/>
<path fill="#F5F4F4" opacity="1.000000" stroke="none" 
	d="
M46.769020,29.905418 
	C46.870125,30.872717 46.662758,31.711384 46.208202,32.770737 
	C45.358994,32.093998 44.756973,31.196575 44.154953,30.299152 
	C44.923485,30.125029 45.692017,29.950907 46.769020,29.905418 
z"/>
<path fill="#F5F4F4" opacity="1.000000" stroke="none" 
	d="
M38.634750,39.715168 
	C38.756001,39.229485 39.305382,38.897984 40.010452,38.280144 
	C41.468945,38.310692 44.058304,36.974270 43.033703,40.557243 
	C42.829651,40.935658 42.653107,41.003490 42.042732,41.214653 
	C41.608902,41.357983 41.194256,41.382076 41.194256,41.382076 
	C40.483795,40.877831 39.773335,40.373589 38.634750,39.715168 
z"/>
<path fill="#F5F4F4" opacity="1.000000" stroke="none" 
	d="
M41.987545,44.408279 
	C42.921310,44.683651 43.863483,45.326675 44.980721,46.205147 
	C44.683392,47.115501 44.210999,47.790405 43.738602,48.465305 
	C43.157715,47.235516 42.576832,46.005722 41.987545,44.408279 
z"/>
<path fill="#252425" opacity="1.000000" stroke="none" 
	d="
M453.715271,33.913170 
	C452.896973,35.682938 451.811737,37.122078 451.004883,33.568481 
	C451.811462,33.419075 452.624573,33.588284 453.715271,33.913170 
z"/>
<path fill="#252425" opacity="1.000000" stroke="none" 
	d="
M457.067230,99.977798 
	C457.045807,101.027718 457.024384,102.077644 457.000732,103.652687 
	C456.843140,104.251305 456.687744,104.324791 456.301025,104.284393 
	C455.715424,103.001740 455.361176,101.832977 455.250183,100.183578 
	C456.018036,99.794571 456.542633,99.886185 457.067230,99.977798 
z"/>
<path fill="#F5F4F4" opacity="1.000000" stroke="none" 
	d="
M57.857780,34.133209 
	C58.585804,34.247967 59.414768,34.801632 60.158672,35.675724 
	C59.368649,35.521473 58.663681,35.046795 57.857780,34.133209 
z"/>
<path fill="#262525" opacity="1.000000" stroke="none" 
	d="
M491.884552,70.392273 
	C493.786133,69.204231 495.019440,69.483307 494.519043,72.401855 
	C493.557556,72.049332 492.781036,71.366714 491.884552,70.392273 
z"/>
<path fill="#252425" opacity="1.000000" stroke="none" 
	d="
M411.172424,58.517239 
	C412.085114,58.716709 412.924194,59.132488 413.763275,59.548271 
	C413.138733,59.664223 412.514160,59.780170 411.553314,59.762062 
	C411.077820,59.343044 411.038422,59.044891 411.172424,58.517239 
z"/>
<path fill="#252425" opacity="1.000000" stroke="none" 
	d="
M410.134521,76.227959 
	C411.023987,75.961838 411.821411,75.947746 412.618866,75.933655 
	C412.010468,76.285767 411.402069,76.637878 410.483948,76.995087 
	C410.130280,76.826782 410.086395,76.653381 410.134521,76.227959 
z"/>
<path fill="#313031" opacity="1.000000" stroke="none" 
	d="
M39.426472,69.362244 
	C38.744312,70.219933 37.719997,70.781578 36.695683,71.343216 
	C36.538040,70.988625 36.380394,70.634033 36.222752,70.279434 
	C37.176605,69.875023 38.130463,69.470604 39.426472,69.362244 
z"/>
<path fill="#F5F4F4" opacity="1.000000" stroke="none" 
	d="
M58.610596,46.049961 
	C58.904572,46.561039 58.885719,47.125721 58.697876,47.922554 
	C58.451847,47.470993 58.374805,46.787281 58.610596,46.049961 
z"/>
<path fill="#252425" opacity="1.000000" stroke="none" 
	d="
M411.689209,50.894905 
	C412.089996,50.384205 412.496399,49.911282 412.902802,49.438362 
	C413.086090,49.664032 413.269409,49.889702 413.452698,50.115376 
	C413.095917,50.390198 412.739136,50.665020 412.056335,50.970093 
	C411.730347,51.000340 411.694855,50.932682 411.689209,50.894905 
z"/>
<path fill="#313031" opacity="1.000000" stroke="none" 
	d="
M51.624741,60.906380 
	C51.430531,61.484253 50.945396,62.178146 50.102055,62.883999 
	C50.273834,62.271439 50.803825,61.646919 51.624741,60.906380 
z"/>
<path fill="#313031" opacity="1.000000" stroke="none" 
	d="
M41.179672,41.670746 
	C41.194256,41.382076 41.608902,41.357983 41.814964,41.383774 
	C42.034691,41.943485 42.048355,42.477406 42.092529,43.276764 
	C41.803722,43.014610 41.484406,42.487015 41.179672,41.670746 
z"/>
<path fill="#E8E6E7" opacity="1.000000" stroke="none" 
	d="
M35.031525,147.181366 
	C35.297455,147.196182 35.586185,147.414551 35.680878,147.847748 
	C35.264248,147.886780 35.120075,147.660904 35.031525,147.181366 
z"/>
<path fill="#313031" opacity="1.000000" stroke="none" 
	d="
M47.975220,42.725163 
	C47.682854,42.916489 47.427124,42.746391 47.116673,42.285896 
	C47.322014,42.203285 47.638649,42.326031 47.975220,42.725163 
z"/>
<path fill="#F5F4F4" opacity="1.000000" stroke="none" 
	d="
M57.056801,52.113373 
	C57.007118,52.333469 56.463711,52.505058 55.745613,52.376144 
	C55.901638,52.072052 56.232353,52.068462 57.056801,52.113373 
z"/>
<path fill="#E8E6E7" opacity="1.000000" stroke="none" 
	d="
M35.880524,148.551819 
	C36.039307,148.466003 36.228367,148.357910 36.716740,148.118500 
	C36.789436,148.191498 36.558868,148.391266 36.105667,148.522369 
	C35.886986,148.458252 35.910805,148.529556 35.880524,148.551819 
z"/>
<path fill="#F3F2F2" opacity="1.000000" stroke="none" 
	d="
M243.557281,66.935158 
	C246.458527,72.291206 249.069199,77.366096 252.036041,83.133347 
	C246.066513,82.376022 241.068161,81.741913 235.590759,81.047028 
	C237.697174,75.481720 237.300400,69.435486 243.557281,66.935158 
z"/>
<path fill="#FBFBFB" opacity="1.000000" stroke="none" 
	d="
M457.421356,99.851410 
	C456.542633,99.886185 456.018036,99.794571 455.246704,99.811707 
	C453.277283,99.842216 451.554596,99.763969 449.007782,99.696213 
	C446.789246,99.823433 445.394775,99.940147 444.000336,100.056870 
	C439.231781,100.374962 434.463196,100.693062 428.676392,101.079086 
	C427.799194,95.622093 426.391327,90.201851 426.196014,84.738251 
	C425.988159,78.923500 428.671844,76.870209 434.580566,77.029480 
	C440.187927,77.180634 445.791473,77.473053 452.048553,77.330742 
	C452.661377,76.363113 452.622375,75.768105 452.583344,75.173088 
	C447.044281,72.843185 441.624084,70.141258 435.922577,68.319786 
	C432.375092,67.186462 430.819611,65.500031 429.478577,61.986462 
	C426.937622,55.329060 423.287201,49.095119 419.810364,42.107841 
	C426.943573,38.693871 435.627258,38.970982 445.011597,38.840084 
	C446.855560,38.811668 447.928558,38.783417 449.001587,38.755165 
	C452.874268,39.061359 456.746918,39.367558 460.929260,39.405155 
	C469.482483,49.679298 472.981781,61.772827 473.956177,75.013268 
	C474.548279,83.059601 476.618164,90.996056 477.988434,98.988007 
	C478.123016,99.772850 478.006409,100.600746 478.006409,101.976990 
	C473.465729,101.312637 469.150696,100.681305 464.417725,100.108093 
	C461.924988,100.019150 459.850250,99.872078 457.421356,99.851410 
z"/>
<path fill="#252425" opacity="1.000000" stroke="none" 
	d="
M448.998779,38.377472 
	C447.928558,38.783417 446.855560,38.811668 445.389160,38.748360 
	C445.553497,37.469807 446.111206,36.282818 446.668915,35.095825 
	C447.444580,36.063812 448.220276,37.031796 448.998779,38.377472 
z"/>
<path fill="#252425" opacity="1.000000" stroke="none" 
	d="
M444.061462,100.403549 
	C445.394775,99.940147 446.789246,99.823433 448.591858,99.818558 
	C448.258514,105.464676 446.104218,102.593941 444.061462,100.403549 
z"/>
<path fill="#252425" opacity="1.000000" stroke="none" 
	d="
M424.696411,34.476601 
	C425.448547,34.470825 425.982269,34.675354 426.515991,34.879883 
	C426.381653,35.153324 426.247284,35.426762 426.112946,35.700195 
	C425.567963,35.362427 425.022980,35.024666 424.696411,34.476601 
z"/>
<path fill="#252425" opacity="1.000000" stroke="none" 
	d="
M457.100159,34.902164 
	C456.723236,35.392212 456.307343,35.956635 455.891449,36.521053 
	C455.778687,36.416122 455.560181,36.228737 455.568451,36.218147 
	C455.895355,35.798794 456.242859,35.395489 456.886505,34.926579 
	C457.185303,34.863060 457.061188,34.976536 457.100159,34.902164 
z"/>
<path fill="#252425" opacity="1.000000" stroke="none" 
	d="
M413.309753,80.075195 
	C413.278137,79.529694 413.405212,79.142700 413.532318,78.755707 
	C413.638306,78.861366 413.849945,78.990692 413.832489,79.068695 
	C413.743835,79.464355 413.595734,79.846695 413.309753,80.075195 
z"/>
<path fill="#252425" opacity="1.000000" stroke="none" 
	d="
M410.468628,36.451241 
	C410.522736,36.419250 410.414551,36.483234 410.468628,36.451241 
z"/>
<path fill="#252425" opacity="1.000000" stroke="none" 
	d="
M400.468689,35.451237 
	C400.522766,35.419243 400.414581,35.483231 400.468689,35.451237 
z"/>
<path fill="#252425" opacity="1.000000" stroke="none" 
	d="
M404.451233,34.531330 
	C404.419220,34.477234 404.483215,34.585426 404.451233,34.531330 
z"/>
<path fill="#252425" opacity="1.000000" stroke="none" 
	d="
M452.382782,75.642609 
	C452.622375,75.768105 452.661377,76.363113 452.347778,77.037048 
	C452.057495,76.781357 452.119873,76.446739 452.382782,75.642609 
z"/>
<path fill="#EBE9EA" opacity="1.000000" stroke="none" 
	d="
M51.221615,142.094360 
	C51.423779,140.017426 51.612206,138.381577 51.854042,136.282059 
	C54.092239,136.143997 56.177822,136.015350 58.211651,135.889893 
	C61.524647,144.328552 59.870010,147.145981 51.533268,146.762222 
	C51.427731,145.391296 51.317806,143.963379 51.221615,142.094360 
z"/>
<path fill="#FDFDFD" opacity="1.000000" stroke="none" 
	d="
M65.137840,145.144135 
	C64.963013,145.214432 64.576103,145.073975 64.337471,144.730988 
	C64.632423,144.663422 64.779091,144.798401 65.137840,145.144135 
z"/>
<path fill="#F7F6F7" opacity="1.000000" stroke="none" 
	d="
M45.820404,162.843384 
	C50.343735,162.420334 54.425816,162.074387 58.446171,161.733658 
	C59.634243,169.877350 58.732136,171.227783 51.611275,172.131210 
	C47.382381,172.667709 43.120342,172.942963 38.415821,173.377975 
	C38.200905,169.974396 38.027157,167.222870 37.829365,164.090485 
	C40.558449,163.667557 42.968803,163.294022 45.820404,162.843384 
z"/>
<path fill="#F3F2F2" opacity="1.000000" stroke="none" 
	d="
M321.906647,166.356750 
	C319.330444,166.816650 317.048126,166.970276 314.765808,167.123901 
	C314.398376,166.814407 314.030945,166.504929 313.663544,166.195435 
	C314.501831,165.130264 315.194122,163.327087 316.203613,163.127365 
	C320.625153,162.252640 321.892273,163.046158 321.906647,166.356750 
z"/>
<path fill="#F3F2F2" opacity="1.000000" stroke="none" 
	d="
M463.949219,163.556900 
	C463.805481,167.035065 463.241394,167.496002 458.660645,166.891418 
	C457.521698,166.741074 456.562744,165.227066 455.521057,164.339874 
	C455.810150,163.978592 456.099243,163.617325 456.388336,163.256042 
	C458.809540,163.256042 461.230743,163.256042 463.949219,163.556900 
z"/>
<path fill="#F3F2F2" opacity="1.000000" stroke="none" 
	d="
M160.025772,163.781464 
	C163.741898,162.347733 167.229416,162.714951 167.863266,166.478424 
	C168.323318,169.210037 167.008255,172.615067 165.471024,175.090286 
	C164.982498,175.876907 160.284363,175.457977 159.164047,174.162521 
	C156.484406,171.063934 156.555511,167.240540 160.025772,163.781464 
z"/>
<path fill="#E8E6E7" opacity="1.000000" stroke="none" 
	d="
M441.748169,171.992249 
	C440.225800,171.929504 439.123596,171.846115 437.634064,171.733398 
	C438.542938,168.979141 439.351166,166.529846 440.159424,164.080566 
	C440.522125,164.076340 440.884827,164.072113 441.247528,164.067886 
	C441.554443,166.702454 441.861359,169.337036 441.748169,171.992249 
z"/>
</svg>