<svg version="1.1" id="Layer_1" xmlns="http://www.w3.org/2000/svg" xmlns:xlink="http://www.w3.org/1999/xlink" x="0px" y="0px"
	 width="100%" viewBox="0 0 512 512" enable-background="new 0 0 512 512" xml:space="preserve">
<path fill="#000000" opacity="1.000000" stroke="none" 
	d="
M293.000000,513.000000 
	C195.357040,513.000000 98.214073,513.000000 1.035558,513.000000 
	C1.035558,342.398682 1.035558,171.797348 1.035558,1.098012 
	C171.559647,1.098012 342.119354,1.098012 512.839539,1.098012 
	C512.839539,171.666550 512.839539,342.333252 512.839539,513.000000 
	C439.797333,513.000000 366.648651,513.000000 293.000000,513.000000 
M376.956360,300.391113 
	C376.956360,300.391113 377.023804,300.797668 376.390472,301.188354 
	C367.584991,323.849823 354.069580,343.075684 334.215973,358.331329 
	C326.198730,363.023438 318.208130,367.761810 310.158478,372.397675 
	C295.056366,381.095184 278.353180,383.959198 261.335938,384.873322 
	C248.983551,385.536865 236.635193,385.131409 224.783051,380.275238 
	C216.142044,376.734772 206.435516,375.313202 198.455246,370.755920 
	C186.797470,364.098541 174.920517,357.242676 166.497391,346.082153 
	C160.912994,338.682861 154.323486,331.981659 149.277328,324.253998 
	C144.397202,316.780609 140.917206,308.392883 136.948761,299.707458 
	C134.632675,289.349152 131.216980,279.093933 130.234253,268.610626 
	C128.313751,248.123352 131.191376,228.015106 139.340744,208.123322 
	C141.907059,203.051788 143.863205,197.536545 147.163177,192.998489 
	C154.678040,182.664261 161.941055,171.880920 170.992676,162.998489 
	C181.931244,152.264374 195.051651,143.804077 209.773422,138.896866 
	C220.835129,135.209671 232.218796,131.678375 243.722137,130.342743 
	C256.466553,128.862976 269.584961,128.941971 282.307098,132.050766 
	C294.800110,135.103561 307.168854,138.616425 318.159943,145.632477 
	C326.362396,150.868393 334.457672,156.272156 342.306732,161.408813 
	C362.251434,141.464310 382.387146,121.328819 402.376312,101.339851 
	C401.170990,99.984390 399.976349,98.185181 398.367249,96.908302 
	C390.322754,90.524727 382.692200,83.398628 373.930420,78.192436 
	C361.239624,70.651649 347.919708,64.052162 334.443573,57.995846 
	C326.715424,54.522717 318.287933,52.132393 309.927917,50.641090 
	C294.499207,47.888824 278.939423,45.567413 263.334686,44.217258 
	C253.671219,43.381153 243.795975,44.318451 234.068039,45.105431 
	C225.620804,45.788807 217.026794,46.564373 208.892273,48.760704 
	C196.641296,52.068481 184.582886,56.252651 172.712616,60.773232 
	C148.211823,70.103935 127.224716,85.126244 108.559067,103.194412 
	C99.140083,112.311897 90.679352,122.563423 82.763023,133.040894 
	C77.042023,140.612793 72.931931,149.401825 67.462868,158.071838 
	C64.637657,164.075119 61.603283,169.990067 59.024067,176.097244 
	C48.790051,200.329742 44.039474,225.769302 43.085278,251.940414 
	C42.846039,258.502136 43.307339,265.144653 44.077095,271.675781 
	C45.467167,283.470093 46.641464,295.359070 49.164394,306.934204 
	C52.775837,323.503418 58.160522,339.580811 67.004860,354.949554 
	C69.083214,358.843994 70.997017,362.837280 73.266823,366.616760 
	C87.235397,389.875641 104.990852,409.897583 126.295883,426.587921 
	C141.449539,438.459351 158.298172,447.652832 176.108551,455.039948 
	C200.658707,465.222443 226.323746,470.604584 252.774628,470.746826 
	C267.518250,470.826111 282.394653,469.111359 297.000854,466.847687 
	C323.572021,462.729675 348.151947,452.688263 370.562958,437.956909 
	C381.535675,430.744293 391.458618,421.934692 402.239258,413.286316 
	C408.822815,406.689148 415.790649,400.428345 421.916229,393.430298 
	C438.789673,374.153656 450.610718,351.911072 459.030426,327.807800 
	C463.196472,315.881561 466.268280,303.718567 467.097168,291.032166 
	C467.922119,278.405914 469.281158,265.810059 469.889587,253.176010 
	C470.189850,246.941437 469.598297,240.620865 468.912231,234.394073 
	C468.239746,228.290558 466.935181,222.256683 465.875458,215.999802 
	C463.546600,215.999802 461.724548,216.104614 459.918762,215.977905 
	C456.219025,215.718277 452.527985,215.334396 448.473999,214.230774 
	C447.814941,214.156021 447.155853,214.015900 446.496796,214.015762 
	C384.548187,214.003891 322.599548,213.997253 260.650970,214.042511 
	C259.489288,214.043350 258.328064,214.668060 257.030426,215.930038 
	C257.075806,243.618729 257.121185,271.307434 257.524170,299.768433 
	C259.509369,299.845612 261.494507,299.988525 263.479767,299.990295 
	C301.332916,300.024323 339.186035,300.041718 377.026337,299.967346 
	C377.026337,299.967346 376.931030,299.979767 376.956360,300.391113 
z"/>
<path fill="#FF3E00" opacity="1.000000" stroke="none" 
	d="
M68.103409,157.648041 
	C72.931931,149.401825 77.042023,140.612793 82.763023,133.040894 
	C90.679352,122.563423 99.140083,112.311897 108.559067,103.194412 
	C127.224716,85.126244 148.211823,70.103935 172.712616,60.773232 
	C184.582886,56.252651 196.641296,52.068481 208.892273,48.760704 
	C217.026794,46.564373 225.620804,45.788807 234.068039,45.105431 
	C243.795975,44.318451 253.671219,43.381153 263.334686,44.217258 
	C278.939423,45.567413 294.499207,47.888824 309.927917,50.641090 
	C318.287933,52.132393 326.715424,54.522717 334.443573,57.995846 
	C347.919708,64.052162 361.239624,70.651649 373.930420,78.192436 
	C382.692200,83.398628 390.322754,90.524727 398.367249,96.908302 
	C399.976349,98.185181 401.170990,99.984390 402.376312,101.339851 
	C382.387146,121.328819 362.251434,141.464310 342.306732,161.408813 
	C334.457672,156.272156 326.362396,150.868393 318.159943,145.632477 
	C307.168854,138.616425 294.800110,135.103561 282.307098,132.050766 
	C269.584961,128.941971 256.466553,128.862976 243.722137,130.342743 
	C232.218796,131.678375 220.835129,135.209671 209.773422,138.896866 
	C195.051651,143.804077 181.931244,152.264374 170.992676,162.998489 
	C161.941055,171.880920 154.678040,182.664261 147.163177,192.998489 
	C143.863205,197.536545 141.907059,203.051788 138.727982,208.300446 
	C135.777573,206.914383 133.380066,205.433105 131.111588,203.775269 
	C110.096191,188.416870 89.103027,173.028030 68.103409,157.648041 
z"/>
<path fill="#4DAF50" opacity="1.000000" stroke="none" 
	d="
M401.856659,413.847900 
	C391.458618,421.934692 381.535675,430.744293 370.562958,437.956909 
	C348.151947,452.688263 323.572021,462.729675 297.000854,466.847687 
	C282.394653,469.111359 267.518250,470.826111 252.774628,470.746826 
	C226.323746,470.604584 200.658707,465.222443 176.108551,455.039948 
	C158.298172,447.652832 141.449539,438.459351 126.295883,426.587921 
	C104.990852,409.897583 87.235397,389.875641 73.266823,366.616760 
	C70.997017,362.837280 69.083214,358.843994 67.249939,354.336151 
	C90.604080,335.950775 113.713142,318.178772 136.822205,300.406799 
	C140.917206,308.392883 144.397202,316.780609 149.277328,324.253998 
	C154.323486,331.981659 160.912994,338.682861 166.497391,346.082153 
	C174.920517,357.242676 186.797470,364.098541 198.455246,370.755920 
	C206.435516,375.313202 216.142044,376.734772 224.783051,380.275238 
	C236.635193,385.131409 248.983551,385.536865 261.335938,384.873322 
	C278.353180,383.959198 295.056366,381.095184 310.158478,372.397675 
	C318.208130,367.761810 326.198730,363.023438 334.573059,358.579773 
	C335.396088,359.493561 335.745728,360.295990 336.344849,360.804443 
	C356.668091,378.051178 376.996307,395.292358 397.409790,412.431885 
	C398.511627,413.356995 400.357269,413.396240 401.856659,413.847900 
z"/>
<path fill="#1976D2" opacity="1.000000" stroke="none" 
	d="
M402.047974,413.567108 
	C400.357269,413.396240 398.511627,413.356995 397.409790,412.431885 
	C376.996307,395.292358 356.668091,378.051178 336.344849,360.804443 
	C335.745728,360.295990 335.396088,359.493561 334.888977,358.483612 
	C354.069580,343.075684 367.584991,323.849823 376.804535,300.905151 
	C377.318970,300.327271 377.223114,300.113220 376.931030,299.979767 
	C376.931030,299.979767 377.026337,299.967346 376.703247,299.753967 
	C374.074615,299.360321 371.769226,299.025055 369.463501,299.022949 
	C332.031219,298.989044 294.598877,298.997345 257.166565,298.996124 
	C257.121185,271.307434 257.075806,243.618729 257.556519,215.465637 
	C321.666168,215.001373 385.249786,215.001541 448.833374,215.001694 
	C452.527985,215.334396 456.219025,215.718277 459.918762,215.977905 
	C461.724548,216.104614 463.546600,215.999802 465.875458,215.999802 
	C466.935181,222.256683 468.239746,228.290558 468.912231,234.394073 
	C469.598297,240.620865 470.189850,246.941437 469.889587,253.176010 
	C469.281158,265.810059 467.922119,278.405914 467.097168,291.032166 
	C466.268280,303.718567 463.196472,315.881561 459.030426,327.807800 
	C450.610718,351.911072 438.789673,374.153656 421.916229,393.430298 
	C415.790649,400.428345 408.822815,406.689148 402.047974,413.567108 
z"/>
<path fill="#FFC107" opacity="1.000000" stroke="none" 
	d="
M136.885483,300.057129 
	C113.713142,318.178772 90.604080,335.950775 67.272690,353.981628 
	C58.160522,339.580811 52.775837,323.503418 49.164394,306.934204 
	C46.641464,295.359070 45.467167,283.470093 44.077095,271.675781 
	C43.307339,265.144653 42.846039,258.502136 43.085278,251.940414 
	C44.039474,225.769302 48.790051,200.329742 59.024067,176.097244 
	C61.603283,169.990067 64.637657,164.075119 67.783142,157.859940 
	C89.103027,173.028030 110.096191,188.416870 131.111588,203.775269 
	C133.380066,205.433105 135.777573,206.914383 138.467804,208.609894 
	C131.191376,228.015106 128.313751,248.123352 130.234253,268.610626 
	C131.216980,279.093933 134.632675,289.349152 136.885483,300.057129 
z"/>
<path fill="#53899F" opacity="1.000000" stroke="none" 
	d="
M448.653687,214.616241 
	C385.249786,215.001541 321.666168,215.001373 257.624603,215.001465 
	C258.328064,214.668060 259.489288,214.043350 260.650970,214.042511 
	C322.599548,213.997253 384.548187,214.003891 446.496796,214.015762 
	C447.155853,214.015900 447.814941,214.156021 448.653687,214.616241 
z"/>
<path fill="#53899F" opacity="1.000000" stroke="none" 
	d="
M257.345367,299.382263 
	C294.598877,298.997345 332.031219,298.989044 369.463501,299.022949 
	C371.769226,299.025055 374.074615,299.360321 376.709656,299.801575 
	C339.186035,300.041718 301.332916,300.024323 263.479767,299.990295 
	C261.494507,299.988525 259.509369,299.845612 257.345367,299.382263 
z"/>
<path fill="#53899F" opacity="1.000000" stroke="none" 
	d="
M376.943695,300.185425 
	C377.223114,300.113220 377.318970,300.327271 377.121216,300.709778 
	C377.023804,300.797668 376.956360,300.391113 376.943695,300.185425 
z"/>
</svg>