<svg version="1.1" id="Layer_1" xmlns="http://www.w3.org/2000/svg" xmlns:xlink="http://www.w3.org/1999/xlink" x="0px" y="0px"
	 width="100%" viewBox="0 0 460 459" enable-background="new 0 0 460 459" xml:space="preserve">
<path fill="#FFFFFF" opacity="1.000000" stroke="none" 
	d="
M257.000000,460.000000 
	C171.333328,460.000000 86.166664,460.000000 1.000000,460.000000 
	C1.000000,307.000000 1.000000,154.000000 1.000000,1.000000 
	C154.333328,1.000000 307.666656,1.000000 461.000000,1.000000 
	C461.000000,154.000000 461.000000,307.000000 461.000000,460.000000 
	C393.166656,460.000000 325.333344,460.000000 257.000000,460.000000 
M111.340942,124.177155 
	C104.891937,124.177155 98.442940,124.177155 91.756599,124.177155 
	C91.756599,195.386444 91.756599,266.116058 91.756599,336.766479 
	C184.912750,336.766479 277.776947,336.766479 370.557190,336.766479 
	C370.557190,265.770386 370.557190,195.188599 370.557190,124.150810 
	C368.814941,124.150810 367.357452,124.150818 365.899963,124.150818 
	C308.745270,124.150642 251.590561,124.148529 194.435867,124.161049 
	C192.944672,124.161377 191.453522,124.321671 189.061172,124.206406 
	C163.473633,124.259995 137.886093,124.313583 111.340942,124.177155 
z"/>
<path fill="#09090A" opacity="1.000000" stroke="none" 
	d="
M189.962341,124.407379 
	C191.453522,124.321671 192.944672,124.161377 194.435867,124.161049 
	C251.590561,124.148529 308.745270,124.150642 365.899963,124.150818 
	C367.357452,124.150818 368.814941,124.150810 370.557190,124.150810 
	C370.557190,195.188599 370.557190,265.770386 370.557190,336.766479 
	C277.776947,336.766479 184.912750,336.766479 91.756599,336.766479 
	C91.756599,266.116058 91.756599,195.386444 91.756599,124.177155 
	C98.442940,124.177155 104.891937,124.177155 111.749596,124.710632 
	C112.143120,188.910309 112.127213,252.576508 112.115303,316.242706 
	C112.114738,319.242615 112.200073,322.243317 112.153320,325.242188 
	C112.110176,328.009613 113.010941,329.224792 116.062126,328.529388 
	C119.945221,327.644287 123.964737,327.351044 127.840012,326.439484 
	C142.039093,323.099487 156.140137,321.298553 170.573715,325.661652 
	C176.635941,327.494202 183.143753,327.852692 189.962341,328.965057 
	C189.962341,260.338989 189.962341,192.373184 189.962341,124.407379 
M245.646683,247.851257 
	C254.691147,254.672653 263.563171,255.163055 272.029968,249.837830 
	C276.308655,253.509949 280.803223,251.105560 284.849213,251.871674 
	C284.849213,237.441177 284.849213,223.707077 284.849213,209.519104 
	C280.465515,210.964706 275.598450,207.463867 272.240784,212.222443 
	C260.023438,203.405304 242.764267,209.893234 240.043900,224.737442 
	C239.079025,230.002380 239.974197,235.608185 239.307220,241.206558 
	C235.166550,235.397507 231.025894,229.588470 226.924652,223.834747 
	C233.124817,214.476501 239.110474,205.442017 245.481155,195.826401 
	C241.802643,195.826401 239.097778,196.133743 236.490723,195.759583 
	C231.718124,195.074600 228.947922,196.922012 226.656281,201.143005 
	C223.304214,207.317200 219.216507,213.091980 215.442337,219.036987 
	C215.099228,218.931198 214.756104,218.825409 214.412994,218.719635 
	C214.412994,211.178482 214.412994,203.637344 214.412994,195.972290 
	C209.434906,195.972290 204.981491,195.972290 200.352875,195.972290 
	C200.352875,214.586395 200.352875,233.110519 200.352875,251.578613 
	C205.154297,251.578613 209.581680,251.578613 214.819672,251.578613 
	C214.819672,244.257080 214.819672,237.184998 214.819672,228.750137 
	C219.740250,236.441010 223.683105,242.802765 227.876846,248.994583 
	C228.740417,250.269592 230.487381,251.606628 231.918167,251.715118 
	C236.487686,252.061630 241.099991,251.843658 245.775284,251.843658 
	C245.431229,250.270157 245.174637,249.096756 245.646683,247.851257 
M203.266190,295.940094 
	C202.159286,300.407257 201.052399,304.874451 199.852020,309.718872 
	C212.888596,309.718872 224.456635,309.718872 236.438202,309.718872 
	C236.438202,306.720764 236.438202,304.007782 236.438202,300.216766 
	C243.034515,309.723541 251.342911,312.968872 261.372467,310.565491 
	C268.450134,308.869507 273.166870,304.056366 276.093292,296.839508 
	C269.710205,297.123383 264.200348,296.132782 258.633942,299.602844 
	C253.390961,302.871246 247.675873,299.148315 246.725647,292.702087 
	C257.026733,292.702087 267.262939,292.702087 277.661102,292.702087 
	C278.425537,282.255920 275.180267,274.087036 266.247986,269.163757 
	C258.523102,264.906006 250.397186,265.214081 243.177689,270.445801 
	C234.147324,276.989746 232.223572,286.192963 234.915497,296.849182 
	C229.591446,296.849182 224.413330,296.849182 218.678162,296.849182 
	C223.554764,288.149017 227.785568,279.678284 232.902695,271.781921 
	C236.580658,266.106354 236.401917,260.383423 235.933640,254.318573 
	C224.023651,254.318573 212.464249,254.318573 201.109833,254.318573 
	C201.109833,258.588074 201.109833,262.525055 201.109833,266.959015 
	C207.242630,266.959015 213.108398,266.959015 219.671661,266.959015 
	C214.098373,276.877991 208.915695,286.101837 203.266190,295.940094 
M318.003601,300.469086 
	C317.986328,293.978699 318.166656,287.480316 317.903656,280.999908 
	C317.544586,272.151489 311.493561,266.216888 302.795776,266.657135 
	C299.025665,266.847961 295.336029,268.628479 291.474548,269.725342 
	C288.323334,265.689117 283.506348,269.093811 279.206268,267.894653 
	C279.206268,282.189423 279.206268,295.916321 279.206268,309.675751 
	C283.491089,309.675751 287.532288,309.675751 291.847198,309.675751 
	C291.847198,307.544678 291.840179,305.738678 291.848450,303.932770 
	C291.876617,297.775574 291.758636,291.612640 291.991272,285.463043 
	C292.166656,280.826721 294.747101,278.359070 298.746948,278.523407 
	C303.118683,278.702972 304.770142,281.492126 305.022430,285.423492 
	C305.160797,287.579651 305.148193,289.747192 305.153992,291.909760 
	C305.169861,297.843109 305.159454,303.776489 305.159454,309.704590 
	C309.740448,309.704590 313.797089,309.704590 318.003601,309.704590 
	C318.003601,306.753082 318.003601,304.106323 318.003601,300.469086 
M300.174316,217.530487 
	C300.174316,215.084351 300.174316,212.638214 300.174316,210.039154 
	C295.791931,210.039154 291.877075,210.039154 287.742065,210.039154 
	C287.742065,223.970322 287.742065,237.699066 287.742065,251.579529 
	C291.945801,251.579529 295.845612,251.579529 300.175018,251.579529 
	C300.175018,240.392990 300.175018,229.457092 300.174316,217.530487 
M292.594086,205.590210 
	C295.032135,205.590210 297.470154,205.590210 299.874634,205.590210 
	C299.874634,201.983292 299.874634,198.946701 299.874634,196.030426 
	C295.581451,196.030426 291.653778,196.030426 286.570862,196.030426 
	C289.527069,199.187164 283.007111,205.654724 292.594086,205.590210 
z"/>
<path fill="#BB2228" opacity="1.000000" stroke="none" 
	d="
M189.511749,124.306892 
	C189.962341,192.373184 189.962341,260.338989 189.962341,328.965057 
	C183.143753,327.852692 176.635941,327.494202 170.573715,325.661652 
	C156.140137,321.298553 142.039093,323.099487 127.840012,326.439484 
	C123.964737,327.351044 119.945221,327.644287 116.062126,328.529388 
	C113.010941,329.224792 112.110176,328.009613 112.153320,325.242188 
	C112.200073,322.243317 112.114738,319.242615 112.115303,316.242706 
	C112.127213,252.576508 112.143120,188.910309 112.228394,124.805649 
	C137.886093,124.313583 163.473633,124.259995 189.511749,124.306892 
M135.004272,273.002563 
	C135.004272,273.002563 135.004013,273.014679 134.672333,273.157776 
	C134.609879,273.259491 134.470215,273.404114 134.498657,273.455322 
	C134.607864,273.651825 134.770996,273.818298 135.183350,274.625305 
	C136.498947,275.220947 137.814545,275.816589 139.130142,276.412231 
	C138.640335,276.967743 138.150528,277.523254 137.660721,278.078766 
	C136.430786,278.709167 135.200851,279.339569 133.966965,279.972015 
	C135.775986,285.635406 138.940674,283.558594 142.072205,282.793091 
	C141.997955,285.166016 141.923721,287.538910 140.967987,289.866241 
	C135.828400,290.491119 130.688797,291.115997 125.068359,291.799347 
	C127.234810,295.792053 129.334335,297.065948 132.708908,294.863068 
	C133.614502,294.271942 134.867050,294.212311 136.262039,294.006073 
	C136.491287,294.017181 136.674988,293.931091 137.460052,293.365753 
	C137.952637,293.298645 138.445236,293.231537 139.317780,293.608948 
	C139.657440,293.789581 139.997116,293.970184 140.025238,294.865997 
	C139.929352,295.895874 139.833466,296.925720 139.388992,298.318481 
	C139.568222,298.877289 139.747467,299.436127 140.147781,300.768738 
	C140.688416,303.468109 141.229034,306.167450 141.754791,308.792603 
	C147.286148,308.144989 152.380554,307.548523 157.064255,307.000153 
	C157.494461,305.203125 157.379257,303.151123 158.349167,302.140503 
	C160.634232,299.759460 160.583527,297.583862 159.039459,294.447815 
	C159.974243,293.534363 160.909012,292.620941 162.665817,291.428741 
	C164.109741,291.385132 165.553650,291.341492 167.639801,291.734894 
	C169.495926,291.749786 171.352066,291.764679 173.868637,291.884949 
	C175.259552,292.038391 176.650452,292.191803 178.186005,292.361176 
	C177.153046,286.216675 175.402878,284.967194 170.232498,286.048431 
	C167.008682,286.722595 163.773087,287.383850 160.511871,287.819702 
	C158.522675,288.085602 156.446136,287.938751 158.361267,284.668274 
	C159.245850,283.536041 160.130432,282.403839 161.713852,281.173706 
	C162.182053,281.127930 162.650269,281.082153 163.800766,280.960541 
	C164.845581,280.016693 165.890411,279.072845 167.704605,277.433990 
	C165.521683,277.263397 164.608994,277.192078 163.080902,276.808533 
	C161.496918,276.054901 159.912918,275.301300 158.664963,274.707550 
	C158.664963,272.847229 158.664963,271.177429 158.664963,269.162964 
	C156.997696,269.287048 155.685394,269.595856 154.439819,269.423157 
	C152.935211,269.214600 151.487152,268.597992 150.014618,268.157990 
	C151.510529,267.521362 152.959625,266.540497 154.513397,266.329193 
	C156.816681,266.015900 159.194183,266.248108 161.764465,266.248108 
	C160.270432,258.560455 155.007690,262.299713 150.686615,261.819611 
	C152.377304,259.611847 154.009354,257.943420 155.062195,255.966492 
	C155.984207,254.235229 157.268875,251.555466 156.569489,250.378204 
	C155.595779,248.739243 152.921524,248.110550 150.663986,246.879852 
	C149.956818,251.332031 149.656982,254.636169 148.748520,257.763519 
	C148.563263,258.401215 147.391785,263.096985 144.836456,258.323639 
	C144.554077,257.624420 144.271698,256.925171 143.632233,255.976929 
	C143.632233,255.976929 143.203598,255.900696 143.009506,255.300995 
	C142.032196,254.584000 141.054886,253.866989 140.077591,253.149979 
	C139.668915,255.149734 139.260223,257.149475 138.913071,258.992035 
	C138.913071,258.992035 138.817245,259.131042 138.918655,259.701324 
	C139.619949,260.340973 140.321228,260.980591 141.339905,261.999786 
	C141.339905,261.999786 141.830704,262.062561 141.453308,262.731201 
	C138.942001,263.132080 136.430695,263.532959 134.000839,263.980713 
	C134.000839,263.980713 133.945587,263.904694 133.373077,263.959442 
	C133.276245,264.302368 133.179413,264.645294 133.032486,265.681763 
	C134.353027,266.813690 135.673553,267.945587 136.964294,269.686554 
	C136.628052,270.418274 136.291809,271.150024 135.908630,271.987946 
	C135.908630,271.987946 135.808075,271.929901 135.378433,272.140015 
	C135.115784,272.363892 134.993240,272.648163 135.004272,273.002563 
M131.453186,236.757706 
	C131.616364,236.455795 131.779556,236.153900 132.056549,235.428070 
	C132.180328,235.137222 132.394745,234.950394 133.449158,234.856522 
	C134.585236,232.819244 135.721329,230.781967 136.870285,228.200302 
	C136.895615,227.838379 136.920929,227.476440 136.613815,226.532318 
	C135.854874,225.990494 135.095917,225.448669 134.017212,224.678558 
	C136.451080,224.016602 138.237061,223.530853 140.419266,222.845764 
	C140.419266,222.845764 140.840927,222.707062 140.840927,222.707062 
	C140.840927,222.707062 141.284439,222.725662 141.997131,222.672546 
	C143.416702,222.148743 144.836273,221.624924 146.135391,221.778519 
	C147.817276,223.938950 149.499146,226.099380 151.414780,228.560059 
	C147.790070,232.619827 144.330933,236.494110 140.594467,240.679031 
	C148.377487,242.627899 149.093231,234.780655 153.879211,232.614075 
	C160.122742,241.057037 166.569077,249.139496 178.513474,241.653137 
	C178.001999,241.253326 177.400482,240.783157 176.815323,239.522263 
	C175.749512,239.219543 174.683685,238.916840 173.565079,238.521164 
	C173.565079,238.521164 173.458435,238.528580 173.533646,237.846848 
	C172.940033,237.657089 172.346436,237.467331 171.868179,237.059235 
	C171.868179,237.059235 171.741974,237.282013 171.806839,236.534058 
	C170.820740,236.066711 169.834625,235.599365 168.948563,235.061951 
	C168.948563,235.061951 168.901764,235.174774 168.723679,234.538742 
	C168.008377,234.200302 167.293076,233.861862 166.543594,233.435730 
	C166.543594,233.435730 166.451843,233.456635 166.690811,232.696030 
	C165.698914,232.237076 164.707001,231.778107 163.930344,231.093765 
	C163.930344,231.093765 163.751389,231.348907 163.647308,230.716446 
	C163.086853,230.481567 162.526413,230.246689 161.509369,229.891190 
	C161.223267,229.723236 161.032013,229.480545 160.952438,228.356781 
	C160.316696,225.903839 159.680954,223.450897 158.854858,220.682541 
	C158.854858,220.682541 158.856842,220.314148 158.999664,219.656754 
	C160.330826,219.063736 161.661972,218.470718 163.586288,217.740753 
	C164.350998,217.476059 165.115723,217.211365 166.533707,216.687759 
	C169.051727,214.183731 168.152573,213.116013 164.411667,212.817963 
	C163.635513,212.669312 162.859344,212.520676 161.755142,211.767715 
	C161.311584,211.657028 160.693497,211.300003 160.450424,211.472244 
	C156.166290,214.507950 154.711029,212.841888 154.872833,208.233719 
	C154.887390,207.818863 154.452118,207.388199 154.138535,206.227203 
	C154.145615,205.484467 154.152679,204.741730 154.452301,203.755981 
	C154.252991,203.527908 154.053680,203.299835 153.452591,202.822083 
	C153.241058,202.579819 153.093689,202.303345 152.775665,201.519699 
	C152.462723,201.382843 152.149765,201.245972 151.938431,201.070587 
	C151.938431,201.070587 151.888901,201.167313 151.886002,200.513199 
	C151.464096,200.138275 151.042191,199.763351 150.620285,199.388443 
	C150.089981,200.285263 149.559692,201.182083 148.948608,202.858917 
	C148.820023,203.893875 148.691437,204.928818 148.059525,206.427017 
	C146.980377,207.964752 145.901245,209.502487 144.684021,210.740372 
	C144.684021,210.740372 144.813629,210.436768 144.932175,209.643173 
	C143.454041,207.738968 141.975906,205.834763 139.622253,202.802658 
	C138.782425,205.808640 138.453201,206.987030 138.000229,208.054871 
	C138.000229,208.054871 138.145950,208.134201 137.485687,208.078583 
	C136.973450,208.434509 136.461197,208.790451 135.794281,209.290878 
	C135.794281,209.290878 135.591736,209.229324 134.858673,209.120148 
	C134.240768,209.427567 133.622849,209.734985 132.347549,210.276794 
	C131.315872,210.633926 130.284210,210.991043 129.251465,211.348557 
	C131.379883,217.364136 134.835861,213.070236 138.459000,212.412552 
	C137.411926,215.330215 136.952072,219.252838 135.695984,219.526993 
	C133.508606,220.004364 130.830200,218.231781 127.972488,217.273178 
	C127.972488,221.407272 128.098633,225.054535 127.904671,228.684692 
	C127.835938,229.971130 127.092278,231.270844 126.466652,232.464905 
	C125.786430,233.763184 124.885101,234.945618 124.080185,236.178574 
	C125.659813,237.086960 127.239441,237.995361 129.499817,238.907700 
	C129.996826,238.266205 130.493835,237.624710 131.001221,237.000107 
	C131.001221,237.000107 130.982712,236.993881 131.453186,236.757706 
z"/>
<path fill="#FAFAFA" opacity="1.000000" stroke="none" 
	d="
M203.499603,295.632874 
	C208.915695,286.101837 214.098373,276.877991 219.671661,266.959015 
	C213.108398,266.959015 207.242630,266.959015 201.109833,266.959015 
	C201.109833,262.525055 201.109833,258.588074 201.109833,254.318573 
	C212.464249,254.318573 224.023651,254.318573 235.933640,254.318573 
	C236.401917,260.383423 236.580658,266.106354 232.902695,271.781921 
	C227.785568,279.678284 223.554764,288.149017 218.678162,296.849182 
	C224.413330,296.849182 229.591446,296.849182 234.915497,296.849182 
	C232.223572,286.192963 234.147324,276.989746 243.177689,270.445801 
	C250.397186,265.214081 258.523102,264.906006 266.247986,269.163757 
	C275.180267,274.087036 278.425537,282.255920 277.661102,292.702087 
	C267.262939,292.702087 257.026733,292.702087 246.725647,292.702087 
	C247.675873,299.148315 253.390961,302.871246 258.633942,299.602844 
	C264.200348,296.132782 269.710205,297.123383 276.093292,296.839508 
	C273.166870,304.056366 268.450134,308.869507 261.372467,310.565491 
	C251.342911,312.968872 243.034515,309.723541 236.438202,300.216766 
	C236.438202,304.007782 236.438202,306.720764 236.438202,309.718872 
	C224.456635,309.718872 212.888596,309.718872 199.852020,309.718872 
	C201.052399,304.874451 202.159286,300.407257 203.499603,295.632874 
M260.966034,284.582031 
	C262.198120,284.481110 263.430206,284.380188 264.792877,284.268555 
	C262.521851,278.893616 259.122375,276.606018 254.470642,277.332733 
	C250.564377,277.942993 247.327835,279.470734 246.965958,284.581879 
	C251.560898,284.581879 255.823273,284.581879 260.966034,284.582031 
z"/>
<path fill="#FAFAFA" opacity="1.000000" stroke="none" 
	d="
M244.918060,247.923355 
	C245.174637,249.096756 245.431229,250.270157 245.775284,251.843658 
	C241.099991,251.843658 236.487686,252.061630 231.918167,251.715118 
	C230.487381,251.606628 228.740417,250.269592 227.876846,248.994583 
	C223.683105,242.802765 219.740250,236.441010 214.819672,228.750137 
	C214.819672,237.184998 214.819672,244.257080 214.819672,251.578613 
	C209.581680,251.578613 205.154297,251.578613 200.352875,251.578613 
	C200.352875,233.110519 200.352875,214.586395 200.352875,195.972290 
	C204.981491,195.972290 209.434906,195.972290 214.412994,195.972290 
	C214.412994,203.637344 214.412994,211.178482 214.412994,218.719635 
	C214.756104,218.825409 215.099228,218.931198 215.442337,219.036987 
	C219.216507,213.091980 223.304214,207.317200 226.656281,201.143005 
	C228.947922,196.922012 231.718124,195.074600 236.490723,195.759583 
	C239.097778,196.133743 241.802643,195.826401 245.481155,195.826401 
	C239.110474,205.442017 233.124817,214.476501 226.924652,223.834747 
	C231.025894,229.588470 235.166550,235.397507 239.654922,241.102280 
	C240.002625,240.998001 239.961166,240.950058 239.789124,241.262604 
	C240.083313,242.080063 240.549530,242.584976 240.994308,243.053101 
	C240.972870,243.016296 240.909714,242.959106 240.998383,243.213989 
	C241.393463,243.652237 241.699860,243.835602 242.028275,244.332565 
	C242.673996,245.422363 243.297699,246.198563 243.930603,247.353943 
	C244.315918,247.838287 244.692032,247.943451 245.031952,248.015717 
	C244.995758,247.982803 244.918060,247.923355 244.918060,247.923355 
z"/>
<path fill="#F9F9FA" opacity="1.000000" stroke="none" 
	d="
M243.921387,246.974777 
	C243.297699,246.198563 242.673996,245.422363 241.995148,243.976608 
	C241.596573,243.191086 241.253143,243.075104 240.909714,242.959106 
	C240.909714,242.959106 240.972870,243.016296 241.309692,242.721100 
	C241.084732,241.933960 240.522949,241.442001 239.961166,240.950058 
	C239.961166,240.950058 240.002625,240.998001 240.011429,241.028198 
	C239.974197,235.608185 239.079025,230.002380 240.043900,224.737442 
	C242.764267,209.893234 260.023438,203.405304 272.239990,212.218231 
	C275.598450,207.463867 280.465515,210.964706 284.849213,209.519104 
	C284.849213,223.707077 284.849213,237.441177 284.849213,251.871674 
	C280.803223,251.105560 276.308655,253.509949 272.029968,249.837830 
	C263.563171,255.163055 254.691147,254.672653 245.282379,247.887299 
	C244.918060,247.923355 244.995758,247.982803 245.047791,247.693390 
	C244.707016,247.260910 244.314194,247.117844 243.921387,246.974777 
M269.079468,238.751984 
	C274.851501,231.880508 272.823853,222.753738 265.097046,220.826553 
	C260.358612,219.644684 255.801163,221.402740 253.433975,225.325607 
	C251.003143,229.353943 251.616272,234.951431 254.846756,238.223755 
	C258.337677,241.759872 263.168121,242.138153 269.079468,238.751984 
z"/>
<path fill="#FAFAFB" opacity="1.000000" stroke="none" 
	d="
M318.003601,300.964325 
	C318.003601,304.106323 318.003601,306.753082 318.003601,309.704590 
	C313.797089,309.704590 309.740448,309.704590 305.159454,309.704590 
	C305.159454,303.776489 305.169861,297.843109 305.153992,291.909760 
	C305.148193,289.747192 305.160797,287.579651 305.022430,285.423492 
	C304.770142,281.492126 303.118683,278.702972 298.746948,278.523407 
	C294.747101,278.359070 292.166656,280.826721 291.991272,285.463043 
	C291.758636,291.612640 291.876617,297.775574 291.848450,303.932770 
	C291.840179,305.738678 291.847198,307.544678 291.847198,309.675751 
	C287.532288,309.675751 283.491089,309.675751 279.206268,309.675751 
	C279.206268,295.916321 279.206268,282.189423 279.206268,267.894653 
	C283.506348,269.093811 288.323334,265.689117 291.474548,269.725342 
	C295.336029,268.628479 299.025665,266.847961 302.795776,266.657135 
	C311.493561,266.216888 317.544586,272.151489 317.903656,280.999908 
	C318.166656,287.480316 317.986328,293.978699 318.003601,300.964325 
z"/>
<path fill="#FCFCFC" opacity="1.000000" stroke="none" 
	d="
M300.174683,218.025848 
	C300.175018,229.457092 300.175018,240.392990 300.175018,251.579529 
	C295.845612,251.579529 291.945801,251.579529 287.742065,251.579529 
	C287.742065,237.699066 287.742065,223.970322 287.742065,210.039154 
	C291.877075,210.039154 295.791931,210.039154 300.174316,210.039154 
	C300.174316,212.638214 300.174316,215.084351 300.174683,218.025848 
z"/>
<path fill="#E9EAEB" opacity="1.000000" stroke="none" 
	d="
M292.158142,205.590317 
	C283.007111,205.654724 289.527069,199.187164 286.570862,196.030426 
	C291.653778,196.030426 295.581451,196.030426 299.874634,196.030426 
	C299.874634,198.946701 299.874634,201.983292 299.874634,205.590210 
	C297.470154,205.590210 295.032135,205.590210 292.158142,205.590317 
z"/>
<path fill="#FBEAE8" opacity="1.000000" stroke="none" 
	d="
M141.830704,262.062561 
	C141.830704,262.062561 141.339905,261.999786 141.167099,261.476746 
	C140.268616,260.346161 139.542923,259.738586 138.817245,259.131042 
	C138.817245,259.131042 138.913071,258.992035 138.969833,258.695068 
	C140.418930,257.565674 141.811264,256.733185 143.203598,255.900696 
	C143.203598,255.900696 143.632233,255.976929 143.806046,256.401215 
	C144.239090,257.538452 144.498322,258.251434 144.757553,258.964386 
	C147.391785,263.096985 148.563263,258.401215 148.748520,257.763519 
	C149.656982,254.636169 149.956818,251.332031 150.663986,246.879852 
	C152.921524,248.110550 155.595779,248.739243 156.569489,250.378204 
	C157.268875,251.555466 155.984207,254.235229 155.062195,255.966492 
	C154.009354,257.943420 152.377304,259.611847 150.686615,261.819611 
	C155.007690,262.299713 160.270432,258.560455 161.764465,266.248108 
	C159.194183,266.248108 156.816681,266.015900 154.513397,266.329193 
	C152.959625,266.540497 151.510529,267.521362 150.014618,268.157990 
	C151.487152,268.597992 152.935211,269.214600 154.439819,269.423157 
	C155.685394,269.595856 156.997696,269.287048 158.664963,269.162964 
	C158.664963,271.177429 158.664963,272.847229 158.664963,274.707550 
	C159.912918,275.301300 161.496918,276.054901 163.456604,277.303131 
	C163.594345,278.877289 163.356400,279.956818 163.118469,281.036377 
	C162.650269,281.082153 162.182053,281.127930 160.973236,281.087006 
	C154.883759,281.032654 149.534912,281.065002 143.875305,281.061218 
	C143.050430,281.313232 142.536285,281.601349 142.022141,281.889496 
	C138.940674,283.558594 135.775986,285.635406 133.966965,279.972015 
	C135.200851,279.339569 136.430786,278.709167 137.660721,278.078766 
	C138.150528,277.523254 138.640335,276.967743 139.130142,276.412231 
	C137.814545,275.816589 136.498947,275.220947 135.130371,274.070801 
	C135.052948,273.349121 135.028473,273.181885 135.004013,273.014679 
	C135.004013,273.014679 135.004272,273.002563 135.187637,272.859283 
	C135.593903,272.496918 135.739594,272.234894 135.808075,271.929901 
	C135.808075,271.929901 135.908630,271.987946 136.341309,271.959808 
	C138.719131,271.633942 140.782761,271.635193 142.565964,270.928711 
	C143.672562,270.490326 144.353897,268.978546 145.226105,267.948578 
	C144.833710,267.723297 144.441315,267.498047 144.048920,267.272766 
	C141.697311,267.874359 139.345703,268.475952 136.994095,269.077515 
	C135.673553,267.945587 134.353027,266.813690 133.265533,265.212128 
	C133.753098,264.519562 133.902115,264.240295 133.945587,263.904694 
	C133.945587,263.904694 134.000839,263.980713 134.406372,263.989319 
	C137.038055,263.978394 139.266449,263.995392 141.485397,263.858826 
	C141.636780,263.849518 141.717255,262.688141 141.830704,262.062561 
z"/>
<path fill="#FCF0EE" opacity="1.000000" stroke="none" 
	d="
M176.798981,240.312988 
	C177.400482,240.783157 178.001999,241.253326 178.513474,241.653137 
	C166.569077,249.139496 160.122742,241.057037 153.879211,232.614075 
	C149.093231,234.780655 148.377487,242.627899 140.594467,240.679031 
	C144.330933,236.494110 147.790070,232.619827 151.414780,228.560059 
	C149.499146,226.099380 147.817276,223.938950 146.542862,221.486053 
	C149.088974,221.920837 151.227615,222.648071 154.012161,223.594940 
	C154.012161,221.903473 154.012161,220.428421 153.982727,218.964676 
	C153.953293,218.975967 153.952682,219.039017 154.305115,219.228516 
	C156.057327,219.716736 157.457077,220.015442 158.856842,220.314148 
	C158.856842,220.314148 158.854858,220.682541 158.905884,221.229706 
	C159.623184,224.237152 156.067184,227.828552 160.935623,229.163101 
	C161.032013,229.480545 161.223267,229.723236 161.861221,230.217529 
	C162.725845,230.812225 163.238617,231.080566 163.751389,231.348907 
	C163.751389,231.348907 163.930344,231.093765 163.961914,231.470581 
	C164.812943,232.383804 165.632401,232.920212 166.451843,233.456635 
	C166.451843,233.456635 166.543594,233.435730 166.720856,233.724564 
	C167.565994,234.400528 168.233871,234.787643 168.901764,235.174774 
	C168.901764,235.174774 168.948563,235.061951 169.036026,235.376373 
	C169.996323,236.221207 170.869141,236.751602 171.741974,237.282013 
	C171.741974,237.282013 171.868179,237.059235 171.931595,237.417786 
	C172.482819,238.027084 172.970627,238.277832 173.458435,238.528580 
	C173.458435,238.528580 173.565079,238.521164 173.787048,238.803772 
	C174.939011,239.495239 175.869003,239.904114 176.798981,240.312988 
z"/>
<path fill="#FCE6E5" opacity="1.000000" stroke="none" 
	d="
M144.813629,210.436768 
	C144.813629,210.436768 144.684021,210.740372 144.544693,211.175995 
	C143.365067,215.316299 142.324753,219.020981 141.284454,222.725662 
	C141.284439,222.725662 140.840927,222.707062 140.840927,222.707062 
	C140.840927,222.707062 140.419266,222.845764 139.779587,222.870880 
	C131.730270,222.763977 131.730270,222.763977 132.412704,229.423309 
	C133.928436,228.651398 135.437347,227.882965 136.946259,227.114532 
	C136.920929,227.476440 136.895615,227.838379 136.577209,228.651917 
	C135.089355,231.024872 133.894577,232.946228 132.699814,234.867584 
	C132.394745,234.950394 132.180328,235.137222 131.747208,235.737244 
	C131.286148,236.362259 131.134430,236.678070 130.982727,236.993881 
	C130.982712,236.993881 131.001221,237.000107 130.716400,237.091217 
	C129.894089,237.756134 129.356583,238.329956 128.819061,238.903778 
	C127.239441,237.995361 125.659813,237.086960 124.080177,236.178558 
	C124.885101,234.945618 125.786430,233.763184 126.466652,232.464905 
	C127.092278,231.270844 127.835938,229.971130 127.904671,228.684692 
	C128.098633,225.054535 127.972488,221.407272 127.972488,217.273178 
	C130.830200,218.231781 133.508606,220.004364 135.695984,219.526993 
	C136.952072,219.252838 137.411926,215.330215 138.459000,212.412552 
	C134.835861,213.070236 131.379883,217.364136 129.251465,211.348557 
	C130.284210,210.991043 131.315872,210.633926 133.033005,210.214523 
	C134.342880,209.844604 134.967300,209.536957 135.591736,209.229324 
	C135.591736,209.229324 135.794281,209.290878 136.196091,209.218277 
	C137.113922,208.808517 137.629929,208.471359 138.145950,208.134201 
	C138.145950,208.134201 138.000229,208.054871 138.400085,208.057953 
	C141.793365,206.349869 143.544525,207.783188 144.813629,210.436768 
z"/>
<path fill="#FCE5E3" opacity="1.000000" stroke="none" 
	d="
M157.791656,284.883484 
	C156.446136,287.938751 158.522675,288.085602 160.511871,287.819702 
	C163.773087,287.383850 167.008682,286.722595 170.232498,286.048431 
	C175.402878,284.967194 177.153046,286.216675 178.186005,292.361176 
	C176.650452,292.191803 175.259552,292.038391 173.255951,291.546844 
	C170.761368,291.238464 168.879471,291.268158 166.997574,291.297852 
	C165.553650,291.341492 164.109741,291.385132 161.872864,291.415741 
	C155.322647,291.875031 149.565384,292.347321 143.500641,292.784485 
	C142.789230,292.823242 142.385284,292.897095 141.601166,292.912048 
	C140.459930,292.956879 139.698883,293.060638 138.937820,293.164398 
	C138.445236,293.231537 137.952637,293.298645 136.989410,293.480957 
	C136.268784,293.585968 136.082642,293.690155 135.960312,293.908691 
	C134.867050,294.212311 133.614502,294.271942 132.708908,294.863068 
	C129.334335,297.065948 127.234810,295.792053 125.068359,291.799347 
	C130.688797,291.115997 135.828400,290.491119 141.793442,289.938416 
	C144.067413,289.754456 145.515930,289.498322 147.268204,289.074646 
	C149.831772,286.343201 152.091599,283.779327 154.901199,280.591705 
	C155.958359,282.161377 156.875000,283.522430 157.791656,284.883484 
z"/>
<path fill="#FBE5E3" opacity="1.000000" stroke="none" 
	d="
M158.962296,295.068512 
	C160.583527,297.583862 160.634232,299.759460 158.349167,302.140503 
	C157.379257,303.151123 157.494461,305.203125 157.064255,307.000153 
	C152.380554,307.548523 147.286148,308.144989 141.754791,308.792603 
	C141.229034,306.167450 140.688416,303.468109 140.099213,300.037598 
	C139.946274,298.856140 139.841919,298.405884 139.737579,297.955597 
	C139.833466,296.925720 139.929352,295.895874 140.433884,294.647675 
	C141.580246,294.602325 142.317963,294.775299 143.281647,295.040649 
	C143.507614,295.132965 143.947037,294.920258 144.366119,294.924866 
	C146.698807,294.649109 148.609497,294.163910 150.526703,294.136658 
	C153.357040,294.096436 156.476852,291.930450 158.962296,295.068512 
M151.081207,304.852081 
	C152.171402,302.426331 153.261597,300.000549 154.781433,296.618835 
	C150.595795,297.685699 147.881531,298.377533 144.919220,299.132599 
	C144.818420,300.836243 144.705505,302.744751 144.572922,304.985535 
	C146.674149,304.985535 148.460144,304.985535 151.081207,304.852081 
z"/>
<path fill="#AE3740" opacity="1.000000" stroke="none" 
	d="
M141.640793,222.699097 
	C142.324753,219.020981 143.365067,215.316299 144.613739,211.325928 
	C145.901245,209.502487 146.980377,207.964752 148.421631,206.573364 
	C147.837860,210.082520 146.891998,213.445343 145.832657,217.211624 
	C150.841690,215.608688 152.873489,211.590103 154.225739,206.964874 
	C154.452118,207.388199 154.887390,207.818863 154.872833,208.233719 
	C154.711029,212.841888 156.166290,214.507950 160.450424,211.472244 
	C160.693497,211.300003 161.311584,211.657028 161.657532,212.304718 
	C157.731964,213.999313 153.904007,215.156906 148.534683,216.780594 
	C151.154938,217.819992 152.583557,218.386688 154.012161,218.953384 
	C154.012161,220.428421 154.012161,221.903473 154.012161,223.594940 
	C151.227615,222.648071 149.088974,221.920837 146.603088,221.147369 
	C144.836273,221.624924 143.416702,222.148743 141.640793,222.699097 
z"/>
<path fill="#AD3C41" opacity="1.000000" stroke="none" 
	d="
M158.076462,284.775879 
	C156.875000,283.522430 155.958359,282.161377 154.901199,280.591705 
	C152.091599,283.779327 149.831772,286.343201 146.888321,289.024902 
	C145.531799,286.460938 144.858917,283.779144 144.186050,281.097351 
	C149.534912,281.065002 154.883759,281.032654 160.623810,281.135956 
	C160.130432,282.403839 159.245850,283.536041 158.076462,284.775879 
z"/>
<path fill="#FDEBE8" opacity="1.000000" stroke="none" 
	d="
M154.182129,206.596039 
	C152.873489,211.590103 150.841690,215.608688 145.832657,217.211624 
	C146.891998,213.445343 147.837860,210.082520 148.673279,206.341736 
	C148.691437,204.928818 148.820023,203.893875 149.275848,202.363342 
	C150.365036,201.634277 151.126968,201.400787 151.888901,201.167297 
	C151.888901,201.167313 151.938431,201.070587 152.001755,201.326920 
	C152.380219,201.719727 152.695343,201.856201 153.010483,201.992676 
	C153.093689,202.303345 153.241058,202.579819 153.666718,203.199402 
	C153.973816,203.717499 154.066788,203.858246 154.159744,203.998993 
	C154.152679,204.741730 154.145615,205.484467 154.182129,206.596039 
z"/>
<path fill="#FADED9" opacity="1.000000" stroke="none" 
	d="
M153.982727,218.964676 
	C152.583557,218.386688 151.154938,217.819992 148.534683,216.780594 
	C153.904007,215.156906 157.731964,213.999313 161.821564,212.606873 
	C162.859344,212.520676 163.635513,212.669312 164.764725,213.246216 
	C165.372009,214.765198 165.626221,215.855942 165.880447,216.946686 
	C165.115723,217.211365 164.350998,217.476059 162.965942,217.619720 
	C159.547943,218.012146 156.750320,218.525574 153.952682,219.039017 
	C153.952682,219.039017 153.953293,218.975967 153.982727,218.964676 
z"/>
<path fill="#A95154" opacity="1.000000" stroke="none" 
	d="
M159.000885,294.758179 
	C156.476852,291.930450 153.357040,294.096436 150.526703,294.136658 
	C148.609497,294.163910 146.698807,294.649109 144.474594,294.690918 
	C144.045349,293.908081 143.926743,293.363861 143.808136,292.819641 
	C149.565384,292.347321 155.322647,291.875031 161.461853,291.555115 
	C160.909012,292.620941 159.974243,293.534363 159.000885,294.758179 
z"/>
<path fill="#F4D2D7" opacity="1.000000" stroke="none" 
	d="
M143.875305,281.061218 
	C144.858917,283.779144 145.531799,286.460938 146.584564,289.192444 
	C145.515930,289.498322 144.067413,289.754456 142.234192,289.961212 
	C141.923721,287.538910 141.997955,285.166016 142.047180,282.341309 
	C142.536285,281.601349 143.050430,281.313232 143.875305,281.061218 
z"/>
<path fill="#B2404A" opacity="1.000000" stroke="none" 
	d="
M136.979187,269.382050 
	C139.345703,268.475952 141.697311,267.874359 144.048920,267.272766 
	C144.441315,267.498047 144.833710,267.723297 145.226105,267.948578 
	C144.353897,268.978546 143.672562,270.490326 142.565964,270.928711 
	C140.782761,271.635193 138.719131,271.633942 136.364777,271.906708 
	C136.291809,271.150024 136.628052,270.418274 136.979187,269.382050 
z"/>
<path fill="#AE3740" opacity="1.000000" stroke="none" 
	d="
M136.780045,226.823425 
	C135.437347,227.882965 133.928436,228.651398 132.412704,229.423309 
	C131.730270,222.763977 131.730270,222.763977 139.581482,222.970551 
	C138.237061,223.530853 136.451080,224.016602 134.017212,224.678558 
	C135.095917,225.448669 135.854874,225.990494 136.780045,226.823425 
z"/>
<path fill="#AE3740" opacity="1.000000" stroke="none" 
	d="
M144.872894,210.039978 
	C143.544525,207.783188 141.793365,206.349869 138.461960,208.113235 
	C138.453201,206.987030 138.782425,205.808640 139.622253,202.802658 
	C141.975906,205.834763 143.454041,207.738968 144.872894,210.039978 
z"/>
<path fill="#FBE2DE" opacity="1.000000" stroke="none" 
	d="
M143.106552,255.600845 
	C141.811264,256.733185 140.418930,257.565674 138.939056,258.773682 
	C139.260223,257.149475 139.668915,255.149734 140.077591,253.149979 
	C141.054886,253.866989 142.032196,254.584000 143.106552,255.600845 
z"/>
<path fill="#AE3740" opacity="1.000000" stroke="none" 
	d="
M160.944031,228.759949 
	C156.067184,227.828552 159.623184,224.237152 159.001053,221.387421 
	C159.680954,223.450897 160.316696,225.903839 160.944031,228.759949 
z"/>
<path fill="#AE3740" opacity="1.000000" stroke="none" 
	d="
M154.305115,219.228516 
	C156.750320,218.525574 159.547943,218.012146 162.669357,217.688202 
	C161.661972,218.470718 160.330826,219.063736 158.928253,219.985443 
	C157.457077,220.015442 156.057327,219.716736 154.305115,219.228516 
z"/>
<path fill="#AE3740" opacity="1.000000" stroke="none" 
	d="
M133.074493,234.862061 
	C133.894577,232.946228 135.089355,231.024872 136.570770,228.924103 
	C135.721329,230.781967 134.585236,232.819244 133.074493,234.862061 
z"/>
<path fill="#FBE2DE" opacity="1.000000" stroke="none" 
	d="
M141.641998,262.396881 
	C141.717255,262.688141 141.636780,263.849518 141.485397,263.858826 
	C139.266449,263.995392 137.038055,263.978394 134.365646,263.965881 
	C136.430695,263.532959 138.942001,263.132080 141.641998,262.396881 
z"/>
<path fill="#AD3C41" opacity="1.000000" stroke="none" 
	d="
M163.459625,280.998474 
	C163.356400,279.956818 163.594345,278.877289 163.764297,277.459229 
	C164.608994,277.192078 165.521683,277.263397 167.704605,277.433990 
	C165.890411,279.072845 164.845581,280.016693 163.459625,280.998474 
z"/>
<path fill="#AE3740" opacity="1.000000" stroke="none" 
	d="
M166.207077,216.817230 
	C165.626221,215.855942 165.372009,214.765198 165.051147,213.338196 
	C168.152573,213.116013 169.051727,214.183731 166.207077,216.817230 
z"/>
<path fill="#AE3740" opacity="1.000000" stroke="none" 
	d="
M151.887451,200.840240 
	C151.126968,201.400787 150.365036,201.634277 149.316254,201.973328 
	C149.559692,201.182083 150.089981,200.285263 150.620270,199.388428 
	C151.042191,199.763351 151.464096,200.138275 151.887451,200.840240 
z"/>
<path fill="#A95154" opacity="1.000000" stroke="none" 
	d="
M167.318695,291.516357 
	C168.879471,291.268158 170.761368,291.238464 172.925720,291.494141 
	C171.352066,291.764679 169.495926,291.749786 167.318695,291.516357 
z"/>
<path fill="#AE3740" opacity="1.000000" stroke="none" 
	d="
M176.807159,239.917618 
	C175.869003,239.904114 174.939011,239.495239 173.813446,238.850250 
	C174.683685,238.916840 175.749512,239.219543 176.807159,239.917618 
z"/>
<path fill="#AE3740" opacity="1.000000" stroke="none" 
	d="
M171.774414,236.908035 
	C170.869141,236.751602 169.996323,236.221207 168.985992,235.411407 
	C169.834625,235.599365 170.820740,236.066711 171.774414,236.908035 
z"/>
<path fill="#A95154" opacity="1.000000" stroke="none" 
	d="
M143.055679,294.948303 
	C142.317963,294.775299 141.580246,294.602325 140.589661,294.290100 
	C139.997116,293.970184 139.657440,293.789581 139.127808,293.386658 
	C139.698883,293.060638 140.459930,292.956879 141.699585,293.176361 
	C142.470673,293.982513 142.763184,294.465424 143.055679,294.948303 
z"/>
<path fill="#AE3740" opacity="1.000000" stroke="none" 
	d="
M166.571320,233.076324 
	C165.632401,232.920212 164.812943,232.383804 163.854294,231.583267 
	C164.707001,231.778107 165.698914,232.237076 166.571320,233.076324 
z"/>
<path fill="#FBE2DE" opacity="1.000000" stroke="none" 
	d="
M138.867950,259.416199 
	C139.542923,259.738586 140.268616,260.346161 141.008408,261.286987 
	C140.321228,260.980591 139.619949,260.340973 138.867950,259.416199 
z"/>
<path fill="#AE3740" opacity="1.000000" stroke="none" 
	d="
M129.159454,238.905731 
	C129.356583,238.329956 129.894089,237.756134 130.711212,237.082764 
	C130.493835,237.624710 129.996826,238.266205 129.159454,238.905731 
z"/>
<path fill="#FBE2DE" opacity="1.000000" stroke="none" 
	d="
M144.796997,258.644012 
	C144.498322,258.251434 144.239090,257.538452 143.984589,256.525726 
	C144.271698,256.925171 144.554077,257.624420 144.796997,258.644012 
z"/>
<path fill="#AE3740" opacity="1.000000" stroke="none" 
	d="
M168.812714,234.856750 
	C168.233871,234.787643 167.565994,234.400528 166.737946,233.768402 
	C167.293076,233.861862 168.008377,234.200302 168.812714,234.856750 
z"/>
<path fill="#A95154" opacity="1.000000" stroke="none" 
	d="
M139.563293,298.137024 
	C139.841919,298.405884 139.946274,298.856140 139.988663,299.650696 
	C139.747467,299.436127 139.568222,298.877289 139.563293,298.137024 
z"/>
<path fill="#AE3740" opacity="1.000000" stroke="none" 
	d="
M173.496033,238.187714 
	C172.970627,238.277832 172.482819,238.027084 171.873917,237.526962 
	C172.346436,237.467331 172.940033,237.657089 173.496033,238.187714 
z"/>
<path fill="#AE3740" opacity="1.000000" stroke="none" 
	d="
M163.699341,231.032684 
	C163.238617,231.080566 162.725845,230.812225 162.089523,230.277847 
	C162.526413,230.246689 163.086853,230.481567 163.699341,231.032684 
z"/>
<path fill="#AE3740" opacity="1.000000" stroke="none" 
	d="
M137.815826,208.106384 
	C137.629929,208.471359 137.113922,208.808517 136.273438,209.146027 
	C136.461197,208.790451 136.973450,208.434509 137.815826,208.106384 
z"/>
<path fill="#AE3740" opacity="1.000000" stroke="none" 
	d="
M135.225204,209.174744 
	C134.967300,209.536957 134.342880,209.844604 133.361694,210.097321 
	C133.622849,209.734985 134.240768,209.427567 135.225204,209.174744 
z"/>
<path fill="#FBE2DE" opacity="1.000000" stroke="none" 
	d="
M133.659332,263.932068 
	C133.902115,264.240295 133.753098,264.519562 133.290573,264.865356 
	C133.179413,264.645294 133.276245,264.302368 133.659332,263.932068 
z"/>
<path fill="#A95154" opacity="1.000000" stroke="none" 
	d="
M136.111176,293.957397 
	C136.082642,293.690155 136.268784,293.585968 136.665939,293.671967 
	C136.674988,293.931091 136.491287,294.017181 136.111176,293.957397 
z"/>
<path fill="#B2404A" opacity="1.000000" stroke="none" 
	d="
M134.838165,273.086243 
	C135.028473,273.181885 135.052948,273.349121 134.995697,273.756165 
	C134.770996,273.818298 134.607864,273.651825 134.498657,273.455322 
	C134.470215,273.404114 134.609879,273.259491 134.838165,273.086243 
z"/>
<path fill="#AE3740" opacity="1.000000" stroke="none" 
	d="
M154.306030,203.877487 
	C154.066788,203.858246 153.973816,203.717499 153.867599,203.324249 
	C154.053680,203.299835 154.252991,203.527908 154.306030,203.877487 
z"/>
<path fill="#AE3740" opacity="1.000000" stroke="none" 
	d="
M152.893066,201.756195 
	C152.695343,201.856201 152.380219,201.719727 151.950958,201.346191 
	C152.149765,201.245972 152.462723,201.382843 152.893066,201.756195 
z"/>
<path fill="#B2404A" opacity="1.000000" stroke="none" 
	d="
M135.593262,272.034973 
	C135.739594,272.234894 135.593903,272.496918 135.190918,272.854431 
	C134.993240,272.648163 135.115784,272.363892 135.593262,272.034973 
z"/>
<path fill="#AE3740" opacity="1.000000" stroke="none" 
	d="
M131.217957,236.875793 
	C131.134430,236.678070 131.286148,236.362259 131.690308,235.949219 
	C131.779556,236.153900 131.616364,236.455795 131.217957,236.875793 
z"/>
<path fill="#242424" opacity="1.000000" stroke="none" 
	d="
M260.525848,284.581970 
	C255.823273,284.581879 251.560898,284.581879 246.965958,284.581879 
	C247.327835,279.470734 250.564377,277.942993 254.470642,277.332733 
	C259.122375,276.606018 262.521851,278.893616 264.792877,284.268555 
	C263.430206,284.380188 262.198120,284.481110 260.525848,284.581970 
z"/>
<path fill="#09090A" opacity="1.000000" stroke="none" 
	d="
M239.789124,241.262604 
	C240.522949,241.442001 241.084732,241.933960 241.331131,242.757904 
	C240.549530,242.584976 240.083313,242.080063 239.789124,241.262604 
z"/>
<path fill="#09090A" opacity="1.000000" stroke="none" 
	d="
M243.930603,247.353943 
	C244.314194,247.117844 244.707016,247.260910 245.083984,247.726288 
	C244.692032,247.943451 244.315918,247.838287 243.930603,247.353943 
z"/>
<path fill="#09090A" opacity="1.000000" stroke="none" 
	d="
M240.998383,243.213989 
	C241.253143,243.075104 241.596573,243.191086 241.973114,243.663025 
	C241.699860,243.835602 241.393463,243.652237 240.998383,243.213989 
z"/>
<path fill="#0D0E0F" opacity="1.000000" stroke="none" 
	d="
M268.801086,239.023346 
	C263.168121,242.138153 258.337677,241.759872 254.846756,238.223755 
	C251.616272,234.951431 251.003143,229.353943 253.433975,225.325607 
	C255.801163,221.402740 260.358612,219.644684 265.097046,220.826553 
	C272.823853,222.753738 274.851501,231.880508 268.801086,239.023346 
z"/>
<path fill="#BB2228" opacity="1.000000" stroke="none" 
	d="
M143.281647,295.040649 
	C142.763184,294.465424 142.470673,293.982513 142.079758,293.235291 
	C142.385284,292.897095 142.789230,292.823242 143.500641,292.784485 
	C143.926743,293.363861 144.045349,293.908081 144.055511,294.686279 
	C143.947037,294.920258 143.507614,295.132965 143.281647,295.040649 
z"/>
<path fill="#B02E34" opacity="1.000000" stroke="none" 
	d="
M150.663666,304.918823 
	C148.460144,304.985535 146.674149,304.985535 144.572922,304.985535 
	C144.705505,302.744751 144.818420,300.836243 144.919220,299.132599 
	C147.881531,298.377533 150.595795,297.685699 154.781433,296.618835 
	C153.261597,300.000549 152.171402,302.426331 150.663666,304.918823 
z"/>
</svg>